<svg width="70" height="80" viewBox="0 0 70 80" fill="none" xmlns="http://www.w3.org/2000/svg">
<g clip-path="url(#clip0)">
<path fill-rule="evenodd" clip-rule="evenodd" d="M28.9545 30.6488C28.1424 33.2765 17.8637 33.1254 24.1261 36.0249C27.9174 37.779 34.7204 33.1649 30.052 26.7829C29.0009 25.3448 27.7434 23.8974 25.5507 22.896C21.7849 21.1768 13.9448 22.443 7.32736 21.2256C7.8007 22.4895 9.53393 23.9949 10.7614 24.6873C13.555 26.2601 17.7291 25.6305 22.1098 25.6305C25.2027 25.6329 30.3885 26.0023 28.9545 30.6488Z" fill="#FECC00"/>
<path fill-rule="evenodd" clip-rule="evenodd" d="M26.2538 3.02264C26.9197 5.81987 27.8107 5.98482 31.1681 6.14745C28.9847 7.22313 25.9777 7.86901 24.4277 5.90351C22.6411 3.64295 25.5763 0.174289 26.2538 3.02264Z" fill="#FECC00"/>
<path fill-rule="evenodd" clip-rule="evenodd" d="M26.813 21.3046C23.2142 13.1847 15.4483 15.4383 9.10009 14.581C6.30185 14.2023 5.08139 13.4705 2.93283 12.4668C2.93283 14.9783 7.49215 19.5807 11.7359 20.0941C14.0562 20.3753 17.3556 20.1522 19.7872 20.1662C21.0402 20.1731 22.3488 20.1987 23.5948 20.352C25.1169 20.5402 25.6412 20.9421 26.813 21.3046Z" fill="#FF3131"/>
<path fill-rule="evenodd" clip-rule="evenodd" d="M24.9292 15.0898C23.2958 6.5006 13.6296 7.99215 6.56668 6.47736C3.45288 5.80826 2.27187 4.944 0.102423 3.70801C-0.679506 6.24968 3.15589 11.3748 7.89619 12.3274C10.4879 12.8478 14.3674 12.957 17.1703 13.2195C18.6158 13.3543 20.117 13.5123 21.5092 13.7957C23.2099 14.1419 23.6902 14.6019 24.9292 15.0898Z" fill="#FECC00"/>
<path fill-rule="evenodd" clip-rule="evenodd" d="M35.152 21.3046C39.7252 13.1847 49.5864 15.4383 57.6516 14.581C61.2062 14.2023 62.7562 13.4705 65.4871 12.4668C65.4871 16.2468 61.7979 19.1137 57.3268 20.0895C52.67 21.1048 47.1617 20.1499 44.0804 20.1638C42.4887 20.1708 40.8274 20.1964 39.2449 20.3497C37.3075 20.5402 36.6393 20.9421 35.152 21.3046Z" fill="#FECC00"/>
<path fill-rule="evenodd" clip-rule="evenodd" d="M39.7461 26.0416C41.0547 21.6739 46.6953 20.942 50.2291 21.9271C61.958 25.2006 49.1246 45.2715 35.0313 30.3513C30.0961 25.1263 24.6203 16.1142 27.7225 10.7684C29.6112 7.51343 31.5881 6.86524 32.3793 6.04047C28.9267 3.04576 33.5139 -0.966554 35.7297 0.209028C33.1983 3.00626 42.3796 9.53469 39.9132 12.0415C39.7322 12.2251 38.1289 9.64389 34.5 11.4863C30.5138 13.5098 31.4489 23.0864 35.3283 27.719C44.1221 38.2203 51.8672 21.718 39.7461 26.0416Z" fill="#FF3131"/>
<path fill-rule="evenodd" clip-rule="evenodd" d="M42.368 14.1813C44.0014 5.59447 53.3219 7.0837 60.3871 5.56892C63.5009 4.90213 65.0277 4.03555 67.1971 2.79956C67.979 5.34123 64.1436 10.4664 59.4033 11.419C56.8116 11.9394 52.9321 12.0509 50.1293 12.3111C48.6861 12.4458 47.1825 12.6038 45.7904 12.8873C44.0873 13.2358 43.6047 13.6958 42.368 14.1813Z" fill="#FF3131"/>
<path fill-rule="evenodd" clip-rule="evenodd" d="M19.2141 32.6863C20.3069 29.889 21.358 29.7241 25.2677 29.5615C22.8592 28.4858 19.4484 27.8399 17.4252 29.8054C15.098 32.066 18.1004 35.5346 19.2141 32.6863Z" fill="#FF3131"/>
<path fill-rule="evenodd" clip-rule="evenodd" d="M59.343 26.6341C58.8743 24.0111 57.872 23.7416 54.0528 23.1538C56.6608 22.4661 60.1644 22.2756 61.7306 24.262C63.5357 26.5458 59.821 29.3059 59.343 26.6341Z" fill="#FECC00"/>
<path d="M56.725 77.5698V74.6773H57.2216C58.1798 74.6773 58.6068 75.1211 58.6068 76.1317C58.6068 77.14 58.1798 77.5698 57.2216 77.5698H56.725ZM62.2612 79.7955H64.6882V67.8167H62.2612V79.7955ZM54.2145 79.7955H57.4257C60.0221 79.7955 61.1335 78.6502 61.1335 76.134C61.1335 73.9432 60.0221 72.3703 57.4257 72.3703H56.725V67.8167H54.2122V79.7955H54.2145ZM48.8315 77.5024H47.908V74.8841H48.8825C49.7874 74.8841 50.284 75.3279 50.284 76.2014C50.284 77.0564 49.7874 77.5024 48.8315 77.5024ZM48.7804 70.1098C49.567 70.1098 49.9081 70.521 49.9081 71.3248C49.9081 72.1635 49.5485 72.6073 48.8663 72.6073H47.9103V70.1098H48.7804ZM51.3606 73.669C51.9917 73.0882 52.3676 72.1287 52.3676 71.2226C52.3676 69.1874 51.052 67.8167 49.2051 67.8167H45.481V79.7932H49.2584C51.3095 79.7932 52.7783 78.3551 52.7783 76.2177C52.7783 75.1397 52.2492 74.1825 51.3606 73.669ZM41.8429 79.7955H44.5761L41.0215 73.0534L44.0634 67.8167H41.2953L39.62 71.067L39.0052 72.4028V67.8167H36.613V79.7932H39.0052V76.3362L39.6711 75.2582L41.8429 79.7955ZM31.3506 80C33.7776 80 35.1605 78.6478 35.2116 76.134H32.7846C32.7173 77.1958 32.288 77.6395 31.3483 77.6395C30.5965 77.6395 30.1859 77.1609 30.1859 76.134V71.4805C30.1859 70.4188 30.6128 69.9402 31.3483 69.9402C32.2718 69.9402 32.6801 70.3862 32.7498 71.4805H35.1767C35.0909 68.9481 33.7591 67.5797 31.3669 67.5797C29.0257 67.5797 27.6591 68.9481 27.6591 71.4805V76.134C27.6591 78.6478 29.0257 80 31.3506 80ZM22.3457 77.6395C21.4408 77.6395 20.9791 77.0401 20.9791 75.911V71.7012C20.9791 70.5721 21.4408 69.9727 22.3457 69.9727C23.2506 69.9727 23.7123 70.5721 23.7123 71.7012V75.911C23.7123 77.0401 23.2506 77.6395 22.3457 77.6395ZM22.3457 80C24.7727 80 26.2252 78.4782 26.2252 75.911V71.7012C26.2252 69.134 24.7727 67.6122 22.3457 67.6122C19.9187 67.6122 18.4662 69.134 18.4662 71.7012V75.911C18.4662 78.4759 19.9187 80 22.3457 80ZM14.2457 67.8167L12.3662 72.3517C12.1273 72.9511 11.7166 73.9943 11.5797 74.4404H11.5124C11.3755 73.9943 10.9648 72.9511 10.7258 72.3517L8.84641 67.8167H6.40317V79.7932H8.76056V76.8496C8.70951 75.3952 8.6399 73.9409 8.58886 72.4865L8.67471 72.4516L9.75131 75.5997L10.3499 77.226H12.7421L13.3408 75.5997L14.4174 72.4516L14.5032 72.4865C14.4359 73.9409 14.3826 75.3952 14.3153 76.8496V79.7932H16.6912V67.8167H14.2457ZM62.0384 57.039V54.1465H62.535C63.4932 54.1465 63.9202 54.5925 63.9202 55.6008C63.9202 56.6091 63.4932 57.039 62.535 57.039H62.0384ZM67.5769 59.2623H70.0039V47.2858H67.5769V59.2623ZM59.5279 59.2623H62.7392C65.3355 59.2623 66.4469 58.117 66.4469 55.6008C66.4469 53.41 65.3355 51.8371 62.7392 51.8371H62.0384V47.2858H59.5256V59.2623H59.5279ZM58.3817 47.2858H51.2051V49.5951H53.5463V59.2623H56.0406V49.5951H58.3817V47.2858ZM47.4463 47.2858V52.0764H44.9868V47.2858H42.5436V59.2623H44.9868V54.3858H47.4463V59.2623H49.8895V47.2858H47.4463ZM36.9726 56.953V54.3021H40.3741V52.0787H36.9726V49.5975H40.7152V47.2881H34.5456V59.2647H40.8846V56.9553H36.9726V56.953ZM29.8123 56.9878H26.9213C27.5361 55.8425 27.7937 54.4555 27.8447 52.9848L27.9816 49.5789H29.8123V56.9878ZM32.2045 56.9878V47.2858H25.7054L25.5175 52.2646C25.4548 53.9072 25.1648 55.8401 24.1045 56.9878H23.3364V61.2999H25.7286V59.2647H30.9075V61.2999H33.3159V56.9878H32.2045ZM21.8144 47.2858L20.4129 52.1786L18.9094 47.2858H16.3641L19.3038 55.9958C18.9279 57.1249 18.5683 57.3131 17.733 57.3131H17.204V59.4691H17.6472C19.8166 59.4691 20.7563 59.023 21.5777 56.3373L24.362 47.2858H21.8144ZM16.074 47.2858H8.89745V49.5951H11.2386V59.2623H13.7329V49.5951H16.074V47.2858ZM4.43791 59.4691C6.8649 59.4691 8.24778 58.117 8.29882 55.6032H5.87183C5.80222 56.6649 5.37529 57.1087 4.43559 57.1087C3.68382 57.1087 3.27313 56.6301 3.27313 55.6032V50.9496C3.27313 49.8879 3.70006 49.4093 4.43559 49.4093C5.35905 49.4093 5.76742 49.8554 5.83702 50.9496H8.26402C8.17817 48.4172 6.84634 47.0488 4.45415 47.0488C2.113 47.0488 0.746368 48.4172 0.746368 50.9496V55.6032C0.746368 58.117 2.113 59.4691 4.43791 59.4691Z" fill="#2B2A29"/>
</g>
<defs>
<clipPath id="clip0">
<rect width="70" height="80" fill="white"/>
</clipPath>
</defs>
</svg>
