<?xml version="1.0" standalone="no"?>
<!DOCTYPE svg PUBLIC "-//W3C//DTD SVG 20010904//EN"
 "http://www.w3.org/TR/2001/REC-SVG-20010904/DTD/svg10.dtd">
<svg version="1.0" xmlns="http://www.w3.org/2000/svg"
 width="281.000000pt" height="152.000000pt" viewBox="0 0 281.000000 152.000000"
 preserveAspectRatio="xMidYMid meet">

<g transform="translate(0.000000,152.000000) scale(0.100000,-0.100000)"
fill="#000000" stroke="none">
<path d="M1388 1500 c-80 -43 -109 -139 -61 -206 l23 -32 -41 -26 c-61 -41
-122 -109 -155 -174 -26 -51 -29 -67 -29 -147 1 -109 25 -193 94 -319 104
-193 281 -401 404 -475 112 -66 172 -85 277 -85 86 -1 101 2 162 31 80 38 154
108 188 178 28 58 38 164 21 217 -16 48 -66 96 -131 127 -49 23 -67 26 -170
26 -106 0 -120 -2 -172 -28 -32 -16 -73 -46 -92 -68 -37 -44 -54 -84 -31 -75
8 3 41 11 74 17 145 30 218 -60 135 -168 -56 -73 -165 -93 -263 -48 -77 36
-171 136 -215 227 -53 111 -70 187 -71 313 0 98 3 116 26 166 15 31 39 65 55
76 69 49 160 54 216 13 34 -25 48 -19 48 21 0 40 -29 95 -111 210 -84 117
-103 160 -95 211 6 36 5 38 -21 38 -16 -1 -45 -10 -65 -20z"/>
<path d="M2720 1358 c-98 -49 -229 -82 -415 -102 -269 -30 -379 -68 -454 -152
-35 -40 -81 -134 -81 -165 0 -5 18 0 41 12 62 31 153 47 364 64 258 21 319 31
393 65 121 56 237 196 230 278 l-3 38 -75 -38z"/>
<path d="M131 967 c26 -92 150 -209 279 -262 39 -16 84 -20 325 -25 227 -5
288 -10 324 -23 24 -10 46 -15 48 -13 9 9 -31 71 -75 119 -92 98 -180 124
-457 137 -216 10 -284 22 -387 68 l-66 30 9 -31z"/>
<path d="M798 321 c-78 -26 -120 -91 -98 -155 6 -19 18 -37 26 -40 39 -15 53
-5 86 57 39 73 72 94 168 104 l64 6 -39 14 c-49 18 -171 26 -207 14z"/>
</g>
</svg>
