<?xml version="1.0" standalone="no"?>
<!DOCTYPE svg PUBLIC "-//W3C//DTD SVG 1.1//EN" "http://www.w3.org/Graphics/SVG/1.1/DTD/svg11.dtd" >
<svg>
<metadata>
Created by FontForge 20120731 at Thu Sep  5 15:24:03 2019
 By www
Copyright (c) 2013 by Jonas Hecksher, Playtype, e-Types AS. All rights reserved.
</metadata>
<defs>
<font id="BerlingskeSans-Regular" horiz-adv-x="0" >
  <font-face 
    font-family="Berlingske Sans"
    font-weight="400"
    font-stretch="normal"
    units-per-em="1000"
    panose-1="2 0 5 3 5 0 0 2 0 4"
    ascent="800"
    descent="-200"
    x-height="510"
    cap-height="690"
    bbox="-360 -274 1627 1042"
    underline-thickness="50"
    underline-position="-25"
    unicode-range="U+000D-FB06"
  />
<missing-glyph horiz-adv-x="605" 
 />
    <glyph glyph-name="f_f" unicode="ff" horiz-adv-x="580" 
d="M641 715v-62q-32 10 -66 10q-87 0 -87 -116v-37h134v-56h-134v-454h-75v454h-225v-454h-75v454h-100v56h100v35q0 86 41.5 132.5t123.5 46.5q29 0 63 -9v-62q-32 10 -66 10q-87 0 -87 -116v-37h225v35q0 86 41.5 132.5t123.5 46.5q29 0 63 -9z" />
    <glyph glyph-name="f_f_i" unicode="ffi" horiz-adv-x="865" 
d="M341 715v-62q-32 10 -66 10q-87 0 -87 -116v-37h224v36q0 90 52.5 134.5t142.5 44.5q68 0 122 -25l-24 -56q-47 20 -101 20q-118 0 -118 -116v-38h299v-510h-75v454h-224v-454h-74v454h-224v-454h-75v454h-100v56h100v35q0 86 41.5 132.5t123.5 46.5q29 0 63 -9z" />
    <glyph glyph-name="f_b" unicode="fb" horiz-adv-x="900" 
d="M859 273q0 -69 -25.5 -124.5t-67.5 -90t-92.5 -52.5t-103.5 -18q-35 0 -85 6.5t-76 15.5v695l75 21v-254q70 50 155 50q97 0 158.5 -69t61.5 -180zM341 715v-62q-32 10 -66 10q-87 0 -87 -116v-37h134v-56h-134v-454h-75v454h-100v56h100v35q0 86 41.5 132.5t123.5 46.5
q29 0 63 -9zM781 267q0 87 -44 141.5t-116 54.5q-68 0 -137 -45v-356q39 -15 93 -15q81 0 142.5 57.5t61.5 162.5z" />
    <glyph glyph-name="f_h" unicode="fh" horiz-adv-x="900" 
d="M484 726v-286q107 82 194 82q66 0 106.5 -41t40.5 -125v-356h-75v356q0 107 -88 107q-78 0 -178 -75v-388h-75v705zM341 715v-62q-32 10 -66 10q-87 0 -87 -116v-37h134v-56h-134v-454h-75v454h-100v56h100v35q0 86 41.5 132.5t123.5 46.5q29 0 63 -9z" />
    <glyph glyph-name="f_i" unicode="fi" horiz-adv-x="566" 
d="M486 0h-75v454h-223v-454h-75v454h-100v56h100v35q0 89 53 134t142 45q68 0 122 -25l-23 -56q-47 20 -102 20q-117 0 -117 -116v-37h298v-510z" />
    <glyph glyph-name="f_j" unicode="fj" horiz-adv-x="566" 
d="M486 510v-472q0 -76 -18 -128.5t-40 -76.5t-63 -55l-41 50q46 40 66.5 82.5t20.5 128.5v415h-223v-454h-75v454h-100v56h100v35q0 90 53.5 134.5t141.5 44.5q68 0 122 -25l-23 -56q-47 20 -102 20q-117 0 -117 -116v-37h298z" />
    <glyph glyph-name="f_k" unicode="fk" horiz-adv-x="816" 
d="M484 726v-726h-75v705zM341 715v-62q-32 10 -66 10q-87 0 -87 -116v-37h134v-56h-134v-454h-75v454h-100v56h100v35q0 86 41.5 132.5t123.5 46.5q29 0 63 -9zM746 0l-239 281l220 229h87l-218 -228l243 -282h-93z" />
    <glyph glyph-name="f_l" unicode="fl" horiz-adv-x="566" 
d="M486 0h-75v705l75 21v-726zM341 715v-62q-32 10 -66 10q-87 0 -87 -116v-37h134v-56h-134v-454h-75v454h-100v56h100v35q0 86 41.5 132.5t123.5 46.5q29 0 63 -9z" />
    <glyph glyph-name="f_t" unicode="ft" horiz-adv-x="663" 
d="M640 6q-38 -16 -96 -16q-60 0 -96.5 30.5t-36.5 115.5v318h-223v-454h-75v454h-100v56h100v35q0 86 41.5 132.5t123.5 46.5q29 0 63 -9v-62q-32 10 -66 10q-87 0 -87 -116v-37h223v100l75 50v-150h140v-56h-140v-318q0 -89 73 -89q45 0 78 15z" />
    <glyph glyph-name="f_f_b" unicode="ffb" horiz-adv-x="1199" 
d="M341 715v-62q-32 10 -66 10q-87 0 -87 -116v-37h224v65q0 86 41.5 132.5t123.5 46.5q52 0 100 -24l-21 -53q-42 16 -82 16q-88 0 -88 -116v-67h135v-56h-135v-454h-74v454h-224v-454h-75v454h-100v56h100v35q0 86 41.5 132.5t123.5 46.5q29 0 63 -9zM1158 273
q0 -69 -25.5 -124.5t-67.5 -90t-92.5 -52.5t-103.5 -18q-35 0 -85 6.5t-76 15.5v695l75 21v-254q70 50 155 50q97 0 158.5 -69t61.5 -180zM1080 267q0 87 -44 141.5t-116 54.5q-68 0 -137 -45v-356q39 -15 93 -15q81 0 142.5 57.5t61.5 162.5z" />
    <glyph glyph-name="f_f_f" unicode="fff" horiz-adv-x="880" 
d="M413 510v35q0 86 41.5 132.5t123.5 46.5q29 0 63 -9v-62q-32 10 -66 10q-87 0 -87 -116v-37h225v35q0 86 41.5 132.5t123.5 46.5q29 0 63 -9v-62q-32 10 -66 10q-87 0 -87 -116v-37h134v-56h-134v-454h-75v454h-225v-454h-75v454h-225v-454h-75v454h-100v56h100v35
q0 86 41.5 132.5t123.5 46.5q29 0 63 -9v-62q-32 10 -66 10q-87 0 -87 -116v-37h225z" />
    <glyph glyph-name="f_f_h" unicode="ffh" horiz-adv-x="1199" 
d="M783 726v-286q107 82 194 82q66 0 106.5 -41t40.5 -125v-356h-75v356q0 107 -88 107q-78 0 -178 -75v-388h-75v705zM341 715v-62q-32 10 -66 10q-87 0 -87 -116v-37h225v35q0 86 41.5 132.5t123.5 46.5q29 0 63 -9v-62q-32 10 -66 10q-87 0 -87 -116v-37h134v-56h-134
v-454h-75v454h-225v-454h-75v454h-100v56h100v35q0 86 41.5 132.5t123.5 46.5q29 0 63 -9z" />
    <glyph glyph-name="f_f_j" unicode="ffj" horiz-adv-x="864" 
d="M341 715v-62q-32 10 -66 10q-87 0 -87 -116v-37h223v35q0 90 53.5 134.5t141.5 44.5q68 0 122 -25l-23 -56q-47 20 -102 20q-117 0 -117 -116v-37h298v-472q0 -76 -18 -128.5t-40 -76.5t-63 -55l-41 50q46 40 66.5 82.5t20.5 128.5v415h-223v-454h-75v454h-223v-454h-75
v454h-100v56h100v35q0 86 41.5 132.5t123.5 46.5q29 0 63 -9z" />
    <glyph glyph-name="f_f_k" unicode="ffk" horiz-adv-x="1119" 
d="M783 726v-726h-75v705zM641 715v-62q-32 10 -66 10q-87 0 -87 -116v-37h134v-56h-134v-454h-75v454h-225v-454h-75v454h-100v56h100v35q0 86 41.5 132.5t123.5 46.5q29 0 63 -9v-62q-32 10 -66 10q-87 0 -87 -116v-37h225v35q0 86 41.5 132.5t123.5 46.5q29 0 63 -9z
M1045 0l-239 281l220 229h87l-218 -228l243 -282h-93z" />
    <glyph glyph-name="f_f_l" unicode="ffl" horiz-adv-x="865" 
d="M785 0h-75v705l75 21v-726zM341 715v-62q-32 10 -66 10q-87 0 -87 -116v-37h224v35q0 86 41.5 132.5t123.5 46.5q52 0 100 -24l-21 -53q-42 16 -82 16q-88 0 -88 -116v-37h135v-56h-135v-454h-74v454h-224v-454h-75v454h-100v56h100v35q0 86 41.5 132.5t123.5 46.5
q29 0 63 -9z" />
    <glyph glyph-name=".notdef" horiz-adv-x="605" 
 />
    <glyph glyph-name=".null" 
 />
    <glyph glyph-name=".null" 
 />
    <glyph glyph-name="nonmarkingreturn" horiz-adv-x="333" 
 />
    <glyph glyph-name="CR" unicode="&#xd;" 
 />
    <glyph glyph-name="space" unicode=" " horiz-adv-x="210" 
 />
    <glyph glyph-name="exclam" unicode="!" horiz-adv-x="232" 
d="M72 690h87q0 -75 -4.5 -159.5t-11 -185t-9.5 -159.5h-37q-3 51 -10 157t-11 188.5t-4 158.5zM74 0v85h85v-85h-85z" />
    <glyph glyph-name="quotedbl" unicode="&#x22;" horiz-adv-x="346" 
d="M287 488h-70v202h70v-202zM127 488h-70v202h70v-202z" />
    <glyph glyph-name="numbersign" unicode="#" horiz-adv-x="584" 
d="M166 0h-52l45 234h-124l10 50h124l24 121h-125l10 50h124l46 235h51l-45 -235h118l46 235h51l-45 -235h124l-10 -50h-124l-23 -121h124l-10 -50h-124l-45 -234h-52l45 234h-118zM244 405l-23 -121h118l24 121h-119z" />
    <glyph glyph-name="dollar" unicode="$" horiz-adv-x="537" 
d="M296 -115h-60v104q-105 5 -170 53q12 19 38 55q51 -40 132 -50v269q-41 22 -63.5 35.5t-51.5 37.5t-42.5 53t-13.5 65q0 72 48.5 118t122.5 55v74h60v-73q74 -7 135 -46l-30 -54q-46 29 -105 40v-252q32 -17 50.5 -27.5t44 -30t39.5 -38t24.5 -45.5t10.5 -58
q0 -72 -48.5 -119.5t-120.5 -58.5v-107zM145 522q0 -39 23.5 -67t67.5 -54v220q-41 -7 -66 -32.5t-25 -66.5zM386 165q0 65 -90 118v-232q40 10 65 39.5t25 74.5z" />
    <glyph glyph-name="percent" unicode="%" horiz-adv-x="746" 
d="M201 0h-65l383 640h-206q43 -46 43 -107q0 -65 -47 -110.5t-114 -45.5q-66 0 -113 46t-47 110t46 110.5t111 46.5h424zM195 634q-42 0 -70 -29.5t-28 -71.5t28 -71.5t70 -29.5t70 29.5t28 71.5t-28 71.5t-70 29.5zM550 -12q-66 0 -113 46t-47 110q0 65 47 111t113 46
q67 0 114 -46t47 -111t-47 -110.5t-114 -45.5zM550 245q-42 0 -70 -29.5t-28 -71.5q0 -43 28 -72t70 -29t70 29t28 72q0 42 -28 71.5t-70 29.5z" />
    <glyph glyph-name="ampersand" unicode="&#x26;" horiz-adv-x="666" 
d="M530 349h70q-16 -114 -85 -209l122 -140h-95l-74 85q-99 -97 -227 -97q-84 0 -142.5 48.5t-58.5 128.5q0 65 43 111t132 99l-10 12q-41 47 -59 82.5t-18 76.5q0 75 51.5 115.5t124.5 40.5q71 0 118.5 -38t47.5 -112q0 -54 -37 -96t-114 -89l151 -175q48 74 60 157z
M270 424l13 -15q59 36 87.5 69t28.5 73q0 46 -29.5 71t-67.5 25q-39 0 -69.5 -27.5t-30.5 -71.5q0 -22 12 -46t22.5 -37.5t33.5 -40.5zM254 50q94 0 171 84l-174 199q-68 -42 -103 -80t-35 -86q0 -49 40.5 -83t100.5 -34z" />
    <glyph glyph-name="quotesingle" unicode="'" horiz-adv-x="185" 
d="M127 488h-70v202h70v-202z" />
    <glyph glyph-name="parenleft" unicode="(" horiz-adv-x="340" 
d="M329 756q-76 -127 -118.5 -233t-42.5 -215q0 -111 43 -219.5t118 -228.5h-68q-82 115 -127 223t-45 225t44 222.5t128 225.5h68z" />
    <glyph glyph-name="parenright" unicode=")" horiz-adv-x="341" 
d="M252 308q0 -117 -44.5 -224t-127.5 -224h-68q75 123 118 230.5t43 217.5q0 109 -43 216.5t-119 231.5h69q83 -117 127.5 -224t44.5 -224z" />
    <glyph glyph-name="asterisk" unicode="*" horiz-adv-x="438" 
d="M415 524l-161 -37l108 -127l-60 -40l-84 142l-85 -142l-60 40l113 127l-164 37l22 68l156 -65l-16 167h73l-15 -167l151 65z" />
    <glyph glyph-name="plus" unicode="+" horiz-adv-x="570" 
d="M313 502v-189h180v-58h-180v-189h-58v189h-178v58h178v189h58z" />
    <glyph glyph-name="comma" unicode="," horiz-adv-x="196" 
d="M54 0v85h85v-85l-42 -112h-43l37 112h-37z" />
    <glyph glyph-name="hyphen" unicode="-" horiz-adv-x="309" 
d="M288 253h-267v61h267v-61z" />
    <glyph glyph-name="period" unicode="." horiz-adv-x="198" 
d="M56 0v85h85v-85h-85z" />
    <glyph glyph-name="slash" unicode="/" horiz-adv-x="392" 
d="M392 690l-324 -690h-68l324 690h68z" />
    <glyph glyph-name="zero" unicode="0" horiz-adv-x="559" 
d="M280 -12q-59 0 -104 30t-70.5 81t-38.5 111.5t-13 128.5t13 130.5t38.5 116t70.5 85t104 31.5q77 0 129.5 -56t74 -135t21.5 -172q0 -68 -13 -128.5t-38.5 -111.5t-70.5 -81t-103 -30zM280 46q42 0 72.5 29t46 75.5t22.5 93t7 93.5q0 49 -7.5 98.5t-23 98.5t-46 79.5
t-71.5 30.5t-71.5 -31t-46.5 -80t-23 -98.5t-7 -97.5q0 -47 7 -93t22 -93t46 -76t73 -29z" />
    <glyph glyph-name="one" unicode="1" horiz-adv-x="559" 
d="M451 0h-331v58h148v552l-150 -110l-39 46l189 144h73v-632h110v-58z" />
    <glyph glyph-name="two" unicode="2" horiz-adv-x="559" 
d="M471 0h-399v60l209 250q55 66 82.5 113t27.5 94q0 53 -33.5 89t-85.5 36q-45 0 -85.5 -27.5t-61.5 -67.5l-65 26q30 59 88.5 94t127.5 35q86 0 140 -52t54 -130q0 -56 -29.5 -108.5t-94.5 -129.5l-190 -224h315v-58z" />
    <glyph glyph-name="three" unicode="3" horiz-adv-x="559" 
d="M496 227q0 -110 -78.5 -174.5t-185.5 -64.5q-110 0 -183 51l35 52q68 -45 146 -45q79 0 134.5 47t55.5 129q0 68 -39 107.5t-101 39.5q-47 0 -89 -26l-37 42l214 247h-299v58h375v-62l-176 -202q16 4 36 4q79 0 135.5 -55t56.5 -148z" />
    <glyph glyph-name="four" unicode="4" horiz-adv-x="559" 
d="M516 171h-80v-171h-74v171h-322v79l306 440h90v-461h80v-58zM362 229v378l-261 -378h261z" />
    <glyph glyph-name="five" unicode="5" horiz-adv-x="559" 
d="M489 224q0 -109 -75.5 -172.5t-179.5 -63.5q-110 0 -176 46l35 53q64 -41 140 -41q77 0 128.5 45.5t51.5 125.5q0 70 -39.5 111t-100.5 41q-76 0 -137 -56l-49 18l49 359h313v-58h-256l-34 -248q59 46 134 46q81 0 138.5 -55.5t57.5 -150.5z" />
    <glyph glyph-name="six" unicode="6" horiz-adv-x="559" 
d="M512 229q0 -109 -62 -175t-155 -66q-107 0 -167.5 91t-60.5 249q0 95 22.5 169t61.5 117.5t86 65.5t101 22q89 0 155 -47l-31 -49q-54 35 -125 35q-77 0 -129 -65.5t-60 -190.5q72 56 165 56q90 0 144.5 -56t54.5 -156zM296 380q-77 0 -150 -55q0 -126 40 -202.5
t114 -76.5q61 0 98 49.5t37 124.5q0 73 -36.5 116.5t-102.5 43.5z" />
    <glyph glyph-name="seven" unicode="7" horiz-adv-x="559" 
d="M500 632l-290 -632h-85l305 632h-384v58h454v-58z" />
    <glyph glyph-name="eight" unicode="8" horiz-adv-x="559" 
d="M511 177q0 -89 -68.5 -139t-162.5 -50q-92 0 -159 48t-67 132q0 127 161 191q-144 68 -144 176q0 71 59 119t152 48q94 0 152 -48.5t58 -115.5q0 -55 -41.5 -98t-104.5 -71q165 -66 165 -192zM412 533q0 50 -37 80.5t-94 30.5q-58 0 -96 -31.5t-38 -77.5q0 -44 36 -74.5
t116 -68.5q113 63 113 141zM434 172q0 14 -3 26.5t-6.5 22.5t-13 21t-14 17.5t-19 16t-19.5 13.5t-23.5 13t-22.5 11t-25 11t-23 10q-27 -14 -45.5 -26.5t-40.5 -32t-33.5 -45.5t-11.5 -57q0 -59 42 -93t106 -34q63 0 107.5 32.5t44.5 93.5z" />
    <glyph glyph-name="nine" unicode="9" horiz-adv-x="559" 
d="M232 48q80 0 128 67.5t57 193.5q-71 -56 -160 -56q-91 0 -147.5 56.5t-56.5 154.5q0 106 63.5 172t156.5 66q107 0 166 -92t59 -249q0 -184 -77 -278.5t-192 -94.5q-90 0 -154 47q20 32 31 48q54 -35 126 -35zM273 315q77 0 147 53q0 121 -39.5 198.5t-114.5 77.5
q-60 0 -97.5 -49.5t-37.5 -123.5q0 -73 37.5 -114.5t104.5 -41.5z" />
    <glyph glyph-name="colon" unicode=":" horiz-adv-x="198" 
d="M56 425v85h85v-85h-85zM56 0v85h85v-85h-85z" />
    <glyph glyph-name="semicolon" unicode=";" horiz-adv-x="196" 
d="M54 425v85h85v-85h-85zM54 0v85h85v-85l-42 -112h-43l37 112h-37z" />
    <glyph glyph-name="less" unicode="&#x3c;" horiz-adv-x="604" 
d="M491 81l-415 170v62l415 170v-65l-341 -136l341 -136v-65z" />
    <glyph glyph-name="equal" unicode="=" horiz-adv-x="570" 
d="M493 340h-416v58h416v-58zM493 170h-416v58h416v-58z" />
    <glyph glyph-name="greater" unicode="&#x3e;" horiz-adv-x="604" 
d="M491 251l-415 -170v65l341 136l-341 136v65l415 -170v-62z" />
    <glyph glyph-name="question" unicode="?" horiz-adv-x="445" 
d="M54 573q-3 4 -35 47q94 82 199 82q77 0 130.5 -43.5t53.5 -119.5q0 -37 -17 -72t-41 -62.5t-47.5 -54t-40.5 -58.5t-17 -65v-41h-64v36q0 43 15.5 81t37.5 65t44 52.5t37.5 54.5t15.5 60q0 48 -30.5 77t-89.5 29q-75 0 -151 -68zM167 0v85h85v-85h-85z" />
    <glyph glyph-name="at" unicode="@" horiz-adv-x="781" 
d="M483 75h-1q-60 -54 -129 -54q-63 0 -101.5 32t-38.5 88q0 141 223 141q27 0 39 -1v64q0 35 -25 54t-66 19q-59 0 -126 -38l-23 42q79 45 161 45q147 0 147 -119v-209q0 -69 35 -69q42 0 69 61t27 142q0 126 -79 204t-202 78q-129 0 -209.5 -88.5t-80.5 -220.5
q0 -143 82 -228t205 -85q91 0 152 34l19 -37q-72 -41 -180 -41q-147 0 -245 98t-98 257q0 153 98.5 256t257.5 103q148 0 246.5 -92t98.5 -234q0 -109 -52 -178.5t-129 -69.5q-55 0 -75 46zM475 109v124q-31 4 -64 4q-128 0 -128 -91q0 -34 23.5 -55t64.5 -21q53 0 104 39z
" />
    <glyph glyph-name="A" unicode="A" horiz-adv-x="589" 
d="M495 0l-64 202h-273l-64 -202h-77l224 690h108l224 -690h-78zM295 635l-119 -376h237z" />
    <glyph glyph-name="B" unicode="B" horiz-adv-x="565" 
d="M524 195q0 -102 -68.5 -148.5t-180.5 -46.5h-193v690h193q234 0 234 -168q0 -130 -132 -161v-2q147 -30 147 -164zM430 514q0 118 -142 118h-127v-249h95q81 0 127.5 33.5t46.5 97.5zM445 193q0 133 -183 133h-101v-268h116q79 0 123.5 33t44.5 102z" />
    <glyph glyph-name="C" unicode="C" horiz-adv-x="571" 
d="M522 70l19 -57q-69 -25 -157 -25q-148 0 -244.5 101.5t-96.5 258.5q0 161 100.5 257.5t243.5 96.5q90 0 158 -29l-24 -59q-61 29 -137 29q-119 0 -190.5 -85.5t-71.5 -210.5q0 -130 76 -215t192 -85q77 0 132 23z" />
    <glyph glyph-name="D" unicode="D" horiz-adv-x="697" 
d="M656 354q0 -172 -98.5 -263t-273.5 -91h-202v690h212q168 0 265 -88.5t97 -247.5zM575 350q0 130 -78.5 206t-202.5 76h-133v-574h126q134 0 211 75t77 217z" />
    <glyph glyph-name="E" unicode="E" horiz-adv-x="505" 
d="M486 58v-58h-404v690h376v-58h-297v-248h261v-58h-261v-268h325z" />
    <glyph glyph-name="F" unicode="F" horiz-adv-x="499" 
d="M482 690v-58h-321v-253h285v-58h-285v-321h-79v690h400z" />
    <glyph glyph-name="G" unicode="G" horiz-adv-x="666" 
d="M605 33q-90 -45 -221 -45q-148 0 -244.5 102t-96.5 259q0 107 48 189t125.5 123t169.5 41q127 0 221 -51l-32 -59q-84 52 -191 52q-119 0 -190.5 -85.5t-71.5 -210.5q0 -131 75.5 -216.5t190.5 -85.5q78 0 143 23v260l74 16v-312z" />
    <glyph glyph-name="H" unicode="H" horiz-adv-x="693" 
d="M611 0h-80v326h-370v-326h-79v690h79v-306h370v306h80v-690z" />
    <glyph glyph-name="I" unicode="I" horiz-adv-x="243" 
d="M161 0h-79v690h79v-690z" />
    <glyph glyph-name="J" unicode="J" horiz-adv-x="368" 
d="M290 690v-545q0 -78 -47 -117t-125 -39q-73 0 -115 20l19 58q32 -20 93 -20q96 0 96 92v551h79z" />
    <glyph glyph-name="K" unicode="K" horiz-adv-x="581" 
d="M154 690v-690h-79v690h79zM500 0l-316 352l292 338h91l-291 -330l324 -360h-100z" />
    <glyph glyph-name="L" unicode="L" horiz-adv-x="460" 
d="M451 58v-58h-369v690h79v-632h290z" />
    <glyph glyph-name="M" unicode="M" horiz-adv-x="869" 
d="M812 0h-77l-33 614h-3l-222 -614h-86l-222 614h-2l-33 -614h-77l44 690h116l219 -616l222 616h111z" />
    <glyph glyph-name="N" unicode="N" horiz-adv-x="717" 
d="M635 0h-100l-377 615v-615h-76v690h114l362 -594h1v594h76v-690z" />
    <glyph glyph-name="O" unicode="O" horiz-adv-x="757" 
d="M43 345q0 156 97.5 256.5t238.5 100.5t238 -100.5t97 -256.5t-97 -256.5t-238 -100.5t-238.5 100.5t-97.5 256.5zM124 345q0 -125 71 -212t184 -87t184 87t71 212q0 126 -71 212.5t-184 86.5t-184 -86.5t-71 -212.5z" />
    <glyph glyph-name="P" unicode="P" horiz-adv-x="540" 
d="M506 495q0 -96 -59 -148t-152 -52h-134v-295h-79v690h215q100 0 154.5 -52t54.5 -143zM425 495q0 61 -33 99.5t-93 38.5h-138v-281h136q55 0 91.5 38t36.5 105z" />
    <glyph glyph-name="Q" unicode="Q" horiz-adv-x="757" 
d="M43 345q0 156 97.5 256.5t238.5 100.5t238 -100.5t97 -256.5q0 -105 -46.5 -188t-125.5 -127l159 -74l-35 -63l-202 105q-45 -10 -85 -10q-141 0 -238.5 100.5t-97.5 256.5zM124 345q0 -125 71 -212t184 -87t184 87t71 212q0 126 -71 212.5t-184 86.5t-184 -86.5
t-71 -212.5z" />
    <glyph glyph-name="R" unicode="R" horiz-adv-x="562" 
d="M542 0h-89l-178 305h-114v-305h-79v690h203q217 0 217 -189q0 -78 -41 -124.5t-107 -63.5zM423 500q0 61 -34.5 96.5t-102.5 35.5h-125v-269h120q64 0 103 34.5t39 102.5z" />
    <glyph glyph-name="S" unicode="S" horiz-adv-x="479" 
d="M439 170q0 -84 -63 -133t-150 -49q-53 0 -104 16t-82 38q12 19 38 55q24 -19 69 -35t83 -16q55 0 92.5 31.5t37.5 87.5q0 42 -33 77.5t-80 62.5t-94.5 55.5t-80.5 71t-33 95.5q0 80 59.5 127.5t145.5 47.5q89 0 161 -47l-30 -54q-22 15 -61.5 29t-73.5 14
q-52 0 -86.5 -27t-34.5 -75q0 -43 33 -78.5t80 -62.5t94 -56t80 -73.5t33 -101.5z" />
    <glyph glyph-name="T" unicode="T" horiz-adv-x="486" 
d="M282 632v-632h-79v632h-191v58h461v-58h-191z" />
    <glyph glyph-name="U" unicode="U" horiz-adv-x="650" 
d="M570 690v-502q0 -101 -65.5 -150.5t-179.5 -49.5q-115 0 -180 49t-65 151v502h79v-514q0 -65 48 -97.5t118 -32.5t118 32.5t48 97.5v514h79z" />
    <glyph glyph-name="V" unicode="V" horiz-adv-x="586" 
d="M571 690l-226 -690h-98l-232 690h79l202 -620l197 620h78z" />
    <glyph glyph-name="W" unicode="W" horiz-adv-x="931" 
d="M912 690l-194 -690h-98l-156 587l-153 -587h-100l-192 690h79l164 -624l164 624h79l164 -624l164 624h79z" />
    <glyph glyph-name="X" unicode="X" horiz-adv-x="609" 
d="M503 0l-201 293l-202 -293h-86l246 355l-228 335h91l187 -274l185 274h85l-229 -335l244 -355h-92z" />
    <glyph glyph-name="Y" unicode="Y" horiz-adv-x="542" 
d="M530 690l-220 -395v-295h-79v295l-220 395h86l176 -322l176 322h81z" />
    <glyph glyph-name="Z" unicode="Z" horiz-adv-x="525" 
d="M500 58v-58h-466v60l370 572h-356v58h441v-60l-371 -572h382z" />
    <glyph glyph-name="bracketleft" unicode="[" horiz-adv-x="311" 
d="M296 -140h-193v896h193v-54h-124v-788h124v-54z" />
    <glyph glyph-name="backslash" unicode="\" horiz-adv-x="392" 
d="M324 0l-324 690h68l324 -690h-68z" />
    <glyph glyph-name="bracketright" unicode="]" horiz-adv-x="310" 
d="M207 -140h-193v54h124v788h-124v54h193v-896z" />
    <glyph glyph-name="asciicircum" unicode="^" horiz-adv-x="301" 
d="M281 445h-55l-76 203l-75 -203h-55l81 245h97z" />
    <glyph glyph-name="underscore" unicode="_" horiz-adv-x="450" 
d="M418 -147h-386v58h386v-58z" />
    <glyph glyph-name="grave" unicode="`" horiz-adv-x="220" 
d="M115 568l-65 122h81l50 -122h-66z" />
    <glyph glyph-name="a" unicode="a" horiz-adv-x="497" 
d="M422 0h-66l-6 52q-75 -64 -151 -64q-69 0 -112.5 38t-43.5 104q0 89 58 131t195 42q12 0 51 -3v76q0 42 -27 64.5t-72 22.5q-85 0 -157 -40l-25 51q79 48 197 48q76 0 117.5 -36t41.5 -107v-379zM347 93v151q-46 6 -66 6q-86 0 -123 -28t-37 -84q0 -40 26 -66.5t74 -26.5
q71 0 126 48z" />
    <glyph glyph-name="b" unicode="b" horiz-adv-x="568" 
d="M527 273q0 -69 -25.5 -124.5t-67.5 -90t-92.5 -52.5t-103.5 -18q-35 0 -85 6.5t-76 15.5v695l75 21v-254q70 50 155 50q97 0 158.5 -69t61.5 -180zM449 267q0 87 -44 141.5t-116 54.5q-68 0 -137 -45v-356q39 -15 93 -15q81 0 142.5 57.5t61.5 162.5z" />
    <glyph glyph-name="c" unicode="c" horiz-adv-x="445" 
d="M422 15q-56 -27 -124 -27q-109 0 -181 72t-72 190q0 119 72.5 195.5t180.5 76.5q69 0 121 -27l-27 -54q-46 22 -95 22q-76 0 -125 -60t-49 -149q0 -88 49 -147t137 -59q50 0 88 17z" />
    <glyph glyph-name="d" unicode="d" horiz-adv-x="572" 
d="M420 476v229l75 21v-726h-75v49q-78 -61 -153 -61q-92 0 -157 67t-65 197q0 119 72.5 194.5t169.5 75.5q72 0 133 -46zM420 100v319q-60 44 -126 44q-70 0 -121 -57.5t-51 -156.5q0 -94 47 -148t113 -54q65 0 138 53z" />
    <glyph glyph-name="e" unicode="e" horiz-adv-x="514" 
d="M121 249q0 -88 46.5 -145t135.5 -57q80 0 143 37l27 -47q-26 -19 -78.5 -34t-105.5 -15q-115 0 -179.5 73t-64.5 190q0 120 66 195.5t169 75.5q87 0 141 -57.5t54 -162.5v-53h-354zM276 465q-60 0 -103 -45.5t-50 -118.5h275q-2 84 -35 124t-87 40z" />
    <glyph glyph-name="f" unicode="f" horiz-adv-x="308" 
d="M341 715v-62q-32 10 -66 10q-87 0 -87 -116v-37h134v-56h-134v-454h-75v454h-100v56h100v35q0 86 41.5 132.5t123.5 46.5q29 0 63 -9z" />
    <glyph glyph-name="g" unicode="g" horiz-adv-x="509" 
d="M19 -87q0 67 78 116q-40 22 -40 65q0 31 22.5 62t48.5 45q-69 53 -69 140q0 79 55.5 130t137.5 51q40 0 73 -12h176v-56h-97q40 -48 40 -112q0 -79 -56.5 -130.5t-136.5 -51.5q-43 0 -82 17q-47 -28 -47 -63q0 -29 51 -33l181 -13q142 -11 142 -118q0 -80 -72 -126
t-182 -46q-102 0 -162.5 38.5t-60.5 96.5zM134 341q0 -55 31.5 -88.5t85.5 -33.5t85.5 33.5t31.5 88.5q0 54 -31.5 88t-85.5 34t-85.5 -34t-31.5 -88zM346 0l-199 14q-58 -39 -58 -90q0 -45 50 -67t115 -22q70 0 118 26.5t48 77.5q0 56 -74 61z" />
    <glyph glyph-name="h" unicode="h" horiz-adv-x="568" 
d="M152 726v-286q107 82 194 82q66 0 106.5 -41t40.5 -125v-356h-75v356q0 107 -88 107q-78 0 -178 -75v-388h-75v705z" />
    <glyph glyph-name="i" unicode="i" horiz-adv-x="235" 
d="M155 590h-75v100h75v-100zM155 0h-75v510h75v-510z" />
    <glyph glyph-name="j" unicode="j" horiz-adv-x="230" 
d="M154 590h-75v100h75v-100zM154 510v-472q0 -76 -18 -128.5t-40 -76.5t-63 -55l-41 50q46 40 66.5 82.5t20.5 128.5v471h75z" />
    <glyph glyph-name="k" unicode="k" horiz-adv-x="491" 
d="M152 726v-726h-75v705zM414 0l-239 281l220 229h87l-218 -228l243 -282h-93z" />
    <glyph glyph-name="l" unicode="l" horiz-adv-x="235" 
d="M155 0h-75v705l75 21v-726z" />
    <glyph glyph-name="m" unicode="m" horiz-adv-x="899" 
d="M824 0h-75v356q0 107 -88 107q-71 0 -175 -76q2 -20 2 -31v-356h-75v356q0 107 -88 107q-73 0 -173 -75v-388h-75v510h73v-71q101 83 190 83q106 0 136 -89q54 43 101 66t100 23q67 0 107 -41t40 -125v-356z" />
    <glyph glyph-name="n" unicode="n" horiz-adv-x="568" 
d="M493 0h-75v356q0 107 -88 107q-78 0 -178 -75v-388h-75v510h73v-71q109 83 196 83q66 0 106.5 -41t40.5 -125v-356z" />
    <glyph glyph-name="o" unicode="o" horiz-adv-x="584" 
d="M539 257q0 -114 -69 -191.5t-178 -77.5t-178 77.5t-69 191.5t68.5 189.5t178.5 75.5t178.5 -75.5t68.5 -189.5zM462 254q0 84 -46 146.5t-124 62.5t-124 -62.5t-46 -146.5q0 -81 43.5 -144t126.5 -63t126.5 63t43.5 144z" />
    <glyph glyph-name="p" unicode="p" horiz-adv-x="569" 
d="M527 273q0 -127 -79.5 -206t-192.5 -79q-37 0 -103 12v-210h-75v720h75v-45q71 57 151 57q97 0 160.5 -67.5t63.5 -181.5zM449 269q0 87 -48 140.5t-115 53.5q-65 0 -134 -45v-355q61 -17 104 -17q84 0 138.5 65.5t54.5 157.5z" />
    <glyph glyph-name="q" unicode="q" horiz-adv-x="571" 
d="M495 -210h-75v260q-89 -62 -164 -62q-86 0 -148.5 69.5t-62.5 186.5q0 129 78 203.5t205 74.5q94 0 167 -27v-705zM420 99v347q-47 17 -104 17q-80 0 -137 -56t-57 -157q0 -94 48.5 -146t115.5 -52q64 0 134 47z" />
    <glyph glyph-name="r" unicode="r" horiz-adv-x="330" 
d="M320 522v-81q-6 1 -19 1q-73 0 -149 -76v-366h-75v510h72v-94q28 42 76 74t95 32z" />
    <glyph glyph-name="s" unicode="s" horiz-adv-x="432" 
d="M391 135q0 -66 -53.5 -106.5t-135.5 -40.5q-92 0 -165 42l30 59q60 -44 138 -44q46 0 77.5 19.5t31.5 57.5q0 34 -28 58t-67.5 40.5t-79 34.5t-67.5 50t-28 78q0 64 49 101.5t127 37.5q82 0 156 -39l-28 -55q-62 37 -131 37q-44 0 -71 -19.5t-27 -53.5q0 -33 28 -56.5
t68 -39.5t80 -34t68 -50t28 -77z" />
    <glyph glyph-name="t" unicode="t" horiz-adv-x="364" 
d="M341 6q-38 -16 -96 -16q-60 0 -96.5 30.5t-36.5 115.5v318h-96v56h96v100l75 50v-150h140v-56h-140v-318q0 -89 73 -89q46 0 78 15z" />
    <glyph glyph-name="u" unicode="u" horiz-adv-x="562" 
d="M75 510h75v-364q0 -48 26 -72t69 -24q79 0 165 72v388h75v-510h-73v70q-99 -82 -187 -82q-64 0 -107 37.5t-43 121.5v363z" />
    <glyph glyph-name="v" unicode="v" horiz-adv-x="509" 
d="M297 0h-85l-193 510h80l156 -436h2l157 436h76z" />
    <glyph glyph-name="w" unicode="w" horiz-adv-x="801" 
d="M535 0l-137 435l-132 -435h-85l-161 510h80l125 -436h1l135 436h82l135 -434l129 434h74l-161 -510h-85z" />
    <glyph glyph-name="x" unicode="x" horiz-adv-x="500" 
d="M401 0l-153 215l-151 -215h-86l196 266l-178 244h89l137 -197l138 197h80l-177 -245l193 -265h-88z" />
    <glyph glyph-name="y" unicode="y" horiz-adv-x="515" 
d="M20 510h81l153 -454l162 454h81l-269 -720h-77l82 210h-30z" />
    <glyph glyph-name="z" unicode="z" horiz-adv-x="440" 
d="M419 57v-57h-388v60l300 393h-286v57h366v-60l-300 -393h308z" />
    <glyph glyph-name="braceleft" unicode="{" horiz-adv-x="312" 
d="M93 307q57 -26 84.5 -66t27.5 -123v-82q0 -59 22.5 -88t73.5 -37v-51q-89 8 -128.5 50.5t-39.5 141.5v74q0 64 -24.5 97t-74.5 49v71q50 16 74.5 49.5t24.5 97.5v72q0 99 39.5 141.5t128.5 50.5v-51q-51 -8 -73.5 -37t-22.5 -88v-82q0 -83 -27.5 -123t-84.5 -66z" />
    <glyph glyph-name="bar" unicode="|" horiz-adv-x="220" 
d="M139 -15h-58v769h58v-769z" />
    <glyph glyph-name="braceright" unicode="}" horiz-adv-x="313" 
d="M218 307q-57 26 -84 66t-27 123v82q0 59 -22.5 88t-73.5 37v51q89 -8 128 -50.5t39 -141.5v-72q0 -64 25 -97.5t75 -49.5v-71q-50 -16 -75 -49t-25 -97v-74q0 -99 -39 -141.5t-128 -50.5v51q51 8 73.5 37t22.5 88v82q0 83 27 123t84 66z" />
    <glyph glyph-name="asciitilde" unicode="~" horiz-adv-x="562" 
d="M379 237q-34 0 -101 28.5t-98 28.5q-21 0 -41 -17t-31 -36l-43 26q48 83 126 83q37 0 105 -28.5t94 -28.5q21 0 41.5 16.5t29.5 35.5l44 -26q-48 -82 -126 -82z" />
    <glyph glyph-name="uni00A0" unicode="&#xa0;" horiz-adv-x="210" 
 />
    <glyph glyph-name="exclamdown" unicode="&#xa1;" horiz-adv-x="232" 
d="M74 510h85v-85h-85v85zM72 -180q0 76 4 158.5t11 188.5t10 157h37q1 -19 13 -211t12 -293h-87z" />
    <glyph glyph-name="cent" unicode="&#xa2;" horiz-adv-x="560" 
d="M319 -12v93q-103 13 -169 83.5t-66 179.5q0 103 68 176.5t167 88.5v93h62v-91q59 -6 97 -26l-27 -54q-32 15 -70 20v-413q42 2 75 17l25 -50q-48 -23 -100 -27v-90h-62zM162 344q0 -73 42.5 -128.5t114.5 -71.5v404q-68 -14 -112.5 -71t-44.5 -133z" />
    <glyph glyph-name="sterling" unicode="&#xa3;" horiz-adv-x="515" 
d="M437 326h-192v-57q0 -68 -23.5 -126t-67.5 -85h341l-20 -58h-414v58q110 54 110 215v53h-120v58h120v108q0 95 50.5 152.5t140.5 57.5q77 0 121 -28l-30 -51q-42 20 -84 20q-61 0 -92.5 -38.5t-31.5 -104.5v-116h192v-58z" />
    <glyph glyph-name="currency" unicode="&#xa4;" horiz-adv-x="578" 
d="M37 144l57 58q-53 62 -53 149q0 92 53 151l-57 55l45 46l56 -56q63 52 151 52t154 -52l54 55q4 -4 22.5 -23t21.5 -22l-55 -55q51 -59 51 -151q0 -89 -51 -149l55 -59q-3 -4 -12 -13t-20 -19.5t-12 -11.5l-55 58q-62 -54 -153 -54t-151 54l-57 -58zM110 351
q0 -77 52.5 -131t126.5 -54q76 0 127.5 55t51.5 130t-52 130t-127 55q-74 0 -126.5 -54.5t-52.5 -130.5z" />
    <glyph glyph-name="yen" unicode="&#xa5;" horiz-adv-x="566" 
d="M491 135h-169v-135h-78v135h-169v58h169v97h-169v58h141l-178 342h86l161 -322l161 322h81l-178 -342h142v-58h-169v-97h169v-58z" />
    <glyph glyph-name="brokenbar" unicode="&#xa6;" horiz-adv-x="220" 
d="M139 373h-58v381h58v-381zM139 -200h-58v381h58v-381z" />
    <glyph glyph-name="section" unicode="&#xa7;" horiz-adv-x="558" 
d="M497 300q0 -49 -34.5 -81.5t-87.5 -48.5q86 -46 86 -110q0 -69 -57.5 -108.5t-133.5 -39.5q-50 0 -99 15t-78 33l31 58q27 -18 68.5 -33t78.5 -15q109 0 109 72q0 31 -20.5 52t-62.5 41q-16 7 -52.5 23.5t-54.5 25t-46 25t-41.5 31.5t-24.5 36.5t-11 45.5q0 44 33.5 75.5
t88.5 47.5q-85 48 -85 123q0 61 51.5 97.5t130.5 36.5q89 0 163 -44l-29 -53q-25 14 -66 27t-70 13q-48 0 -77.5 -19.5t-29.5 -51.5q0 -31 33 -58t80 -47.5t94 -42.5t80 -54t33 -72zM422 289q0 16 -9.5 30.5t-33 29t-38 22.5t-52 24t-47.5 21q-44 -7 -73 -29.5t-29 -52.5
q0 -16 8.5 -31t21 -25.5t33.5 -23t37.5 -20t43 -19t40.5 -18.5q98 22 98 92z" />
    <glyph glyph-name="dieresis" unicode="&#xa8;" horiz-adv-x="312" 
d="M111 581h-75v101h75v-101zM276 581h-75v101h75v-101z" />
    <glyph glyph-name="copyright" unicode="&#xa9;" horiz-adv-x="782" 
d="M736 344q0 -148 -99.5 -252t-245.5 -104t-245.5 104t-99.5 252t99.5 252t245.5 104t245.5 -104t99.5 -252zM671 344q0 123 -80.5 212.5t-199.5 89.5t-200 -89.5t-81 -212.5t81 -213t200 -90t199.5 90t80.5 213zM542 488l-42 -30q-39 53 -108 53q-62 0 -95.5 -47
t-33.5 -119q0 -73 38 -119.5t94 -46.5q68 0 106 48l40 -31q-59 -68 -146 -68q-86 0 -143.5 61.5t-57.5 157.5q0 94 57 154.5t143 60.5q47 0 87 -22t61 -52z" />
    <glyph glyph-name="ordfeminine" unicode="&#xaa;" horiz-adv-x="346" 
d="M310 346h-60l-4 28q-50 -36 -104 -36q-53 0 -87 25.5t-34 69.5q0 59 44 87t148 28h6q4 0 13 -1t12 -1v45q0 26 -18.5 39.5t-48.5 13.5q-58 0 -118 -28l-22 40q62 33 152 33q121 0 121 -96v-247zM244 408v96q-24 3 -42 3q-60 0 -85.5 -17t-25.5 -52q0 -25 17.5 -41
t49.5 -16q47 0 86 27zM27 242v52h287v-52h-287z" />
    <glyph glyph-name="guillemotleft" unicode="&#xab;" horiz-adv-x="496" 
d="M373 80l-137 185l137 186h82l-133 -186l133 -185h-82zM183 80l-137 185l137 186h82l-133 -186l133 -185h-82z" />
    <glyph glyph-name="logicalnot" unicode="&#xac;" horiz-adv-x="570" 
d="M77 313h416v-237h-59v179h-357v58z" />
    <glyph glyph-name="uni00AD" unicode="&#xad;" 
 />
    <glyph glyph-name="registered" unicode="&#xae;" horiz-adv-x="782" 
d="M736 344q0 -148 -99.5 -252t-245.5 -104t-245.5 104t-99.5 252t99.5 252t245.5 104t245.5 -104t99.5 -252zM671 344q0 123 -80.5 212.5t-199.5 89.5t-200 -89.5t-81 -212.5t81 -213t200 -90t199.5 90t80.5 213zM548 143h-65l-101 166h-58v-166h-58v412h135
q68 0 103.5 -32t35.5 -91q0 -97 -101 -115zM483 433q0 36 -22 57.5t-59 21.5h-78v-161h75q35 0 59.5 22t24.5 60z" />
    <glyph glyph-name="macron" unicode="&#xaf;" horiz-adv-x="290" 
d="M270 619h-250v56h250v-56z" />
    <glyph glyph-name="degree" unicode="&#xb0;" horiz-adv-x="398" 
d="M38 540q0 67 47 114t114 47t114 -47t47 -114t-47 -114t-114 -47t-114 47t-47 114zM96 540q0 -43 30 -74.5t72 -31.5t72 31.5t30 74.5q0 42 -30 73.5t-72 31.5t-72 -31.5t-30 -73.5z" />
    <glyph glyph-name="plusminus" unicode="&#xb1;" horiz-adv-x="570" 
d="M313 502v-189h180v-58h-180v-189h-58v189h-178v58h178v189h58zM493 0h-416v58h416v-58z" />
    <glyph glyph-name="twosuperior" unicode="&#xb2;" horiz-adv-x="381" 
d="M325 273h-275v44l139 154q33 36 47.5 60t14.5 51q0 29 -19 47t-50 18q-27 0 -52 -20t-38 -49l-56 21q47 98 156 98q57 0 93 -33t36 -81q0 -55 -75 -137l-112 -123h191v-50z" />
    <glyph glyph-name="threesuperior" unicode="&#xb3;" horiz-adv-x="381" 
d="M347 416q0 -71 -52 -110.5t-126 -39.5q-80 0 -142 42l37 42q61 -36 106 -36q44 0 75 25t31 71q0 37 -25 56t-62 19q-21 0 -53 -17l-28 32l132 140h-193v50h267v-43l-106 -112q59 0 99 -31.5t40 -87.5z" />
    <glyph glyph-name="acute" unicode="&#xb4;" horiz-adv-x="220" 
d="M181 690l-65 -122h-66l50 122h81z" />
    <glyph glyph-name="mu" unicode="&#xb5;" horiz-adv-x="563" 
d="M75 -210v720h75v-374q0 -44 20 -65t66 -21q58 0 177 67v393h75v-510h-73v68q-131 -80 -207 -80q-35 0 -58 13v-211h-75z" />
    <glyph glyph-name="paragraph" unicode="&#xb6;" horiz-adv-x="463" 
d="M410 674l-23 -17q-21 -16 -21 -37v-830h-51v857h-95v-857h-50v603q-79 0 -119 43t-40 106q0 62 37.5 105t109.5 43h252v-16z" />
    <glyph glyph-name="periodcentered" unicode="&#xb7;" horiz-adv-x="193" 
d="M153 356q0 -23 -17 -39.5t-40 -16.5t-39.5 16.5t-16.5 39.5t16.5 40t39.5 17t40 -17t17 -40z" />
    <glyph glyph-name="cedilla" unicode="&#xb8;" horiz-adv-x="244" 
d="M106 0h53l-36 -57q42 -1 71.5 -19.5t29.5 -56.5q0 -44 -33.5 -66.5t-78.5 -22.5q-53 0 -85 19l21 39q30 -17 62 -17q25 0 40.5 11.5t15.5 33.5q0 43 -88 43h-33q3 5 29.5 44.5t31.5 48.5z" />
    <glyph glyph-name="onesuperior" unicode="&#xb9;" horiz-adv-x="375" 
d="M304 273h-232v49h93v298l-87 -56l-33 36l126 90h60v-368h73v-49z" />
    <glyph glyph-name="ordmasculine" unicode="&#xba;" horiz-adv-x="375" 
d="M351 516q0 -73 -45.5 -122.5t-117.5 -49.5t-118.5 49.5t-46.5 122.5q0 76 45.5 125t119.5 49q73 0 118 -49t45 -125zM287 516q0 51 -26.5 89t-72.5 38t-73.5 -38t-27.5 -89q0 -50 26 -88t75 -38q48 0 73.5 38t25.5 88zM31 242v52h313v-52h-313z" />
    <glyph glyph-name="guillemotright" unicode="&#xbb;" horiz-adv-x="495" 
d="M259 265l-137 -185h-82l133 185l-133 186h82zM449 265l-137 -185h-82l133 185l-133 186h82z" />
    <glyph glyph-name="onequarter" unicode="&#xbc;" horiz-adv-x="956" 
d="M707 690l-413 -690h-66l412 690h67zM304 273h-232v49h93v298l-87 -56l-33 36l126 90h60v-368h73v-49zM908 99h-50v-99h-67v99h-203v62l194 256h76v-267h50v-51zM791 150v192l-146 -192h146z" />
    <glyph glyph-name="onehalf" unicode="&#xbd;" horiz-adv-x="958" 
d="M707 690l-413 -690h-66l412 690h67zM304 273h-232v49h93v298l-87 -56l-33 36l126 90h60v-368h73v-49zM879 0h-275v44l139 154q33 36 47.5 60t14.5 51q0 29 -19 47t-50 18q-27 0 -52 -20t-38 -49l-56 21q47 98 156 98q57 0 93 -33t36 -81q0 -55 -75 -137l-112 -123h191
v-50z" />
    <glyph glyph-name="threequarters" unicode="&#xbe;" horiz-adv-x="956" 
d="M707 690l-413 -690h-66l412 690h67zM347 416q0 -71 -52 -110.5t-126 -39.5q-80 0 -142 42l37 42q61 -36 106 -36q44 0 75 25t31 71q0 37 -25 56t-62 19q-21 0 -53 -17l-28 32l132 140h-193v50h267v-43l-106 -112q59 0 99 -31.5t40 -87.5zM908 99h-50v-99h-67v99h-203v62
l194 256h76v-267h50v-51zM791 150v192l-146 -192h146z" />
    <glyph glyph-name="questiondown" unicode="&#xbf;" horiz-adv-x="444" 
d="M272 510v-85h-85v85h85zM385 -63q3 -4 35 -47q-94 -82 -199 -82q-77 0 -130.5 43.5t-53.5 119.5q0 37 17 72t40.5 62.5t47.5 54t41 58.5t17 65v41h64v-36q0 -43 -15.5 -81t-37.5 -65t-44 -52.5t-37.5 -54.5t-15.5 -60q0 -48 30.5 -77t89.5 -29q75 0 151 68z" />
    <glyph glyph-name="Agrave" unicode="&#xc0;" horiz-adv-x="589" 
d="M258 748l-65 122h81l50 -122h-66zM495 0q-9 27 -30.5 95.5t-33.5 106.5h-273q-12 -38 -33.5 -106.5t-30.5 -95.5h-77l224 690h108l224 -690h-78zM295 635l-119 -376h237q-20 63 -59.5 188t-58.5 188z" />
    <glyph glyph-name="Aacute" unicode="&#xc1;" horiz-adv-x="589" 
d="M392 870l-65 -122h-66l50 122h81zM495 0q-9 27 -30.5 95.5t-33.5 106.5h-273q-12 -38 -33.5 -106.5t-30.5 -95.5h-77l224 690h108l224 -690h-78zM295 635l-119 -376h237q-20 63 -59.5 188t-58.5 188z" />
    <glyph glyph-name="Acircumflex" unicode="&#xc2;" horiz-adv-x="589" 
d="M425 748h-55l-76 75l-75 -75h-55l82 122h95zM495 0q-9 27 -30.5 95.5t-33.5 106.5h-273q-12 -38 -33.5 -106.5t-30.5 -95.5h-77l224 690h108l224 -690h-78zM295 635l-119 -376h237q-20 63 -59.5 188t-58.5 188z" />
    <glyph glyph-name="Atilde" unicode="&#xc3;" horiz-adv-x="589" 
d="M360 834q26 0 41 38l41 -12q-7 -24 -31 -53t-60 -29q-25 0 -65 19t-51 19q-27 0 -42 -38l-40 12q6 23 30.5 51t60.5 28q23 0 61.5 -17.5t54.5 -17.5zM495 0l-64 202h-273l-64 -202h-77l224 690h108l224 -690h-78zM295 635l-119 -376h237z" />
    <glyph glyph-name="Adieresis" unicode="&#xc4;" horiz-adv-x="589" 
d="M253 761h-75v101h75v-101zM418 761h-75v101h75v-101zM495 0l-64 202h-273l-64 -202h-77l224 690h108l224 -690h-78zM295 635l-119 -376h237z" />
    <glyph glyph-name="Aring" unicode="&#xc5;" horiz-adv-x="587" 
d="M572 0h-79l-65 202h-269l-64 -202h-79l208 626q-40 32 -40 83q0 41 33 74.5t76 33.5q44 0 76 -32t32 -76q0 -48 -38 -81zM350 709q0 24 -17 41.5t-41 17.5t-40.5 -17.5t-16.5 -41.5t16.5 -41.5t40.5 -17.5t41 17.5t17 41.5zM410 259l-109 343h-15l-109 -343h233z" />
    <glyph glyph-name="AE" unicode="&#xc6;" horiz-adv-x="858" 
d="M840 58v-58h-404v202h-246l-93 -202h-86l329 690h472v-58h-297v-248h261v-58h-261v-268h325zM436 259v375h-48l-172 -375h220z" />
    <glyph glyph-name="Ccedilla" unicode="&#xc7;" horiz-adv-x="571" 
d="M522 70l19 -57q-58 -22 -143 -25l-28 -45q42 -1 71.5 -19.5t29.5 -56.5q0 -44 -33.5 -66.5t-78.5 -22.5q-53 0 -85 19l21 39q30 -17 62 -17q25 0 40.5 11.5t15.5 33.5q0 43 -88 43h-33q3 6 26.5 40.5t27.5 42.5q-134 13 -218.5 112.5t-84.5 245.5q0 161 100.5 257.5
t243.5 96.5q90 0 158 -29l-24 -59q-61 29 -137 29q-119 0 -190.5 -85.5t-71.5 -210.5q0 -131 76 -215.5t192 -84.5q77 0 132 23z" />
    <glyph glyph-name="Egrave" unicode="&#xc8;" horiz-adv-x="505" 
d="M250 748l-65 122h81l50 -122h-66zM486 58v-58h-404v690h376v-58h-297v-248h261v-58h-261v-268h325z" />
    <glyph glyph-name="Eacute" unicode="&#xc9;" horiz-adv-x="505" 
d="M371 870l-65 -122h-66l50 122h81zM486 58v-58h-404v690h376v-58h-297v-248h261v-58h-261v-268h325z" />
    <glyph glyph-name="Ecircumflex" unicode="&#xca;" horiz-adv-x="505" 
d="M381 748h-55l-76 75l-75 -75h-55l82 122h95zM486 58v-58h-404v690h376v-58h-297v-248h261v-58h-261v-268h325z" />
    <glyph glyph-name="Edieresis" unicode="&#xcb;" horiz-adv-x="505" 
d="M206 761h-75v101h75v-101zM371 761h-75v101h75v-101zM486 58v-58h-404v690h376v-58h-297v-248h261v-58h-261v-268h325z" />
    <glyph glyph-name="Igrave" unicode="&#xcc;" horiz-adv-x="237" 
d="M101 748l-65 122h81l50 -122h-66zM158 0h-79v690h79v-690z" />
    <glyph glyph-name="Iacute" unicode="&#xcd;" horiz-adv-x="235" 
d="M198 870l-65 -122h-66l50 122h81zM153 0h-79v690h79v-690z" />
    <glyph glyph-name="Icircumflex" unicode="&#xce;" horiz-adv-x="253" 
d="M257 748h-55l-76 75l-75 -75h-54l82 122h94zM166 0h-79v690h79v-690z" />
    <glyph glyph-name="Idieresis" unicode="&#xcf;" horiz-adv-x="227" 
d="M69 761h-75v101h75v-101zM234 761h-75v101h75v-101zM152 0h-79v690h79v-690z" />
    <glyph glyph-name="Eth" unicode="&#xd0;" horiz-adv-x="693" 
d="M652 354q0 -172 -98.5 -263t-273.5 -91h-202v327h-58v57h58v306h212q168 0 265 -88.5t97 -247.5zM278 327h-121v-269h126q134 0 211 75t77 217q0 130 -78.5 206t-202.5 76h-133v-248h121v-57z" />
    <glyph glyph-name="Ntilde" unicode="&#xd1;" horiz-adv-x="717" 
d="M419 834q26 0 41 38l41 -12q-7 -24 -31 -53t-60 -29q-25 0 -65 19t-51 19q-27 0 -42 -38l-40 12q6 23 30.5 51t60.5 28q23 0 61.5 -17.5t54.5 -17.5zM635 0h-100l-377 615v-615h-76v690h114l362 -594h1v594h76v-690z" />
    <glyph glyph-name="Ograve" unicode="&#xd2;" horiz-adv-x="757" 
d="M345 748l-65 122h81l50 -122h-66zM43 345q0 156 97.5 256.5t238.5 100.5t238 -100.5t97 -256.5t-97 -256.5t-238 -100.5t-238.5 100.5t-97.5 256.5zM124 345q0 -125 71 -212t184 -87t184 87t71 212q0 126 -71 212.5t-184 86.5t-184 -86.5t-71 -212.5z" />
    <glyph glyph-name="Oacute" unicode="&#xd3;" horiz-adv-x="757" 
d="M469 870l-65 -122h-66l50 122h81zM43 345q0 156 97.5 256.5t238.5 100.5t238 -100.5t97 -256.5t-97 -256.5t-238 -100.5t-238.5 100.5t-97.5 256.5zM124 345q0 -125 71 -212t184 -87t184 87t71 212q0 126 -71 212.5t-184 86.5t-184 -86.5t-71 -212.5z" />
    <glyph glyph-name="Ocircumflex" unicode="&#xd4;" horiz-adv-x="757" 
d="M509 748h-55l-76 75l-75 -75h-55l83 122h94zM379 702q141 0 238 -100.5t97 -256.5t-97 -256.5t-238 -100.5t-238.5 100.5t-97.5 256.5t97.5 256.5t238.5 100.5zM379 46q113 0 184 87t71 212q0 126 -71 212.5t-184 86.5t-184 -86.5t-71 -212.5q0 -125 71 -212t184 -87z
" />
    <glyph glyph-name="Otilde" unicode="&#xd5;" horiz-adv-x="757" 
d="M442 834q26 0 41 38l41 -12q-7 -24 -31 -53t-60 -29q-25 0 -65 19t-51 19q-27 0 -42 -38l-40 12q6 23 30.5 51t60.5 28q23 0 61.5 -17.5t54.5 -17.5zM43 345q0 156 97.5 256.5t238.5 100.5t238 -100.5t97 -256.5t-97 -256.5t-238 -100.5t-238.5 100.5t-97.5 256.5z
M124 345q0 -125 71 -212t184 -87t184 87t71 212q0 126 -71 212.5t-184 86.5t-184 -86.5t-71 -212.5z" />
    <glyph glyph-name="Odieresis" unicode="&#xd6;" horiz-adv-x="757" 
d="M347 830q0 -21 -14.5 -35.5t-35.5 -14.5q-20 0 -35 14.5t-15 35.5q0 20 15 35t35 15q21 0 35.5 -15t14.5 -35zM510 830q0 -21 -15 -35.5t-35 -14.5q-21 0 -35.5 14.5t-14.5 35.5q0 20 14.5 35t35.5 15q20 0 35 -15t15 -35zM43 345q0 156 97.5 256.5t238.5 100.5
t238 -100.5t97 -256.5t-97 -256.5t-238 -100.5t-238.5 100.5t-97.5 256.5zM124 345q0 -125 71 -212t184 -87t184 87t71 212q0 126 -71 212.5t-184 86.5t-184 -86.5t-71 -212.5z" />
    <glyph glyph-name="multiply" unicode="&#xd7;" horiz-adv-x="572" 
d="M159 451l126 -126l127 127l41 -41l-127 -127l127 -127l-41 -41l-127 127l-126 -127l-41 41l126 127l-126 126z" />
    <glyph glyph-name="Oslash" unicode="&#xd8;" horiz-adv-x="757" 
d="M43 345q0 156 97.5 256t238.5 100t238 -100t97 -256t-97 -255.5t-238 -99.5q-142 0 -239 99.5t-97 255.5zM124 345q0 -122 66 -205l340 449q-67 54 -151 54q-113 0 -184 -86t-71 -212zM634 345q0 119 -66 204l-341 -448q64 -53 152 -53q113 0 184 86t71 211z" />
    <glyph glyph-name="Ugrave" unicode="&#xd9;" horiz-adv-x="650" 
d="M313 748l-65 122h81l50 -122h-66zM570 690v-502q0 -101 -65.5 -150.5t-179.5 -49.5q-115 0 -180 49t-65 151v502h79v-514q0 -65 48 -97.5t118 -32.5t118 32.5t48 97.5v514h79z" />
    <glyph glyph-name="Uacute" unicode="&#xda;" horiz-adv-x="650" 
d="M399 870l-65 -122h-66l50 122h81zM570 690v-502q0 -101 -65.5 -150.5t-179.5 -49.5q-115 0 -180 49t-65 151v502h79v-514q0 -65 48 -97.5t118 -32.5t118 32.5t48 97.5v514h79z" />
    <glyph glyph-name="Ucircumflex" unicode="&#xdb;" horiz-adv-x="650" 
d="M455 748h-55l-76 75l-75 -75h-55l83 122h94zM570 690v-502q0 -101 -65.5 -150.5t-179.5 -49.5q-115 0 -180 49t-65 151v502h79v-514q0 -65 48 -97.5t118 -32.5t118 32.5t48 97.5v514h79z" />
    <glyph glyph-name="Udieresis" unicode="&#xdc;" horiz-adv-x="650" 
d="M293 830q0 -21 -14.5 -35.5t-35.5 -14.5q-20 0 -35 14.5t-15 35.5q0 20 15 35t35 15q21 0 35.5 -15t14.5 -35zM456 830q0 -21 -15 -35.5t-35 -14.5q-21 0 -35.5 14.5t-14.5 35.5q0 20 14.5 35t35.5 15q20 0 35 -15t15 -35zM570 690v-502q0 -101 -65.5 -150.5
t-179.5 -49.5q-115 0 -180 49t-65 151v502h79v-514q0 -65 48 -97.5t118 -32.5t118 32.5t48 97.5v514h79z" />
    <glyph glyph-name="Yacute" unicode="&#xdd;" horiz-adv-x="542" 
d="M347 870l-65 -122h-66l50 122h81zM530 690l-220 -395v-295h-79v295l-220 395h86l176 -322l176 322h81z" />
    <glyph glyph-name="Thorn" unicode="&#xde;" horiz-adv-x="540" 
d="M506 376q0 -96 -59 -148.5t-152 -52.5h-134v-175h-79v690h79v-120h136q100 0 154.5 -51.5t54.5 -142.5zM425 376q0 61 -33 99t-93 38h-138v-281h136q55 0 91.5 38.5t36.5 105.5z" />
    <glyph glyph-name="germandbls" unicode="&#xdf;" horiz-adv-x="542" 
d="M498 190q0 -190 -248 -190h-38v57h40q78 0 123.5 33.5t45.5 102.5q0 136 -184 136h-26v56h20q81 0 128 32.5t47 96.5q0 62 -37.5 95.5t-94.5 33.5q-63 0 -93 -36t-30 -98v-509h-74v499q0 96 52.5 149.5t147.5 53.5q99 0 151 -48t52 -132q0 -68 -38 -107.5t-101 -53.5v-2
q69 -8 113 -53.5t44 -115.5z" />
    <glyph glyph-name="agrave" unicode="&#xe0;" horiz-adv-x="497" 
d="M232 568l-65 122h81l50 -122h-66zM422 0h-66l-6 52q-75 -64 -151 -64q-69 0 -112.5 38t-43.5 104q0 89 58 131t195 42q12 0 51 -3v76q0 42 -27 64.5t-72 22.5q-85 0 -157 -40l-25 51q79 48 197 48q76 0 117.5 -36t41.5 -107v-379zM347 93v151q-46 6 -66 6q-86 0 -123 -28
t-37 -84q0 -40 26 -66.5t74 -26.5q71 0 126 48z" />
    <glyph glyph-name="aacute" unicode="&#xe1;" horiz-adv-x="497" 
d="M318 690l-65 -122h-66l50 122h81zM422 0h-66l-6 52q-75 -64 -151 -64q-69 0 -112.5 38t-43.5 104q0 89 58 131t195 42q12 0 51 -3v76q0 42 -27 64.5t-72 22.5q-85 0 -157 -40l-25 51q79 48 197 48q76 0 117.5 -36t41.5 -107v-379zM347 93v151q-46 6 -66 6q-86 0 -123 -28
t-37 -84q0 -40 26 -66.5t74 -26.5q71 0 126 48z" />
    <glyph glyph-name="acircumflex" unicode="&#xe2;" horiz-adv-x="497" 
d="M378 568h-55l-76 75l-75 -75h-55l82 122h95zM422 0h-66l-6 52q-75 -64 -151 -64q-69 0 -112.5 38t-43.5 104q0 89 58 131t195 42q12 0 51 -3v76q0 42 -27 64.5t-72 22.5q-85 0 -157 -40l-25 51q79 48 197 48q76 0 117.5 -36t41.5 -107v-379zM347 93v151q-46 6 -66 6
q-86 0 -123 -28t-37 -84q0 -40 26 -66.5t74 -26.5q71 0 126 48z" />
    <glyph glyph-name="atilde" unicode="&#xe3;" horiz-adv-x="497" 
d="M310 654q26 0 41 38l41 -12q-7 -24 -31 -53t-60 -29q-25 0 -65 19t-51 19q-27 0 -42 -38l-40 12q6 23 30.5 51t60.5 28q23 0 61.5 -17.5t54.5 -17.5zM422 0h-66l-6 52q-75 -64 -151 -64q-69 0 -112.5 38t-43.5 104q0 89 58 131t195 42q12 0 51 -3v76q0 42 -27 64.5
t-72 22.5q-85 0 -157 -40l-25 51q79 48 197 48q76 0 117.5 -36t41.5 -107v-379zM347 93v151q-46 6 -66 6q-86 0 -123 -28t-37 -84q0 -40 26 -66.5t74 -26.5q71 0 126 48z" />
    <glyph glyph-name="adieresis" unicode="&#xe4;" horiz-adv-x="497" 
d="M202 581h-75v101h75v-101zM367 581h-75v101h75v-101zM422 0h-66l-6 52q-75 -64 -151 -64q-69 0 -112.5 38t-43.5 104q0 89 58 131t195 42q12 0 51 -3v76q0 42 -27 64.5t-72 22.5q-85 0 -157 -40l-25 51q79 48 197 48q76 0 117.5 -36t41.5 -107v-379zM347 93v151
q-46 6 -66 6q-86 0 -123 -28t-37 -84q0 -40 26 -66.5t74 -26.5q71 0 126 48z" />
    <glyph glyph-name="aring" unicode="&#xe5;" horiz-adv-x="497" 
d="M352 667q0 -42 -31 -72t-73 -30t-73 30t-31 72t31 72t73 30t73 -30t31 -72zM308 667q0 25 -17.5 43.5t-42.5 18.5t-42.5 -18.5t-17.5 -43.5t17.5 -43.5t42.5 -18.5t42.5 18.5t17.5 43.5zM422 0h-66l-6 52q-75 -64 -151 -64q-69 0 -112.5 38t-43.5 104q0 89 58 131t195 42
q12 0 51 -3v76q0 42 -27 64.5t-72 22.5q-85 0 -157 -40l-25 51q79 48 197 48q76 0 117.5 -36t41.5 -107v-379zM347 93v151q-46 6 -66 6q-86 0 -123 -28t-37 -84q0 -40 26 -66.5t74 -26.5q71 0 126 48z" />
    <glyph glyph-name="ae" unicode="&#xe6;" horiz-adv-x="807" 
d="M414 249q1 -89 51.5 -145.5t142.5 -56.5q70 0 131 36l27 -48q-27 -19 -74.5 -33t-100.5 -14q-129 0 -194 92q-99 -92 -198 -92q-69 0 -112.5 38t-43.5 104q0 89 58 131t195 42q12 0 51 -3v76q0 42 -27 64.5t-72 22.5q-85 0 -157 -40l-25 51q79 48 197 48q114 0 142 -81
q62 81 165 81q90 0 144 -56t54 -164v-53h-354zM568 465q-60 0 -102.5 -46.5t-49.5 -117.5h275q-2 83 -35 123.5t-88 40.5zM221 45q36 0 77.5 23t72.5 59q-22 52 -23 113l-1 4q-46 6 -66 6q-86 0 -123 -28t-37 -84q0 -40 26 -66.5t74 -26.5z" />
    <glyph glyph-name="ccedilla" unicode="&#xe7;" horiz-adv-x="444" 
d="M421 15q-19 -11 -54.5 -19t-65.5 -8l-29 -45q42 0 71.5 -19t29.5 -57q0 -44 -33.5 -66.5t-78.5 -22.5q-53 0 -85 19l21 40q30 -17 62 -17q25 0 40.5 11.5t15.5 32.5q0 44 -87 44h-33q7 10 55 85q-94 15 -149.5 84.5t-55.5 176.5q0 116 73.5 192t182.5 76q59 0 118 -27
l-28 -54q-44 22 -91 22q-80 0 -129 -59.5t-49 -149.5q0 -89 49 -147.5t143 -58.5q44 0 82 17z" />
    <glyph glyph-name="egrave" unicode="&#xe8;" horiz-adv-x="514" 
d="M247 568l-65 122h81l50 -122h-66zM121 249q0 -88 46.5 -145t135.5 -57q80 0 143 37l27 -47q-26 -19 -78.5 -34t-105.5 -15q-115 0 -179.5 73t-64.5 190q0 120 66 195.5t169 75.5q87 0 141 -57.5t54 -162.5v-53h-354zM276 465q-60 0 -103 -45.5t-50 -118.5h275
q-2 84 -35 124t-87 40z" />
    <glyph glyph-name="eacute" unicode="&#xe9;" horiz-adv-x="514" 
d="M364 690l-65 -122h-66l50 122h81zM121 249q0 -88 46.5 -145t135.5 -57q80 0 143 37l27 -47q-26 -19 -78.5 -34t-105.5 -15q-115 0 -179.5 73t-64.5 190q0 120 66 195.5t169 75.5q87 0 141 -57.5t54 -162.5v-53h-354zM276 465q-60 0 -103 -45.5t-50 -118.5h275
q-2 84 -35 124t-87 40z" />
    <glyph glyph-name="ecircumflex" unicode="&#xea;" horiz-adv-x="514" 
d="M403 568h-55l-76 75l-75 -75h-55l82 122h95zM121 249q0 -88 46.5 -145t135.5 -57q80 0 143 37l27 -47q-26 -19 -78.5 -34t-105.5 -15q-115 0 -179.5 73t-64.5 190q0 120 66 195.5t169 75.5q87 0 141 -57.5t54 -162.5v-53h-354zM276 465q-60 0 -103 -45.5t-50 -118.5h275
q-2 84 -35 124t-87 40z" />
    <glyph glyph-name="edieresis" unicode="&#xeb;" horiz-adv-x="514" 
d="M226 581h-75v101h75v-101zM391 581h-75v101h75v-101zM121 249q0 -88 46.5 -145t135.5 -57q80 0 143 37l27 -47q-26 -19 -78.5 -34t-105.5 -15q-115 0 -179.5 73t-64.5 190q0 120 66 195.5t169 75.5q87 0 141 -57.5t54 -162.5v-53h-354zM276 465q-60 0 -103 -45.5
t-50 -118.5h275q-2 84 -35 124t-87 40z" />
    <glyph glyph-name="igrave" unicode="&#xec;" horiz-adv-x="231" 
d="M101 568l-65 122h81l50 -122h-66zM161 0h-75v510h75v-510z" />
    <glyph glyph-name="iacute" unicode="&#xed;" horiz-adv-x="234" 
d="M195 690l-65 -122h-66l50 122h81zM157 0h-75v510h75v-510z" />
    <glyph glyph-name="icircumflex" unicode="&#xee;" horiz-adv-x="243" 
d="M251 568h-55l-76 75l-75 -75h-55l82 122h95zM163 0h-75v510h75v-510z" />
    <glyph glyph-name="idieresis" unicode="&#xef;" horiz-adv-x="217" 
d="M63 581h-75v101h75v-101zM228 581h-75v101h75v-101zM151 0h-75v510h75v-510z" />
    <glyph glyph-name="eth" unicode="&#xf0;" horiz-adv-x="584" 
d="M415 703l-61 -45q185 -167 185 -403q0 -112 -69.5 -189.5t-177.5 -77.5t-177.5 77.5t-69.5 189.5q0 116 68.5 191.5t178.5 75.5q58 0 116 -35q-39 69 -108 130l-75 -56l-36 43l67 50q-31 24 -73 49l35 51q50 -28 92 -60l69 51zM462 255q0 83 -46 145.5t-124 62.5
t-124 -62.5t-46 -145.5q0 -82 43.5 -145t126.5 -63t126.5 63t43.5 145z" />
    <glyph glyph-name="ntilde" unicode="&#xf1;" horiz-adv-x="568" 
d="M347 654q26 0 41 38l41 -12q-7 -24 -31 -53t-60 -29q-25 0 -65 19t-51 19q-27 0 -42 -38l-40 12q6 23 30.5 51t60.5 28q23 0 61.5 -17.5t54.5 -17.5zM493 0h-75v356q0 107 -88 107q-78 0 -178 -75v-388h-75v510h73v-71q109 83 196 83q66 0 106.5 -41t40.5 -125v-356z" />
    <glyph glyph-name="ograve" unicode="&#xf2;" horiz-adv-x="584" 
d="M269 568l-65 122h81l50 -122h-66zM539 257q0 -114 -69 -191.5t-178 -77.5t-178 77.5t-69 191.5t68.5 189.5t178.5 75.5t178.5 -75.5t68.5 -189.5zM462 254q0 84 -46 146.5t-124 62.5t-124 -62.5t-46 -146.5q0 -81 43.5 -144t126.5 -63t126.5 63t43.5 144z" />
    <glyph glyph-name="oacute" unicode="&#xf3;" horiz-adv-x="584" 
d="M387 690l-65 -122h-66l50 122h81zM539 257q0 -114 -69 -191.5t-178 -77.5t-178 77.5t-69 191.5t68.5 189.5t178.5 75.5t178.5 -75.5t68.5 -189.5zM462 254q0 84 -46 146.5t-124 62.5t-124 -62.5t-46 -146.5q0 -81 43.5 -144t126.5 -63t126.5 63t43.5 144z" />
    <glyph glyph-name="ocircumflex" unicode="&#xf4;" horiz-adv-x="584" 
d="M431 568h-55l-76 75l-75 -75h-55l82 122h95zM539 257q0 -114 -69 -191.5t-178 -77.5t-178 77.5t-69 191.5t68.5 189.5t178.5 75.5t178.5 -75.5t68.5 -189.5zM462 254q0 84 -46 146.5t-124 62.5t-124 -62.5t-46 -146.5q0 -81 43.5 -144t126.5 -63t126.5 63t43.5 144z" />
    <glyph glyph-name="otilde" unicode="&#xf5;" horiz-adv-x="584" 
d="M363 654q26 0 41 38l41 -12q-7 -24 -31 -53t-60 -29q-25 0 -65 19t-51 19q-27 0 -42 -38l-40 12q6 23 30.5 51t60.5 28q23 0 61.5 -17.5t54.5 -17.5zM539 257q0 -114 -69 -191.5t-178 -77.5t-178 77.5t-69 191.5t68.5 189.5t178.5 75.5t178.5 -75.5t68.5 -189.5zM462 254
q0 84 -46 146.5t-124 62.5t-124 -62.5t-46 -146.5q0 -81 43.5 -144t126.5 -63t126.5 63t43.5 144z" />
    <glyph glyph-name="odieresis" unicode="&#xf6;" horiz-adv-x="584" 
d="M255 581h-75v101h75v-101zM420 581h-75v101h75v-101zM539 257q0 -114 -69 -191.5t-178 -77.5t-178 77.5t-69 191.5t68.5 189.5t178.5 75.5t178.5 -75.5t68.5 -189.5zM462 254q0 84 -46 146.5t-124 62.5t-124 -62.5t-46 -146.5q0 -81 43.5 -144t126.5 -63t126.5 63
t43.5 144z" />
    <glyph glyph-name="divide" unicode="&#xf7;" horiz-adv-x="570" 
d="M238 451v85h85v-85h-85zM493 255h-416v58h416v-58zM238 26v85h85v-85h-85z" />
    <glyph glyph-name="oslash" unicode="&#xf8;" horiz-adv-x="584" 
d="M539 255q0 -112 -69.5 -189.5t-177.5 -77.5t-177.5 77.5t-69.5 189.5q0 116 68.5 191.5t178.5 75.5t178.5 -75.5t68.5 -191.5zM122 255q0 -70 31 -125l246 289q-46 44 -107 44q-78 0 -124 -62.5t-46 -145.5zM462 255q0 68 -32 123l-246 -289q42 -42 108 -42
q83 0 126.5 63t43.5 145z" />
    <glyph glyph-name="ugrave" unicode="&#xf9;" horiz-adv-x="562" 
d="M272 568l-65 122h81l50 -122h-66zM75 510h75v-364q0 -48 26 -72t69 -24q79 0 165 72v388h75v-510h-73v70q-99 -82 -187 -82q-64 0 -107 37.5t-43 121.5v363z" />
    <glyph glyph-name="uacute" unicode="&#xfa;" horiz-adv-x="562" 
d="M348 690l-65 -122h-66l50 122h81zM75 510h75v-364q0 -48 26 -72t69 -24q79 0 165 72v388h75v-510h-73v70q-99 -82 -187 -82q-64 0 -107 37.5t-43 121.5v363z" />
    <glyph glyph-name="ucircumflex" unicode="&#xfb;" horiz-adv-x="562" 
d="M413 568h-55l-76 75l-75 -75h-55l82 122h95zM75 510h75v-364q0 -48 26 -72t69 -24q79 0 165 72v388h75v-510h-73v70q-99 -82 -187 -82q-64 0 -107 37.5t-43 121.5v363z" />
    <glyph glyph-name="udieresis" unicode="&#xfc;" horiz-adv-x="562" 
d="M237 581h-75v101h75v-101zM402 581h-75v101h75v-101zM75 510h75v-364q0 -48 26 -72t69 -24q79 0 165 72v388h75v-510h-73v70q-99 -82 -187 -82q-64 0 -107 37.5t-43 121.5v363z" />
    <glyph glyph-name="yacute" unicode="&#xfd;" horiz-adv-x="512" 
d="M325 690l-65 -122h-66l50 122h81zM19 510h81l153 -454l162 454h81l-269 -720h-77l82 210h-30z" />
    <glyph glyph-name="thorn" unicode="&#xfe;" horiz-adv-x="569" 
d="M527 286q0 -137 -84.5 -217.5t-210.5 -80.5q-43 0 -80 5v-203h-75v915l75 21v-271q84 67 173 67q90 0 146 -64t56 -172zM449 275q0 91 -42.5 136t-111.5 45q-36 0 -76.5 -15.5t-66.5 -32.5v-355q36 -9 82 -9q89 0 152 59.5t63 171.5z" />
    <glyph glyph-name="ydieresis" unicode="&#xff;" horiz-adv-x="512" 
d="M215 581h-75v101h75v-101zM380 581h-75v101h75v-101zM19 510h81l153 -454l162 454h81l-269 -720h-77l82 210h-30z" />
    <glyph glyph-name="Amacron" unicode="&#x100;" horiz-adv-x="589" 
d="M420 771h-250v58h250v-58zM495 0q-9 27 -30.5 95.5t-33.5 106.5h-273q-12 -38 -33.5 -106.5t-30.5 -95.5h-77l224 690h108l224 -690h-78zM295 635l-119 -376h237q-20 63 -59.5 188t-58.5 188z" />
    <glyph glyph-name="amacron" unicode="&#x101;" horiz-adv-x="497" 
d="M373 619h-250v56h250v-56zM422 0h-66l-6 52q-75 -64 -151 -64q-69 0 -112.5 38t-43.5 104q0 89 58 131t195 42q12 0 51 -3v76q0 42 -27 64.5t-72 22.5q-85 0 -157 -40l-25 51q79 48 197 48q76 0 117.5 -36t41.5 -107v-379zM347 93v151q-46 6 -66 6q-86 0 -123 -28
t-37 -84q0 -40 26 -66.5t74 -26.5q71 0 126 48z" />
    <glyph glyph-name="Abreve" unicode="&#x102;" horiz-adv-x="589" 
d="M295 747q-59 0 -94.5 34t-35.5 90h54q0 -32 21.5 -51t54.5 -19t54.5 19.5t21.5 50.5h54q0 -56 -35.5 -90t-94.5 -34zM495 0q-9 27 -30.5 95.5t-33.5 106.5h-273q-12 -38 -33.5 -106.5t-30.5 -95.5h-77l224 690h108l224 -690h-78zM295 635l-119 -376h237q-20 63 -59.5 188
t-58.5 188z" />
    <glyph glyph-name="abreve" unicode="&#x103;" horiz-adv-x="497" 
d="M378 690q0 -56 -35.5 -90t-94.5 -34t-94.5 34t-35.5 90h54q0 -32 21.5 -51t54.5 -19q32 0 54 19t22 51h54zM422 0h-66l-6 52q-75 -64 -151 -64q-69 0 -112.5 38t-43.5 104q0 89 58 131t195 42q12 0 51 -3v76q0 42 -27 64.5t-72 22.5q-85 0 -157 -40l-25 51q79 48 197 48
q76 0 117.5 -36t41.5 -107v-379zM347 93v151q-46 6 -66 6q-86 0 -123 -28t-37 -84q0 -40 26 -66.5t74 -26.5q71 0 126 48z" />
    <glyph glyph-name="Aogonek" unicode="&#x104;" horiz-adv-x="589" 
d="M495 0l-64 202h-273l-64 -202h-77l224 690h108l224 -690q-30 -28 -48 -63.5t-18 -64.5q0 -38 48 -38q9 0 18 3v-41q-23 -5 -43 -5q-41 0 -65 19.5t-24 47.5q0 63 67 142h-13zM295 635l-119 -376h237z" />
    <glyph glyph-name="aogonek" unicode="&#x105;" horiz-adv-x="498" 
d="M423 -163v-41q-23 -5 -43 -5q-41 0 -65 19.5t-24 47.5q0 58 65 142l-6 52q-75 -64 -151 -64q-69 0 -112.5 38t-43.5 104q0 89 58 131t195 42q12 0 51 -3v76q0 42 -27 64.5t-72 22.5q-85 0 -157 -40l-25 51q79 48 197 48q76 0 117.5 -36t41.5 -107v-379q-29 -29 -47 -64
t-18 -64q0 -38 48 -38q9 0 18 3zM347 93v151q-46 6 -66 6q-86 0 -123 -28t-37 -84q0 -40 26 -66.5t74 -26.5q71 0 126 48z" />
    <glyph glyph-name="Cacute" unicode="&#x106;" horiz-adv-x="571" 
d="M459 870l-65 -122h-66l50 122h81zM522 70l19 -57q-69 -25 -157 -25q-148 0 -244.5 101.5t-96.5 258.5q0 161 100.5 257.5t243.5 96.5q90 0 158 -29l-24 -59q-61 29 -137 29q-119 0 -190.5 -85.5t-71.5 -210.5q0 -130 76 -215t192 -85q77 0 132 23z" />
    <glyph glyph-name="cacute" unicode="&#x107;" horiz-adv-x="445" 
d="M384 690l-65 -122h-66l50 122h81zM422 15q-56 -27 -124 -27q-109 0 -181 72t-72 190q0 119 72.5 195.5t180.5 76.5q69 0 121 -27l-27 -54q-46 22 -95 22q-76 0 -125 -60t-49 -149q0 -88 49 -147t137 -59q50 0 88 17z" />
    <glyph glyph-name="Ccircumflex" unicode="&#x108;" horiz-adv-x="571" 
d="M501 748h-55l-76 75l-75 -75h-55l83 122h94zM522 70l19 -57q-69 -25 -157 -25q-148 0 -244.5 101.5t-96.5 258.5q0 161 100.5 257.5t243.5 96.5q90 0 158 -29l-24 -59q-61 29 -137 29q-119 0 -190.5 -85.5t-71.5 -210.5q0 -130 76 -215t192 -85q77 0 132 23z" />
    <glyph glyph-name="ccircumflex" unicode="&#x109;" horiz-adv-x="445" 
d="M419 568h-55l-76 75l-75 -75h-55l82 122h95zM422 15q-56 -27 -124 -27q-109 0 -181 72t-72 190q0 119 72.5 195.5t180.5 76.5q69 0 121 -27l-27 -54q-46 22 -95 22q-76 0 -125 -60t-49 -149q0 -88 49 -147t137 -59q50 0 88 17z" />
    <glyph glyph-name="Cdotaccent" unicode="&#x10a;" horiz-adv-x="571" 
d="M425 830q0 -21 -15 -35.5t-35 -14.5q-21 0 -35.5 14.5t-14.5 35.5q0 20 14.5 35t35.5 15q20 0 35 -15t15 -35zM522 70l19 -57q-69 -25 -157 -25q-148 0 -244.5 101.5t-96.5 258.5q0 161 100.5 257.5t243.5 96.5q90 0 158 -29l-24 -59q-61 29 -137 29q-119 0 -190.5 -85.5
t-71.5 -210.5q0 -130 76 -215t192 -85q77 0 132 23z" />
    <glyph glyph-name="cdotaccent" unicode="&#x10b;" horiz-adv-x="445" 
d="M330 590h-75v100h75v-100zM422 15q-56 -27 -124 -27q-109 0 -181 72t-72 190q0 119 72.5 195.5t180.5 76.5q69 0 121 -27l-27 -54q-46 22 -95 22q-76 0 -125 -60t-49 -149q0 -88 49 -147t137 -59q50 0 88 17z" />
    <glyph glyph-name="Ccaron" unicode="&#x10c;" horiz-adv-x="571" 
d="M449 870h55l-84 -122h-95l-82 122h55l75 -75zM522 70l19 -57q-69 -25 -157 -25q-148 0 -244.5 101.5t-96.5 258.5q0 161 100.5 257.5t243.5 96.5q90 0 158 -29l-24 -59q-61 29 -137 29q-119 0 -190.5 -85.5t-71.5 -210.5q0 -130 76 -215t192 -85q77 0 132 23z" />
    <glyph glyph-name="ccaron" unicode="&#x10d;" horiz-adv-x="446" 
d="M368 690h55l-84 -122h-95l-82 122h55l75 -75zM422 15q-56 -27 -124 -27q-109 0 -181 72t-72 190q0 119 72.5 195.5t180.5 76.5q69 0 121 -27l-27 -54q-46 22 -95 22q-76 0 -125 -60t-49 -149q0 -88 49 -147t137 -59q50 0 88 17z" />
    <glyph glyph-name="Dcaron" unicode="&#x10e;" horiz-adv-x="697" 
d="M416 870h55l-84 -122h-94l-83 122h55l75 -75zM656 354q0 -172 -98.5 -263t-273.5 -91h-202v690h212q168 0 265 -88.5t97 -247.5zM575 350q0 130 -78.5 206t-202.5 76h-133v-574h126q134 0 211 75t77 217z" />
    <glyph glyph-name="dcaron" unicode="&#x10f;" horiz-adv-x="610" 
d="M420 476v229l75 21v-726h-75v49q-78 -61 -153 -61q-92 0 -157 67t-65 197q0 119 72.5 194.5t169.5 75.5q72 0 133 -46zM550 609v87h83v-87l-42 -83h-44l37 83h-34zM420 100v319q-60 44 -126 44q-70 0 -121 -57.5t-51 -156.5q0 -94 47 -148t113 -54q65 0 138 53z" />
    <glyph glyph-name="Dcroat" unicode="&#x110;" horiz-adv-x="693" 
d="M652 354q0 -172 -98.5 -263t-273.5 -91h-202v327h-58v57h58v306h212q168 0 265 -88.5t97 -247.5zM278 327h-121v-269h126q134 0 211 75t77 217q0 130 -78.5 206t-202.5 76h-133v-248h121v-57z" />
    <glyph glyph-name="dcroat" unicode="&#x111;" horiz-adv-x="575" 
d="M420 476v108h-125v56h125v65l75 21v-86h50v-56h-50v-584h-75v49q-78 -61 -153 -61q-92 0 -157 67t-65 197q0 119 72.5 194.5t169.5 75.5q72 0 133 -46zM420 100v319q-60 44 -126 44q-70 0 -121 -57.5t-51 -156.5q0 -94 47 -148t113 -54q65 0 138 53z" />
    <glyph glyph-name="Emacron" unicode="&#x112;" horiz-adv-x="505" 
d="M409 799h-250v56h250v-56zM486 58v-58h-404v690h376v-58h-297v-248h261v-58h-261v-268h325z" />
    <glyph glyph-name="emacron" unicode="&#x113;" horiz-adv-x="514" 
d="M373 619h-250v56h250v-56zM121 249q0 -88 46.5 -145t135.5 -57q80 0 143 37l27 -47q-26 -19 -78.5 -34t-105.5 -15q-115 0 -179.5 73t-64.5 190q0 120 66 195.5t169 75.5q87 0 141 -57.5t54 -162.5v-53h-354zM276 465q-60 0 -103 -45.5t-50 -118.5h275q-2 84 -35 124
t-87 40z" />
    <glyph glyph-name="Ebreve" unicode="&#x114;" horiz-adv-x="505" 
d="M414 870q0 -56 -35.5 -90t-94.5 -34t-94.5 34t-35.5 90h54q0 -32 21.5 -51t54.5 -19q32 0 54 19t22 51h54zM486 58v-58h-404v690h376v-58h-297v-248h261v-58h-261v-268h325z" />
    <glyph glyph-name="ebreve" unicode="&#x115;" horiz-adv-x="514" 
d="M378 690q0 -56 -35.5 -90t-94.5 -34t-94.5 34t-35.5 90h54q0 -32 21.5 -51t54.5 -19q32 0 54 19t22 51h54zM121 249q0 -88 46.5 -145t135.5 -57q80 0 143 37l27 -47q-26 -19 -78.5 -34t-105.5 -15q-115 0 -179.5 73t-64.5 190q0 120 66 195.5t169 75.5q87 0 141 -57.5
t54 -162.5v-53h-354zM276 465q-60 0 -103 -45.5t-50 -118.5h275q-2 84 -35 124t-87 40z" />
    <glyph glyph-name="Edotaccent" unicode="&#x116;" horiz-adv-x="505" 
d="M324 770h-75v100h75v-100zM486 58v-58h-404v690h376v-58h-297v-248h261v-58h-261v-268h325z" />
    <glyph glyph-name="edotaccent" unicode="&#x117;" horiz-adv-x="514" 
d="M297 590h-75v100h75v-100zM121 249q0 -88 46.5 -145t135.5 -57q80 0 143 37l27 -47q-26 -19 -78.5 -34t-105.5 -15q-115 0 -179.5 73t-64.5 190q0 120 66 195.5t169 75.5q87 0 141 -57.5t54 -162.5v-53h-354zM276 465q-60 0 -103 -45.5t-50 -118.5h275q-2 84 -35 124
t-87 40z" />
    <glyph glyph-name="Eogonek" unicode="&#x118;" horiz-adv-x="510" 
d="M491 -163v-41q-23 -5 -43 -5q-41 0 -65 19.5t-24 47.5q0 63 67 142h-344v690h376v-58h-297v-248h261v-58h-261v-268h325v-58q-61 -66 -61 -128q0 -38 48 -38q9 0 18 3z" />
    <glyph glyph-name="eogonek" unicode="&#x119;" horiz-adv-x="517" 
d="M475 -163v-40q-19 -6 -43 -6q-39 0 -64 19t-25 50q0 61 56 142q-64 -14 -107 -14q-116 0 -181.5 73.5t-65.5 191.5t66.5 193.5t170.5 75.5q91 0 143.5 -60t52.5 -161v-52h-357q1 -90 49 -146t136 -56q79 0 140 36l27 -48q-25 -30 -44.5 -75t-19.5 -85q0 -41 47 -41
q10 0 19 3zM278 465q-61 0 -104.5 -47t-50.5 -117h280q-1 78 -34.5 121t-90.5 43z" />
    <glyph glyph-name="Ecaron" unicode="&#x11a;" horiz-adv-x="505" 
d="M354 870h55l-84 -122h-95l-82 122h55l75 -75zM486 58q-3 -9 -8 -28.5t-8 -29.5h-388v690h376q-1 -10 -4 -29.5t-4 -28.5h-289v-248h261v-58h-261v-268h325z" />
    <glyph glyph-name="ecaron" unicode="&#x11b;" horiz-adv-x="514" 
d="M341 690h55l-84 -122h-95l-82 122h55l75 -75zM121 249q0 -88 46.5 -145t135.5 -57q80 0 143 37l27 -47q-26 -19 -78.5 -34t-105.5 -15q-115 0 -179.5 73t-64.5 190q0 120 66 195.5t169 75.5q87 0 141 -57.5t54 -162.5v-53h-354zM276 465q-60 0 -103 -45.5t-50 -118.5h275
q-2 84 -35 124t-87 40z" />
    <glyph glyph-name="Gcircumflex" unicode="&#x11c;" horiz-adv-x="669" 
d="M485 748h-55l-76 75l-75 -75h-55l82 122h95zM388 46q78 0 143 23v260l74 16v-312q-90 -45 -221 -45q-148 0 -244.5 102t-96.5 259q0 107 48 189t125.5 123t169.5 41q127 0 221 -51q-10 -18 -32 -59q-84 52 -191 52q-119 0 -190.5 -85.5t-71.5 -210.5q0 -131 75.5 -216.5
t190.5 -85.5z" />
    <glyph glyph-name="gcircumflex" unicode="&#x11d;" horiz-adv-x="509" 
d="M389 568h-55l-76 75l-75 -75h-55l82 122h95zM19 -87q0 67 78 116q-40 22 -40 65q0 31 22.5 62t48.5 45q-69 53 -69 140q0 79 55.5 130t137.5 51q40 0 73 -12h176v-56h-97q40 -48 40 -112q0 -79 -56.5 -130.5t-136.5 -51.5q-43 0 -82 17q-47 -28 -47 -63q0 -29 51 -33
l181 -13q142 -11 142 -118q0 -80 -72 -126t-182 -46q-102 0 -162.5 38.5t-60.5 96.5zM134 341q0 -55 31.5 -88.5t85.5 -33.5t85.5 33.5t31.5 88.5q0 54 -31.5 88t-85.5 34t-85.5 -34t-31.5 -88zM346 0l-199 14q-58 -39 -58 -90q0 -45 50 -67t115 -22q70 0 118 26.5t48 77.5
q0 56 -74 61z" />
    <glyph glyph-name="Gbreve" unicode="&#x11e;" horiz-adv-x="669" 
d="M490 871q0 -56 -35.5 -90t-94.5 -34t-94.5 34t-35.5 90h54q0 -32 22 -51t54 -19q33 0 54.5 19t21.5 51h54zM605 33q-90 -45 -221 -45q-148 0 -244.5 102t-96.5 259q0 107 48 189t125.5 123t169.5 41q127 0 221 -51l-32 -59q-84 52 -191 52q-119 0 -190.5 -85.5
t-71.5 -210.5q0 -131 75.5 -216.5t190.5 -85.5q78 0 143 23v260l74 16v-312z" />
    <glyph glyph-name="gbreve" unicode="&#x11f;" horiz-adv-x="509" 
d="M388 690q0 -56 -35.5 -90t-94.5 -34t-94.5 34t-35.5 90h54q0 -32 21.5 -51t54.5 -19q32 0 54 19t22 51h54zM19 -87q0 67 78 116q-40 22 -40 65q0 31 22.5 62t48.5 45q-69 53 -69 140q0 79 55.5 130t137.5 51q40 0 73 -12h176v-56h-97q40 -48 40 -112q0 -79 -56.5 -130.5
t-136.5 -51.5q-43 0 -82 17q-47 -28 -47 -63q0 -29 51 -33l181 -13q142 -11 142 -118q0 -80 -72 -126t-182 -46q-102 0 -162.5 38.5t-60.5 96.5zM134 341q0 -55 31.5 -88.5t85.5 -33.5t85.5 33.5t31.5 88.5q0 54 -31.5 88t-85.5 34t-85.5 -34t-31.5 -88zM346 0l-199 14
q-58 -39 -58 -90q0 -45 50 -67t115 -22q70 0 118 26.5t48 77.5q0 56 -74 61z" />
    <glyph glyph-name="Gdotaccent" unicode="&#x120;" horiz-adv-x="669" 
d="M408 830q0 -21 -14.5 -35.5t-35.5 -14.5q-20 0 -35 14.5t-15 35.5q0 20 15 35t35 15q21 0 35.5 -15t14.5 -35zM605 33q-90 -45 -221 -45q-148 0 -244.5 102t-96.5 259q0 107 48 189t125.5 123t169.5 41q127 0 221 -51l-32 -59q-84 52 -191 52q-119 0 -190.5 -85.5
t-71.5 -210.5q0 -131 75.5 -216.5t190.5 -85.5q78 0 143 23v260l74 16v-312z" />
    <glyph glyph-name="gdotaccent" unicode="&#x121;" horiz-adv-x="509" 
d="M295 590h-75v100h75v-100zM19 -87q0 67 78 116q-40 22 -40 65q0 31 22.5 62t48.5 45q-69 53 -69 140q0 79 55.5 130t137.5 51q40 0 73 -12h176v-56h-97q40 -48 40 -112q0 -79 -56.5 -130.5t-136.5 -51.5q-43 0 -82 17q-47 -28 -47 -63q0 -29 51 -33l181 -13
q142 -11 142 -118q0 -80 -72 -126t-182 -46q-102 0 -162.5 38.5t-60.5 96.5zM134 341q0 -55 31.5 -88.5t85.5 -33.5t85.5 33.5t31.5 88.5q0 54 -31.5 88t-85.5 34t-85.5 -34t-31.5 -88zM346 0l-199 14q-58 -39 -58 -90q0 -45 50 -67t115 -22q70 0 118 26.5t48 77.5
q0 56 -74 61z" />
    <glyph glyph-name="Gcommaaccent" unicode="&#x122;" horiz-adv-x="669" 
d="M605 33q-90 -45 -221 -45q-148 0 -244.5 102t-96.5 259q0 107 48 189t125.5 123t169.5 41q127 0 221 -51l-32 -59q-84 52 -191 52q-119 0 -190.5 -85.5t-71.5 -210.5q0 -131 75.5 -216.5t190.5 -85.5q78 0 143 23v260l74 16v-312zM298 -151v87h83v-87l-42 -83h-44l37 83
h-34z" />
    <glyph glyph-name="gcommaaccent" unicode="&#x123;" horiz-adv-x="509" 
d="M308 650v-87h-83v87l42 86h44l-37 -86h34zM19 -87q0 67 78 116q-40 22 -40 65q0 31 22.5 62t48.5 45q-69 53 -69 140q0 79 55.5 130t137.5 51q40 0 73 -12h176v-56h-97q40 -48 40 -112q0 -79 -56.5 -130.5t-136.5 -51.5q-43 0 -82 17q-47 -28 -47 -63q0 -29 51 -33
l181 -13q142 -11 142 -118q0 -80 -72 -126t-182 -46q-102 0 -162.5 38.5t-60.5 96.5zM134 341q0 -55 31.5 -88.5t85.5 -33.5t85.5 33.5t31.5 88.5q0 54 -31.5 88t-85.5 34t-85.5 -34t-31.5 -88zM346 0l-199 14q-58 -39 -58 -90q0 -45 50 -67t115 -22q70 0 118 26.5t48 77.5
q0 56 -74 61z" />
    <glyph glyph-name="Hcircumflex" unicode="&#x124;" horiz-adv-x="694" 
d="M477 748h-55l-76 75l-75 -75h-55l82 122h95zM611 0h-80v326h-370v-326h-79v690h79v-306h370v306h80v-690z" />
    <glyph glyph-name="hcircumflex" unicode="&#x125;" horiz-adv-x="568" 
d="M256 748h-55l-76 75l-75 -75h-55l82 122h95zM152 726v-286q107 82 194 82q66 0 106.5 -41t40.5 -125v-356h-75v356q0 107 -88 107q-78 0 -178 -75v-388h-75v705z" />
    <glyph glyph-name="Hbar" unicode="&#x126;" horiz-adv-x="691" 
d="M610 0h-80v326h-370v-326h-79v477h-50v58h50v155h79v-155h370v155h80v-155h50v-58h-50v-477zM160 384h370v93h-370v-93z" />
    <glyph glyph-name="hbar" unicode="&#x127;" horiz-adv-x="572" 
d="M156 726v-86h182v-56h-182v-144q107 82 194 82q66 0 106.5 -41t40.5 -125v-356h-75v356q0 107 -88 107q-78 0 -178 -75v-388h-75v584h-58v56h58v65z" />
    <glyph glyph-name="Itilde" unicode="&#x128;" horiz-adv-x="253" 
d="M190 834q26 0 41 38l41 -12q-7 -24 -31 -53t-60 -29q-25 0 -65 19t-51 19q-27 0 -42 -38l-40 12q6 23 30.5 51t60.5 28q23 0 61.5 -17.5t54.5 -17.5zM166 0h-79v690h79v-690z" />
    <glyph glyph-name="itilde" unicode="&#x129;" horiz-adv-x="241" 
d="M183 654q26 0 41 38l41 -12q-7 -24 -31 -53t-60 -29q-25 0 -65 19t-51 19q-27 0 -42 -38l-40 12q6 23 30.5 51t60.5 28q23 0 61.5 -17.5t54.5 -17.5zM163 0h-75v510h75v-510z" />
    <glyph glyph-name="Imacron" unicode="&#x12a;" horiz-adv-x="250" 
d="M250 771h-250v58h250v-58zM165 0h-79v690h79v-690z" />
    <glyph glyph-name="imacron" unicode="&#x12b;" horiz-adv-x="238" 
d="M244 619h-250v56h250v-56zM161 0h-75v510h75v-510z" />
    <glyph glyph-name="Ibreve" unicode="&#x12c;" horiz-adv-x="243" 
d="M252 871q0 -56 -35.5 -90t-94.5 -34t-94.5 34t-35.5 90h54q0 -32 22 -51t54 -19q33 0 54.5 19t21.5 51h54zM162 0h-79v690h79v-690z" />
    <glyph glyph-name="ibreve" unicode="&#x12d;" horiz-adv-x="230" 
d="M245 690q0 -56 -35.5 -90t-94.5 -34t-94.5 34t-35.5 90h54q0 -32 21.5 -51t54.5 -19q32 0 54 19t22 51h54zM157 0h-75v510h75v-510z" />
    <glyph glyph-name="Iogonek" unicode="&#x12e;" horiz-adv-x="251" 
d="M167 -163v-41q-23 -5 -43 -5q-41 0 -65 19.5t-24 47.5q0 27 11 56t25.5 53.5t16.5 32.5v690h79v-690q-30 -28 -48 -63.5t-18 -64.5q0 -38 48 -38q9 0 18 3z" />
    <glyph glyph-name="iogonek" unicode="&#x12f;" horiz-adv-x="234" 
d="M153 590h-75v100h75v-100zM154 -163v-41q-23 -5 -43 -5q-41 0 -65 19.5t-24 47.5q0 27 11 55t27 55t18 32v510h75v-510q-29 -29 -47 -64t-18 -64q0 -38 48 -38q9 0 18 3z" />
    <glyph glyph-name="Idotaccent" unicode="&#x130;" horiz-adv-x="262" 
d="M182 830q0 -21 -14.5 -35.5t-35.5 -14.5q-20 0 -35 14.5t-15 35.5q0 20 15 35t35 15q21 0 35.5 -15t14.5 -35zM172 0h-79v690h79v-690z" />
    <glyph glyph-name="dotlessi" unicode="&#x131;" horiz-adv-x="235" 
d="M155 0h-75v510h75v-510z" />
    <glyph glyph-name="IJ" unicode="&#x132;" horiz-adv-x="615" 
d="M161 0h-79v690h79v-690zM535 690v-545q0 -78 -47 -117t-125 -39q-73 0 -115 20l19 58q32 -20 93 -20q96 0 96 92v551h79z" />
    <glyph glyph-name="ij" unicode="&#x133;" horiz-adv-x="465" 
d="M155 590h-75v100h75v-100zM388 590h-75v100h75v-100zM155 0h-75v510h75v-510zM388 510v-472q0 -76 -18 -128.5t-40 -76.5t-63 -55l-41 50q46 40 66.5 82.5t20.5 128.5v471h75z" />
    <glyph glyph-name="Jcircumflex" unicode="&#x134;" horiz-adv-x="376" 
d="M383 748h-55l-76 75l-75 -75h-55l83 122h94zM290 690v-545q0 -78 -47 -117t-125 -39q-70 0 -115 20q5 13 19 58q32 -20 93 -20q96 0 96 92v551h79z" />
    <glyph glyph-name="jcircumflex" unicode="&#x135;" horiz-adv-x="238" 
d="M248 568h-55l-76 75l-75 -75h-55l82 122h95zM156 510v-472q0 -76 -18 -128.5t-40 -76.5t-63 -55l-41 50q46 40 66.5 82.5t20.5 128.5v471h75z" />
    <glyph glyph-name="Kcommaaccent" unicode="&#x136;" horiz-adv-x="569" 
d="M154 690v-690h-79v690h79zM500 0l-316 352l292 338h91l-291 -330l324 -360h-100zM254 -151v87h83v-87l-42 -83h-44l37 83h-34z" />
    <glyph glyph-name="kcommaaccent" unicode="&#x137;" horiz-adv-x="485" 
d="M152 726v-726h-75v705zM414 0l-239 281l220 229h87l-218 -228l243 -282h-93zM209 -151v87h83v-87l-42 -83h-44l37 83h-34z" />
    <glyph glyph-name="kgreenlandic" unicode="&#x138;" horiz-adv-x="491" 
d="M152 510v-510h-75v510h75zM414 0l-239 281l220 229h87l-218 -228l243 -282h-93z" />
    <glyph glyph-name="Lacute" unicode="&#x139;" horiz-adv-x="476" 
d="M223 870l-65 -122h-66l50 122h81zM467 58l-16 -58h-369v690h79v-632h306z" />
    <glyph glyph-name="lacute" unicode="&#x13a;" horiz-adv-x="232" 
d="M220 887l-65 -122h-66l50 122h81zM155 0h-75v699l75 55v-754z" />
    <glyph glyph-name="Lcommaaccent" unicode="&#x13b;" horiz-adv-x="470" 
d="M451 58v-58h-369v690h79v-632h290zM199 -151v87h83v-87l-42 -83h-44l37 83h-34z" />
    <glyph glyph-name="lcommaaccent" unicode="&#x13c;" horiz-adv-x="237" 
d="M151 0h-75v705l75 21v-726zM78 -151v87h83v-87l-42 -83h-44l37 83h-34z" />
    <glyph glyph-name="Lcaron" unicode="&#x13d;" horiz-adv-x="460" 
d="M451 58v-58h-369v690h79v-632h290zM212 603v87h83v-87l-42 -83h-44l37 83h-34z" />
    <glyph glyph-name="lcaron" unicode="&#x13e;" horiz-adv-x="268" 
d="M155 0h-75v705l75 21v-726zM204 609v87h83v-87l-42 -83h-44l37 83h-34z" />
    <glyph glyph-name="Ldot" unicode="&#x13f;" horiz-adv-x="470" 
d="M451 58v-58h-369v690h79v-632h290zM381 356q0 -23 -17 -39.5t-40 -16.5t-39.5 16.5t-16.5 39.5t16.5 40t39.5 17t40 -17t17 -40z" />
    <glyph glyph-name="ldot" unicode="&#x140;" horiz-adv-x="294" 
d="M155 0h-75v705l75 21v-726zM313 356q0 -23 -17 -39.5t-40 -16.5t-39.5 16.5t-16.5 39.5t16.5 40t39.5 17t40 -17t17 -40z" />
    <glyph glyph-name="Lslash" unicode="&#x141;" horiz-adv-x="459" 
d="M450 58v-58h-369v270l-54 -19v62l54 19v358h79v-331l149 53v-62l-149 -53v-239h290z" />
    <glyph glyph-name="lslash" unicode="&#x142;" horiz-adv-x="242" 
d="M158 0h-75v379l-64 -33v63l64 33v263l75 21v-246l65 34v-63l-65 -34v-417z" />
    <glyph glyph-name="Nacute" unicode="&#x143;" horiz-adv-x="717" 
d="M434 870l-65 -122h-66l50 122h81zM635 0h-100q-125 205 -377 615v-615h-76v690h114l362 -594h1v594h76v-690z" />
    <glyph glyph-name="nacute" unicode="&#x144;" horiz-adv-x="568" 
d="M350 690l-65 -122h-66l50 122h81zM493 0h-75v356q0 107 -88 107q-78 0 -178 -75v-388h-75v510h73v-71q109 83 196 83q66 0 106.5 -41t40.5 -125v-356z" />
    <glyph glyph-name="Ncommaaccent" unicode="&#x145;" horiz-adv-x="717" 
d="M635 0h-100l-377 615v-615h-76v690h114l362 -594h1v594h76v-690zM319 -151v87h83v-87l-42 -83h-44l37 83h-34z" />
    <glyph glyph-name="ncommaaccent" unicode="&#x146;" horiz-adv-x="568" 
d="M493 0h-75v356q0 107 -88 107q-78 0 -178 -75v-388h-75v510h73v-71q109 83 196 83q66 0 106.5 -41t40.5 -125v-356zM247 -151v87h83v-87l-42 -83h-44l37 83h-34z" />
    <glyph glyph-name="Ncaron" unicode="&#x147;" horiz-adv-x="717" 
d="M434 870h55l-84 -122h-94l-83 122h55l75 -75zM635 0h-100q-125 205 -377 615v-615h-76v690h114l362 -594h1v594h76v-690z" />
    <glyph glyph-name="ncaron" unicode="&#x148;" horiz-adv-x="568" 
d="M360 690h55l-84 -122h-95l-82 122h55l75 -75zM493 0h-75v356q0 107 -88 107q-78 0 -178 -75v-388h-75v510h73v-71q109 83 196 83q66 0 106.5 -41t40.5 -125v-356z" />
    <glyph glyph-name="napostrophe" unicode="&#x149;" horiz-adv-x="568" 
d="M79 643v87h83v-87l-42 -83h-44l37 83h-34zM493 0h-75v356q0 107 -88 107q-78 0 -178 -75v-388h-75v510h73v-71q109 83 196 83q66 0 106.5 -41t40.5 -125v-356z" />
    <glyph glyph-name="Eng" unicode="&#x14a;" horiz-adv-x="717" 
d="M635 690v-749q0 -78 -47 -117t-125 -39q-73 0 -115 20q5 13 19 58q32 -20 93 -20q101 0 101 92v37q-10 23 -13 28l-395 616v-616h-71v690h109l372 -588h1v588h71z" />
    <glyph glyph-name="eng" unicode="&#x14b;" horiz-adv-x="568" 
d="M493 356v-318q0 -58 -8.5 -100t-28.5 -72.5t-36.5 -47t-47.5 -40.5l-41 50q46 40 66.5 82.5t20.5 128.5v317q0 107 -93 107q-38 0 -89.5 -25t-83.5 -50v-388h-75v510h73v-71q106 83 191 83q72 0 112 -40.5t40 -125.5z" />
    <glyph glyph-name="Omacron" unicode="&#x14c;" horiz-adv-x="757" 
d="M504 771h-250v58h250v-58zM43 345q0 156 97.5 256.5t238.5 100.5t238 -100.5t97 -256.5t-97 -256.5t-238 -100.5t-238.5 100.5t-97.5 256.5zM124 345q0 -125 71 -212t184 -87t184 87t71 212q0 126 -71 212.5t-184 86.5t-184 -86.5t-71 -212.5z" />
    <glyph glyph-name="omacron" unicode="&#x14d;" horiz-adv-x="584" 
d="M426 619h-250v56h250v-56zM539 257q0 -114 -69 -191.5t-178 -77.5t-178 77.5t-69 191.5t68.5 189.5t178.5 75.5t178.5 -75.5t68.5 -189.5zM462 254q0 84 -46 146.5t-124 62.5t-124 -62.5t-46 -146.5q0 -81 43.5 -144t126.5 -63t126.5 63t43.5 144z" />
    <glyph glyph-name="Obreve" unicode="&#x14e;" horiz-adv-x="757" 
d="M509 871q0 -56 -35.5 -90t-94.5 -34t-94.5 34t-35.5 90h54q0 -32 21.5 -51t54.5 -19q32 0 54 19t22 51h54zM43 345q0 156 97.5 256.5t238.5 100.5t238 -100.5t97 -256.5t-97 -256.5t-238 -100.5t-238.5 100.5t-97.5 256.5zM124 345q0 -125 71 -212t184 -87t184 87t71 212
q0 126 -71 212.5t-184 86.5t-184 -86.5t-71 -212.5z" />
    <glyph glyph-name="obreve" unicode="&#x14f;" horiz-adv-x="584" 
d="M431 690q0 -56 -35.5 -90t-94.5 -34t-94.5 34t-35.5 90h54q0 -32 21.5 -51t54.5 -19q32 0 54 19t22 51h54zM539 257q0 -114 -69 -191.5t-178 -77.5t-178 77.5t-69 191.5t68.5 189.5t178.5 75.5t178.5 -75.5t68.5 -189.5zM462 254q0 84 -46 146.5t-124 62.5t-124 -62.5
t-46 -146.5q0 -81 43.5 -144t126.5 -63t126.5 63t43.5 144z" />
    <glyph glyph-name="Ohungarumlaut" unicode="&#x150;" horiz-adv-x="757" 
d="M377 870l-65 -122h-63l50 122h78zM508 870l-65 -122h-63l50 122h78zM43 345q0 156 97.5 256.5t238.5 100.5t238 -100.5t97 -256.5t-97 -256.5t-238 -100.5t-238.5 100.5t-97.5 256.5zM124 345q0 -125 71 -212t184 -87t184 87t71 212q0 126 -71 212.5t-184 86.5
t-184 -86.5t-71 -212.5z" />
    <glyph glyph-name="ohungarumlaut" unicode="&#x151;" horiz-adv-x="584" 
d="M299 690l-65 -122h-63l50 122h78zM430 690l-65 -122h-63l50 122h78zM539 257q0 -114 -69 -191.5t-178 -77.5t-178 77.5t-69 191.5t68.5 189.5t178.5 75.5t178.5 -75.5t68.5 -189.5zM462 254q0 84 -46 146.5t-124 62.5t-124 -62.5t-46 -146.5q0 -81 43.5 -144t126.5 -63
t126.5 63t43.5 144z" />
    <glyph glyph-name="OE" unicode="&#x152;" horiz-adv-x="1056" 
d="M1037 58v-58h-404v125q-43 -65 -108.5 -101t-145.5 -36q-141 0 -238.5 100.5t-97.5 256.5t97.5 256.5t238.5 100.5q80 0 145.5 -36.5t108.5 -101.5v126h376v-58h-297v-248h261v-58h-261v-268h325zM124 345q0 -125 71 -212t184 -87t184 87t71 212q0 126 -71 212t-184 86
t-184 -86t-71 -212z" />
    <glyph glyph-name="oe" unicode="&#x153;" horiz-adv-x="930" 
d="M886 35q-25 -19 -73.5 -33t-102.5 -14q-156 0 -214 129q-29 -59 -82 -94t-122 -35q-109 0 -178 77t-69 190q0 116 68.5 191.5t178.5 75.5q71 0 124 -34.5t82 -94.5q28 61 79 95t118 34q92 0 144 -60t52 -161v-52h-356q0 -89 50 -145.5t139 -56.5q72 0 136 36zM537 301
h279q-1 78 -34 121t-90 43q-62 0 -105.5 -47t-49.5 -117zM462 255q0 83 -46 145.5t-124 62.5t-124 -62.5t-46 -145.5q0 -82 43.5 -145t126.5 -63t126.5 63t43.5 145z" />
    <glyph glyph-name="Racute" unicode="&#x154;" horiz-adv-x="552" 
d="M348 870l-65 -122h-66l50 122h81zM532 0h-89l-178 305h-104v-305h-79v690h203q217 0 217 -189q0 -78 -44.5 -125.5t-113.5 -62.5zM423 500q0 61 -34.5 96.5t-102.5 35.5h-125v-269h120q64 0 103 34.5t39 102.5z" />
    <glyph glyph-name="racute" unicode="&#x155;" horiz-adv-x="325" 
d="M235 690l-65 -122h-66l50 122h81zM320 522v-81q-6 1 -19 1q-73 0 -149 -76v-366h-75v510h72v-94q28 42 76 74t95 32z" />
    <glyph glyph-name="Rcommaaccent" unicode="&#x156;" horiz-adv-x="562" 
d="M542 0h-89l-178 305h-114v-305h-79v690h203q217 0 217 -189q0 -78 -41 -124.5t-107 -63.5zM423 500q0 61 -34.5 96.5t-102.5 35.5h-125v-269h120q64 0 103 34.5t39 102.5zM237 -151v87h83v-87l-42 -83h-44l37 83h-34z" />
    <glyph glyph-name="rcommaaccent" unicode="&#x157;" horiz-adv-x="326" 
d="M321 522v-81q-6 1 -19 1q-73 0 -149 -76v-366h-75v510h72v-94q28 42 76 74t95 32zM77 -151v87h83v-87l-42 -83h-44l37 83h-34z" />
    <glyph glyph-name="Rcaron" unicode="&#x158;" horiz-adv-x="552" 
d="M349 870h55l-84 -122h-95l-82 122h55l75 -75zM532 0h-89q-60 101 -178 305h-104v-305h-79v690h203q217 0 217 -189q0 -78 -44.5 -125.5t-113.5 -62.5zM423 500q0 61 -34.5 96.5t-102.5 35.5h-125v-269h120q64 0 103 34.5t39 102.5z" />
    <glyph glyph-name="rcaron" unicode="&#x159;" horiz-adv-x="327" 
d="M247 690h55l-84 -122h-95l-82 122h55l75 -75zM322 522v-81q-6 1 -19 1q-73 0 -149 -76v-366h-75v510h72v-94q28 42 76 74t95 32z" />
    <glyph glyph-name="Sacute" unicode="&#x15a;" horiz-adv-x="479" 
d="M314 870l-65 -122h-66l50 122h81zM439 170q0 -84 -63 -133t-150 -49q-53 0 -104 16t-82 38q12 19 38 55q24 -19 69 -35t83 -16q55 0 92.5 31.5t37.5 87.5q0 42 -33 77.5t-80 62.5t-94.5 55.5t-80.5 71t-33 95.5q0 80 59.5 127.5t145.5 47.5q89 0 161 -47l-30 -54
q-22 15 -61.5 29t-73.5 14q-52 0 -86.5 -27t-34.5 -75q0 -43 33 -78.5t80 -62.5t94 -56t80 -73.5t33 -101.5z" />
    <glyph glyph-name="sacute" unicode="&#x15b;" horiz-adv-x="432" 
d="M284 690l-65 -122h-66l50 122h81zM391 135q0 -66 -53.5 -106.5t-135.5 -40.5q-92 0 -165 42l30 59q60 -44 138 -44q46 0 77.5 19.5t31.5 57.5q0 34 -28 58t-67.5 40.5t-79 34.5t-67.5 50t-28 78q0 64 49 101.5t127 37.5q82 0 156 -39l-28 -55q-62 37 -131 37
q-44 0 -71 -19.5t-27 -53.5q0 -33 28 -56.5t68 -39.5t80 -34t68 -50t28 -77z" />
    <glyph glyph-name="Scircumflex" unicode="&#x15c;" horiz-adv-x="479" 
d="M367 748h-55l-76 75l-75 -75h-55l82 122h95zM439 170q0 -84 -63 -133t-150 -49q-53 0 -104 16t-82 38q12 19 38 55q24 -19 69 -35t83 -16q55 0 92.5 31.5t37.5 87.5q0 42 -33 77.5t-80 62.5t-94.5 55.5t-80.5 71t-33 95.5q0 80 59.5 127.5t145.5 47.5q89 0 161 -47
l-30 -54q-22 15 -61.5 29t-73.5 14q-52 0 -86.5 -27t-34.5 -75q0 -43 33 -78.5t80 -62.5t94 -56t80 -73.5t33 -101.5z" />
    <glyph glyph-name="scircumflex" unicode="&#x15d;" horiz-adv-x="432" 
d="M349 568h-55l-76 75l-75 -75h-55l82 122h95zM391 135q0 -66 -53.5 -106.5t-135.5 -40.5q-92 0 -165 42l30 59q60 -44 138 -44q46 0 77.5 19.5t31.5 57.5q0 34 -28 58t-67.5 40.5t-79 34.5t-67.5 50t-28 78q0 64 49 101.5t127 37.5q82 0 156 -39l-28 -55q-62 37 -131 37
q-44 0 -71 -19.5t-27 -53.5q0 -33 28 -56.5t68 -39.5t80 -34t68 -50t28 -77z" />
    <glyph glyph-name="Scedilla" unicode="&#x15e;" horiz-adv-x="479" 
d="M439 170q0 -74 -50 -121.5t-125 -57.5l-30 -48q42 -1 71.5 -19.5t29.5 -56.5q0 -44 -33.5 -66.5t-78.5 -22.5q-53 0 -85 19l21 39q30 -17 62 -17q25 0 40.5 11.5t15.5 33.5q0 43 -88 43h-33q4 7 25.5 39t28.5 43q-105 5 -170 53q12 19 38 55q24 -19 69 -35t83 -16
q55 0 92.5 31.5t37.5 87.5q0 42 -33 77.5t-80 62.5t-94.5 55.5t-80.5 71t-33 95.5q0 80 59.5 127.5t145.5 47.5q89 0 161 -47l-30 -54q-22 15 -61.5 29t-73.5 14q-52 0 -86.5 -27t-34.5 -75q0 -43 33 -78.5t80 -62.5t94 -56t80 -73.5t33 -101.5z" />
    <glyph glyph-name="scedilla" unicode="&#x15f;" horiz-adv-x="432" 
d="M391 140q0 -63 -42 -101.5t-106 -47.5l-30 -48q42 -1 71.5 -19.5t29.5 -56.5q0 -44 -33.5 -66.5t-78.5 -22.5q-53 0 -85 19l21 39q30 -17 62 -17q25 0 40.5 11.5t15.5 33.5q0 43 -88 43h-33q4 7 25.5 38.5t28.5 42.5q-87 4 -152 42l30 59q60 -44 138 -44q47 0 78 19.5
t31 61.5q0 31 -28 54.5t-67.5 39.5t-79 34.5t-67.5 50.5t-28 77q0 66 49 103t129 37t154 -39l-28 -55q-62 37 -128 37q-46 0 -73.5 -19.5t-27.5 -51.5q0 -33 28 -57.5t68 -41t80 -34.5t68 -48.5t28 -72.5z" />
    <glyph glyph-name="Scaron" unicode="&#x160;" horiz-adv-x="476" 
d="M319 870h55l-84 -122h-95l-82 122h55l75 -75zM438 170q0 -84 -63 -133t-150 -49q-53 0 -104 16t-82 38q12 19 38 55q24 -19 69 -35t83 -16q55 0 92.5 31.5t37.5 87.5q0 42 -33 77.5t-80.5 62.5t-94.5 55.5t-80 71t-33 95.5q0 80 59.5 127.5t145.5 47.5q89 0 161 -47
l-30 -54q-22 15 -61.5 29t-73.5 14q-52 0 -86.5 -27t-34.5 -75q0 -43 33 -78.5t80 -62.5t94 -56t80 -73.5t33 -101.5z" />
    <glyph glyph-name="scaron" unicode="&#x161;" horiz-adv-x="429" 
d="M293 690h55l-84 -122h-95l-82 122h55l75 -75zM390 135q0 -66 -53.5 -106.5t-135.5 -40.5q-92 0 -165 42l30 59q60 -44 138 -44q46 0 77.5 19.5t31.5 57.5q0 34 -28 58t-67.5 40.5t-79 34.5t-67.5 50t-28 78q0 64 49 101.5t127 37.5q82 0 156 -39l-28 -55q-62 37 -131 37
q-44 0 -71 -19.5t-27 -53.5q0 -33 28 -56.5t68 -39.5t80 -34t68 -50t28 -77z" />
    <glyph glyph-name="Tcommaaccent" unicode="&#x162;" horiz-adv-x="486" 
d="M282 632v-632h-79v632h-191v58h461v-58h-191zM212 -151v87h83v-87l-42 -83h-44l37 83h-34z" />
    <glyph glyph-name="tcommaaccent" unicode="&#x163;" horiz-adv-x="377" 
d="M341 6q-38 -16 -96 -16q-60 0 -96.5 30.5t-36.5 115.5v318h-96v56h96v100l75 50v-150h140v-56h-140v-318q0 -89 73 -89q46 0 78 15zM139 -151v87h83v-87l-42 -83h-44l37 83h-34z" />
    <glyph glyph-name="Tcaron" unicode="&#x164;" horiz-adv-x="497" 
d="M318 870h55l-84 -122h-94l-83 122h55l75 -75zM484 632h-202v-632h-79v632h-191v58h452z" />
    <glyph glyph-name="tcaron" unicode="&#x165;" horiz-adv-x="345" 
d="M233 639v87h83v-87l-42 -83h-44l37 83h-34zM341 6q-38 -16 -96 -16q-60 0 -96.5 30.5t-36.5 115.5v318h-96v56h96v100l75 50v-150h140v-56h-140v-318q0 -89 73 -89q46 0 78 15z" />
    <glyph glyph-name="Tbar" unicode="&#x166;" horiz-adv-x="486" 
d="M282 632v-248h96v-58h-96v-326h-79v326h-95v58h95v248h-191v58h461v-58h-191z" />
    <glyph glyph-name="tbar" unicode="&#x167;" horiz-adv-x="364" 
d="M341 6q-38 -16 -96 -16q-60 0 -96.5 30.5t-36.5 115.5v118h-96v56h96v144h-96v56h96v100l75 50v-150h140v-56h-140v-144h140v-56h-140v-118q0 -89 73 -89q46 0 78 15z" />
    <glyph glyph-name="Utilde" unicode="&#x168;" horiz-adv-x="650" 
d="M384 834q26 0 41 38l41 -12q-7 -24 -31 -53t-60 -29q-25 0 -65 19t-51 19q-27 0 -42 -38l-40 12q6 23 30.5 51t60.5 28q23 0 61.5 -17.5t54.5 -17.5zM570 690v-502q0 -101 -65.5 -150.5t-179.5 -49.5q-115 0 -180 49t-65 151v502h79v-514q0 -65 48 -97.5t118 -32.5
t118 32.5t48 97.5v514h79z" />
    <glyph glyph-name="utilde" unicode="&#x169;" horiz-adv-x="562" 
d="M345 654q26 0 41 38l41 -12q-7 -24 -31 -53t-60 -29q-25 0 -65 19t-51 19q-27 0 -42 -38l-40 12q6 23 30.5 51t60.5 28q23 0 61.5 -17.5t54.5 -17.5zM75 510h75v-364q0 -48 26 -72t69 -24q79 0 165 72v388h75v-510h-73v70q-99 -82 -187 -82q-64 0 -107 37.5t-43 121.5
v363z" />
    <glyph glyph-name="Umacron" unicode="&#x16a;" horiz-adv-x="650" 
d="M450 771h-250v58h250v-58zM570 690v-502q0 -101 -65.5 -150.5t-179.5 -49.5q-115 0 -180 49t-65 151v502h79v-514q0 -65 48 -97.5t118 -32.5t118 32.5t48 97.5v514h79z" />
    <glyph glyph-name="umacron" unicode="&#x16b;" horiz-adv-x="562" 
d="M407 619h-250v56h250v-56zM75 510h75v-364q0 -48 26 -72t69 -24q79 0 165 72v388h75v-510h-73v70q-99 -82 -187 -82q-64 0 -107 37.5t-43 121.5v363z" />
    <glyph glyph-name="Ubreve" unicode="&#x16c;" horiz-adv-x="650" 
d="M455 871q0 -56 -35.5 -90t-94.5 -34t-94.5 34t-35.5 90h54q0 -32 21.5 -51t54.5 -19q32 0 54 19t22 51h54zM570 690v-502q0 -101 -65.5 -150.5t-179.5 -49.5q-115 0 -180 49t-65 151v502h79v-514q0 -65 48 -97.5t118 -32.5t118 32.5t48 97.5v514h79z" />
    <glyph glyph-name="ubreve" unicode="&#x16d;" horiz-adv-x="562" 
d="M412 690q0 -56 -35.5 -90t-94.5 -34t-94.5 34t-35.5 90h54q0 -32 21.5 -51t54.5 -19q32 0 54 19t22 51h54zM75 510h75v-364q0 -48 26 -72t69 -24q79 0 165 72v388h75v-510h-73v70q-99 -82 -187 -82q-64 0 -107 37.5t-43 121.5v363z" />
    <glyph glyph-name="Uring" unicode="&#x16e;" horiz-adv-x="650" 
d="M426 847q0 -42 -31 -72t-73 -30t-73 30t-31 72t31 72t73 30t73 -30t31 -72zM382 847q0 25 -17.5 43.5t-42.5 18.5t-42.5 -18.5t-17.5 -43.5t17.5 -43.5t42.5 -18.5t42.5 18.5t17.5 43.5zM570 690v-502q0 -101 -65.5 -150.5t-179.5 -49.5q-115 0 -180 49t-65 151v502h79
v-514q0 -65 48 -97.5t118 -32.5t118 32.5t48 97.5v514h79z" />
    <glyph glyph-name="uring" unicode="&#x16f;" horiz-adv-x="562" 
d="M386 667q0 -42 -31 -72t-73 -30t-73 30t-31 72t31 72t73 30t73 -30t31 -72zM342 667q0 25 -17.5 43.5t-42.5 18.5t-42.5 -18.5t-17.5 -43.5t17.5 -43.5t42.5 -18.5t42.5 18.5t17.5 43.5zM75 510h75v-364q0 -48 26 -72t69 -24q79 0 165 72v388h75v-510h-73v70
q-99 -82 -187 -82q-64 0 -107 37.5t-43 121.5v363z" />
    <glyph glyph-name="Uhungarumlaut" unicode="&#x170;" horiz-adv-x="650" 
d="M323 870l-65 -122h-63l50 122h78zM454 870l-65 -122h-63l50 122h78zM570 690v-502q0 -101 -65.5 -150.5t-179.5 -49.5q-115 0 -180 49t-65 151v502h79v-514q0 -65 48 -97.5t118 -32.5t118 32.5t48 97.5v514h79z" />
    <glyph glyph-name="uhungarumlaut" unicode="&#x171;" horiz-adv-x="562" 
d="M281 690l-65 -122h-63l50 122h78zM412 690l-65 -122h-63l50 122h78zM75 510h75v-364q0 -48 26 -72t69 -24q79 0 165 72v388h75v-510h-73v70q-99 -82 -187 -82q-64 0 -107 37.5t-43 121.5v363z" />
    <glyph glyph-name="Uogonek" unicode="&#x172;" horiz-adv-x="650" 
d="M397 -163v-40q-19 -6 -43 -6q-40 0 -64.5 19.5t-24.5 47.5q0 60 58 130q-116 7 -179.5 52.5t-63.5 147.5v502h79v-514q0 -65 48 -97.5t118 -32.5t118 32.5t48 97.5v514h79v-502q0 -87 -49.5 -136t-138.5 -60q-51 -67 -51 -119q0 -39 48 -39q9 0 18 3z" />
    <glyph glyph-name="uogonek" unicode="&#x173;" horiz-adv-x="562" 
d="M485 -163v-41q-23 -5 -43 -5q-41 0 -65 19.5t-24 47.5q0 21 7.5 44.5t16 39t20.5 34.5t15 24v70q-99 -82 -187 -82q-64 0 -107 37.5t-43 121.5v363h75v-364q0 -48 26 -72t69 -24q79 0 165 72v388h75v-510q-30 -28 -48 -63.5t-18 -64.5q0 -38 48 -38q9 0 18 3z" />
    <glyph glyph-name="Wcircumflex" unicode="&#x174;" horiz-adv-x="931" 
d="M596 748h-55l-76 75l-75 -75h-55l83 122h94zM912 690l-194 -690h-98l-156 587l-153 -587h-100l-192 690h79q54 -208 164 -624q54 208 164 624h79l164 -624q110 416 164 624h79z" />
    <glyph glyph-name="wcircumflex" unicode="&#x175;" horiz-adv-x="801" 
d="M533 568h-55l-76 75l-75 -75h-55l82 122h95zM535 0l-137 435l-132 -435h-85l-161 510h80l125 -436h1l135 436h82l135 -434l129 434h74l-161 -510h-85z" />
    <glyph glyph-name="Ycircumflex" unicode="&#x176;" horiz-adv-x="542" 
d="M401 748h-55l-76 75l-75 -75h-55l83 122h94zM530 690l-220 -395v-295h-79v295l-220 395h86l176 -322l176 322h81z" />
    <glyph glyph-name="ycircumflex" unicode="&#x177;" horiz-adv-x="515" 
d="M391 568h-55l-76 75l-75 -75h-55l82 122h95zM20 510h81l153 -454l162 454h81l-269 -720h-77l82 210h-30z" />
    <glyph glyph-name="Ydieresis" unicode="&#x178;" horiz-adv-x="539" 
d="M228 761h-75v101h75v-101zM393 761h-75v101h75v-101zM529 690l-220 -395v-295h-79v295l-220 395h86l176 -322l176 322h81z" />
    <glyph glyph-name="Zacute" unicode="&#x179;" horiz-adv-x="533" 
d="M343 870l-65 -122h-66l50 122h81zM508 58l-16 -58h-458v60l370 572h-356v58h441v-60l-371 -572h390z" />
    <glyph glyph-name="zacute" unicode="&#x17a;" horiz-adv-x="440" 
d="M285 690l-65 -122h-66l50 122h81zM419 57v-57h-388v60l300 393h-286v57h366v-60l-300 -393h308z" />
    <glyph glyph-name="Zdotaccent" unicode="&#x17b;" horiz-adv-x="533" 
d="M315 830q0 -21 -15 -35.5t-35 -14.5q-21 0 -35.5 14.5t-14.5 35.5q0 20 14.5 35t35.5 15q20 0 35 -15t15 -35zM508 58l-16 -58h-458v60l370 572h-356v58h441v-60l-371 -572h390z" />
    <glyph glyph-name="zdotaccent" unicode="&#x17c;" horiz-adv-x="440" 
d="M257 590h-75v100h75v-100zM419 57v-57h-388v60l300 393h-286v57h366v-60l-300 -393h308z" />
    <glyph glyph-name="Zcaron" unicode="&#x17d;" horiz-adv-x="523" 
d="M333 870h55l-84 -122h-95l-82 122h55l75 -75zM499 58v-58h-466v60l370 572h-356v58h441v-60l-371 -572h382z" />
    <glyph glyph-name="zcaron" unicode="&#x17e;" horiz-adv-x="437" 
d="M294 690h55l-84 -122h-95l-82 122h55l75 -75zM418 57v-57h-388v60l300 393h-286v57h366v-60l-300 -393h308z" />
    <glyph glyph-name="longs" unicode="&#x17f;" horiz-adv-x="245" 
d="M342 715v-62q-32 10 -66 10q-87 0 -87 -116v-547h-75v545q0 86 41.5 132.5t123.5 46.5q29 0 63 -9z" />
    <glyph glyph-name="uni0180" unicode="&#x180;" horiz-adv-x="568" 
d="M527 280q0 -137 -88.5 -214.5t-212.5 -77.5q-78 0 -154 16v580h-51v56h51v65l77 21v-86h122v-56h-122v-115q73 53 158 53q96 0 158 -64.5t62 -177.5zM449 275q0 89 -45.5 138t-116.5 49q-65 0 -138 -50v-354q40 -11 88 -11q86 0 149 60t63 168z" />
    <glyph glyph-name="uni0181" unicode="&#x181;" horiz-adv-x="654" 
d="M618 192q0 -100 -69 -146t-180 -46h-193v632h-37q-40 0 -55 -15.5t-15 -51.5q0 -21 7 -46l-63 -20q-13 45 -13 74q0 66 36.5 91.5t119.5 25.5h214q233 0 233 -167q0 -130 -131 -162v-2q146 -31 146 -167zM524 514q0 118 -142 118h-127v-249h75q194 0 194 131zM539 192
q0 134 -183 134h-101v-268h116q78 0 123 33.5t45 100.5z" />
    <glyph glyph-name="uni0182" unicode="&#x182;" horiz-adv-x="584" 
d="M543 202q0 -72 -41.5 -122t-100 -71t-126.5 -21q-81 0 -193 19v683h390v-58h-311v-251q73 23 147 23q109 0 172 -53t63 -149zM463 201q0 67 -46 104t-127 37q-76 0 -129 -18v-265q54 -14 119 -14q76 0 129.5 40.5t53.5 115.5z" />
    <glyph glyph-name="uni0183" unicode="&#x183;" horiz-adv-x="576" 
d="M76 690h388v-58h-311v-163q73 53 158 53q96 0 158 -64.5t62 -177.5q0 -137 -88.5 -214.5t-212.5 -77.5q-78 0 -154 16v686zM453 275q0 89 -45.5 138t-116.5 49q-65 0 -138 -50v-354q40 -11 88 -11q86 0 149 60t63 168z" />
    <glyph glyph-name="uni0184" unicode="&#x184;" horiz-adv-x="589" 
d="M87 523l-80 76v16l136 94h23v-328q73 23 147 23q109 0 172 -53t63 -149q0 -72 -41.5 -122t-100 -71t-126.5 -21q-81 0 -193 19v516zM468 201q0 67 -46 104t-127 37q-76 0 -129 -18v-265q54 -14 119 -14q76 0 129.5 40.5t53.5 115.5z" />
    <glyph glyph-name="uni0185" unicode="&#x185;" horiz-adv-x="581" 
d="M81 531l-80 76v16l136 94h21v-248q73 53 158 53q96 0 158 -64.5t62 -177.5q0 -137 -88.5 -214.5t-212.5 -77.5q-78 0 -154 16v527zM458 275q0 89 -45.5 138t-116.5 49q-66 0 -138 -50v-354q40 -11 88 -11q86 0 149 60t63 168z" />
    <glyph glyph-name="uni0186" unicode="&#x186;" horiz-adv-x="566" 
d="M17 15l22 59q55 -27 131 -27q124 0 199 85.5t75 210.5q0 131 -72.5 215.5t-189.5 84.5q-74 0 -132 -25l-21 58q72 26 160 26q150 0 242 -98.5t92 -255.5q0 -162 -103 -261t-248 -99q-84 0 -155 27z" />
    <glyph glyph-name="uni0187" unicode="&#x187;" horiz-adv-x="550" 
d="M522 70l19 -57q-69 -25 -155 -25q-150 0 -246.5 101.5t-96.5 258.5q0 161 100.5 257.5t245.5 96.5q41 0 88 -9q5 73 35 106t94 33q43 0 80 -11l-16 -57q-27 6 -48 6q-48 0 -63 -32t-15 -129q-91 34 -158 34q-121 0 -192.5 -85t-71.5 -211q0 -131 76 -215.5t196 -84.5
q75 0 128 23z" />
    <glyph glyph-name="uni0188" unicode="&#x188;" horiz-adv-x="429" 
d="M422 15q-54 -27 -121 -27q-112 0 -184 72t-72 191q0 118 73 194.5t181 76.5q22 0 47 -5q6 64 33.5 92t82.5 28q38 0 75 -11l-16 -57q-24 6 -43 6q-37 0 -52 -22.5t-15 -83.5v-32q-62 26 -114 26q-76 0 -125 -60t-49 -149t49 -147.5t139 -58.5q48 0 86 17z" />
    <glyph glyph-name="uni0189" unicode="&#x189;" horiz-adv-x="693" 
d="M652 351q0 -168 -99 -259.5t-273 -91.5h-202v326h-58v58h58v306h212q168 0 265 -88.5t97 -250.5zM278 326h-121v-268h126q133 0 210.5 75t77.5 214q0 133 -78 209t-203 76h-133v-248h121v-58z" />
    <glyph glyph-name="uni018A" unicode="&#x18a;" horiz-adv-x="792" 
d="M751 351q0 -168 -99 -259.5t-273 -91.5h-202v632h-38q-40 0 -55 -15.5t-15 -51.5q0 -21 7 -46l-63 -20q-13 45 -13 74q0 66 36.5 91.5t119.5 25.5h200q188 0 291.5 -83.5t103.5 -255.5zM670 347q0 133 -78 209t-203 76h-133v-574h126q133 0 210.5 75t77.5 214z" />
    <glyph glyph-name="uni018B" unicode="&#x18b;" horiz-adv-x="587" 
d="M43 192q0 96 68 154t176 58q66 0 139 -19v247h-311v58h390v-682q-120 -20 -206 -20q-112 0 -184 49.5t-72 154.5zM124 194q0 -75 51 -112t132 -37q63 0 119 14v265q-50 18 -132 18t-126 -39.5t-44 -108.5z" />
    <glyph glyph-name="uni018C" unicode="&#x18c;" horiz-adv-x="576" 
d="M423 632h-307v58h383v-690h-76v50q-72 -62 -155 -62q-96 0 -159.5 68.5t-63.5 186.5q0 126 72.5 202.5t176.5 76.5q73 0 129 -39v149zM423 95v334q-57 34 -124 34q-72 0 -124.5 -57.5t-52.5 -157.5q0 -96 47.5 -148.5t114.5 -52.5q70 0 139 48z" />
    <glyph glyph-name="uni018D" unicode="&#x18d;" horiz-adv-x="583" 
d="M538 262q0 -115 -66 -189.5t-172 -75.5l185 -143v-51h-391v58h276l-138 104q-41 31 -60.5 46.5t-49 45.5t-42.5 56t-24 64.5t-11 83.5q0 112 68 186.5t181 74.5q108 0 176 -73t68 -187zM462 259q0 84 -47.5 144t-124.5 60q-72 0 -120.5 -58.5t-48.5 -145.5
q0 -86 45 -149.5t125 -63.5q79 0 125 64t46 149z" />
    <glyph glyph-name="uni018E" unicode="&#x18e;" horiz-adv-x="503" 
d="M19 0v58h323v268h-261v58h261v248h-293l-5 58h377v-690h-402z" />
    <glyph glyph-name="uni018F" unicode="&#x18f;" horiz-adv-x="757" 
d="M164 527l-64 38q46 64 119 100.5t155 36.5q142 0 241 -101t99 -257t-97 -256t-238 -100t-238.5 100t-97.5 256q0 4 0.5 10.5t0.5 9.5h589q-6 118 -78 199t-181 81q-66 0 -121 -31.5t-89 -85.5zM379 46q103 0 172 73.5t80 185.5h-505q12 -112 80.5 -185.5t172.5 -73.5z
" />
    <glyph glyph-name="uni0190" unicode="&#x190;" horiz-adv-x="569" 
d="M63 191q0 82 46 127.5t113 62.5q-53 20 -86.5 58.5t-33.5 93.5q0 74 61.5 121.5t164.5 47.5q154 0 215 -101l-64 -29q-23 31 -65 50.5t-94 19.5q-63 0 -101.5 -30.5t-38.5 -81.5q0 -59 50.5 -95t131.5 -36h65v-59h-100q-81 0 -134.5 -34.5t-53.5 -107.5q0 -75 54 -114
t134 -39q100 0 182 52l43 -48q-35 -28 -98 -44.5t-130 -16.5q-114 0 -187.5 51t-73.5 152z" />
    <glyph glyph-name="uni0191" unicode="&#x191;" horiz-adv-x="477" 
d="M139 321v-349q0 -101 -36 -141.5t-107 -40.5q-41 0 -69 9l17 61q24 -7 41 -7q44 0 59.5 24.5t15.5 96.5v716h400v-58h-321v-253h280v-58h-280z" />
    <glyph glyph-name="florin" unicode="&#x192;" horiz-adv-x="577" 
d="M231 314h-111v58h111v145q0 86 41.5 132t123.5 46q59 0 111 -28l-23 -51q-44 19 -91 19q-88 0 -88 -117v-146h135v-58h-135v-358q0 -86 -41.5 -132t-123.5 -46q-59 0 -111 28l23 51q44 -19 91 -19q88 0 88 117v359z" />
    <glyph glyph-name="uni0193" unicode="&#x193;" horiz-adv-x="655" 
d="M392 46q72 0 139 23v260l74 16v-312q-92 -45 -217 -45q-152 0 -248.5 101t-96.5 258q0 161 100 258t246 97q80 0 145 -21q5 81 34.5 116t97.5 35q43 0 80 -11l-16 -57q-27 6 -48 6q-45 0 -61.5 -30t-16.5 -115v-39q-128 58 -217 58q-122 0 -193.5 -86t-71.5 -212
q0 -132 75.5 -216t194.5 -84z" />
    <glyph glyph-name="uni0194" unicode="&#x194;" horiz-adv-x="576" 
d="M288 -205q-117 0 -117 119q0 42 24 97l51 119l-238 560h80l204 -482l200 482h76l-239 -560l52 -119q24 -55 24 -97q0 -119 -117 -119zM304 -5l-16 51l-18 -51q-21 -61 -21 -84q0 -26 10.5 -40.5t28.5 -14.5t28.5 14.5t10.5 40.5q0 36 -23 84z" />
    <glyph glyph-name="uni0195" unicode="&#x195;" horiz-adv-x="891" 
d="M495 134q0 -45 34.5 -67.5t87.5 -22.5q56 0 89.5 25t33.5 65v376h75v-368q0 -76 -55 -114t-143 -38q-87 0 -142 38t-55 114v222q0 45 -25.5 71t-68.5 26q-71 0 -172 -73v-388h-77v699l77 27v-286q105 82 193 82q65 0 106.5 -37.5t41.5 -122.5v-228z" />
    <glyph glyph-name="uni0196" unicode="&#x196;" horiz-adv-x="300" 
d="M220 53v-56q-28 -5 -46 -5q-51 0 -72.5 32.5t-21.5 104.5v576l77 21v-599q0 -75 48 -75q10 0 15 1z" />
    <glyph glyph-name="uni0197" unicode="&#x197;" horiz-adv-x="216" 
d="M12 327v58h57v305h79v-305h57v-58h-57v-327h-79v327h-57z" />
    <glyph glyph-name="uni0198" unicode="&#x198;" horiz-adv-x="581" 
d="M75 0v520q0 101 35.5 141.5t106.5 40.5q41 0 69 -9l-17 -61q-24 7 -41 7q-43 0 -58.5 -24.5t-15.5 -96.5v-518h-79zM503 0l-319 352l294 338h89l-291 -330l324 -360h-97z" />
    <glyph glyph-name="uni0199" unicode="&#x199;" horiz-adv-x="490" 
d="M76 0v544q0 102 34.5 142t105.5 40q41 0 69 -9l-17 -61q-24 7 -41 7q-43 0 -58.5 -24.5t-15.5 -96.5v-542h-77zM413 0l-239 281l220 229h87l-218 -228l243 -282h-93z" />
    <glyph glyph-name="uni019A" unicode="&#x19a;" horiz-adv-x="211" 
d="M11 327v58h57v320l77 21v-341h56v-58h-56v-327h-77v327h-57z" />
    <glyph glyph-name="uni019B" unicode="&#x19b;" horiz-adv-x="538" 
d="M69 619l103 42l-39 93h82l25 -64l96 40l19 -51l-94 -40l259 -639h-81l-168 428l-175 -428h-77l216 515l-41 95l-107 -46z" />
    <glyph glyph-name="uni019C" unicode="&#x19c;" horiz-adv-x="916" 
d="M418 690h79v-544q0 -96 82 -96q76 0 176 73v567h79v-690h-77v70q-112 -82 -199 -82q-104 0 -130 87q-121 -87 -207 -87q-62 0 -100.5 37t-38.5 122v543h79v-544q0 -96 82 -96q75 0 175 73v567z" />
    <glyph glyph-name="uni019D" unicode="&#x19d;" horiz-adv-x="717" 
d="M158 615v-643q0 -102 -34.5 -142t-105.5 -40q-40 0 -68 9l17 61q24 -7 40 -7q43 0 59 24.5t16 96.5v716h114l362 -594h1v594h76v-690h-100q-125 205 -377 615z" />
    <glyph glyph-name="uni019E" unicode="&#x19e;" horiz-adv-x="568" 
d="M493 -210h-75v574q0 45 -25.5 71t-68.5 26q-71 0 -172 -73v-388h-75v510h75v-70q105 82 194 82q65 0 106 -38t41 -122v-572z" />
    <glyph glyph-name="uni019F" unicode="&#x19f;" horiz-adv-x="757" 
d="M43 345q0 156 97.5 256.5t238.5 100.5t238 -100.5t97 -256.5t-97 -256.5t-238 -100.5t-238.5 100.5t-97.5 256.5zM379 644q-104 0 -173 -74t-81 -186h506q-11 112 -80 186t-172 74zM379 46q108 0 178.5 80.5t75.5 199.5h-509q5 -119 75.5 -199.5t179.5 -80.5z" />
    <glyph glyph-name="Ohorn" unicode="&#x1a0;" horiz-adv-x="759" 
d="M379 702q6 0 106 -6t152 -6q39 0 52.5 17t13.5 60q0 25 -5 52h66q9 -59 9 -72q0 -58 -27 -83t-87 -25q-27 0 -92 5q68 -47 107.5 -125t39.5 -174q0 -156 -97 -256.5t-238 -100.5t-238.5 100.5t-97.5 256.5t97.5 256.5t238.5 100.5zM379 46q113 0 184 87t71 212
q0 126 -71 212.5t-184 86.5t-184 -86.5t-71 -212.5q0 -125 71 -212t184 -87z" />
    <glyph glyph-name="ohorn" unicode="&#x1a1;" horiz-adv-x="591" 
d="M292 -12q-109 0 -178 77t-69 190q0 116 68.5 191.5t178.5 75.5h11q21 0 82 -6t90 -6q39 0 52.5 17t13.5 60q0 25 -5 52h66q9 -59 9 -72q0 -58 -27 -83t-87 -25q-20 0 -44 4q86 -75 86 -208q0 -113 -69 -190t-178 -77zM292 47q83 0 126.5 63t43.5 145q0 83 -46 145.5
t-124 62.5t-124 -62.5t-46 -145.5q0 -82 43.5 -145t126.5 -63z" />
    <glyph glyph-name="uni01A2" unicode="&#x1a2;" horiz-adv-x="847" 
d="M765 701v-900h-77v807h-95v-554q-87 -66 -206 -66q-151 0 -247.5 97.5t-96.5 252.5q0 162 93.5 262.5t247.5 100.5q98 0 190 -50l176 50h15zM517 81v527q-63 34 -131 34q-122 0 -192.5 -84t-70.5 -221q0 -129 73 -210t189 -81q76 0 132 35z" />
    <glyph glyph-name="uni01A3" unicode="&#x1a3;" horiz-adv-x="669" 
d="M432 31q-69 -43 -143 -43q-109 0 -176.5 74t-67.5 193q0 120 68 193.5t176 73.5q70 0 135 -37q95 21 161 37h7v-732h-71v655h-89v-414zM289 47q41 0 72 16v382q-32 18 -72 18q-78 0 -124.5 -59.5t-46.5 -149.5q0 -87 45 -147t126 -60z" />
    <glyph glyph-name="uni01A4" unicode="&#x1a4;" horiz-adv-x="635" 
d="M601 495q0 -96 -59 -148t-152 -52h-134v-295h-79v632h-38q-40 0 -55 -15.5t-15 -51.5q0 -21 7 -46l-63 -20q-13 45 -13 74q0 66 36.5 91.5t119.5 25.5h236q100 0 154.5 -52t54.5 -143zM520 495q0 61 -33 99.5t-93 38.5h-138v-281h136q55 0 91.5 38t36.5 105z" />
    <glyph glyph-name="uni01A5" unicode="&#x1a5;" horiz-adv-x="574" 
d="M77 -210v768q0 91 35 129.5t109 38.5q42 0 75 -9l-15 -61q-21 5 -46 5q-48 0 -64.5 -21.5t-16.5 -86.5v-88q69 57 161 57q94 0 155.5 -63.5t61.5 -175.5q0 -135 -84.5 -215t-206.5 -80q-47 0 -87 10v-208h-77zM454 274q0 92 -45 140t-114 48q-66 0 -141 -50v-350
q36 -15 92 -15q87 0 147.5 61.5t60.5 165.5z" />
    <glyph glyph-name="uni01A6" unicode="&#x1a6;" horiz-adv-x="544" 
d="M566 -156h-89l-212 361h-104v-205h-79v690h79v-100h124q108 0 162.5 -48.5t54.5 -138.5q0 -81 -44.5 -128t-113.5 -62zM423 399q0 62 -34.5 97.5t-102.5 35.5h-125v-269h120q64 0 103 34.5t39 101.5z" />
    <glyph glyph-name="uni01A7" unicode="&#x1a7;" horiz-adv-x="479" 
d="M45 169q0 66 40.5 112.5t128.5 98.5q38 22 57 34.5t45 34t37.5 44t11.5 48.5q0 47 -34.5 75t-83.5 28q-74 0 -140 -41l-29 53q73 46 161 46q87 0 146.5 -47.5t59.5 -127.5q0 -53 -33 -95t-80.5 -70.5t-94.5 -55.5t-80 -63.5t-33 -80.5q0 -53 37.5 -84.5t92.5 -31.5
q38 0 82.5 15.5t70.5 33.5l37 -53q-31 -23 -82.5 -38.5t-101.5 -15.5q-89 0 -152 49t-63 132z" />
    <glyph glyph-name="uni01A8" unicode="&#x1a8;" horiz-adv-x="429" 
d="M44 137q0 44 28 75.5t68 49.5t80 34t68 40t28 57t-28 51.5t-74 18.5q-59 0 -128 -33l-27 52q72 40 152 40q79 0 129.5 -37.5t50.5 -102.5q0 -45 -28 -77t-67.5 -50t-79 -34.5t-67.5 -40t-28 -55.5q0 -38 31 -58t76 -20q77 0 141 38l29 -55q-75 -42 -167 -42
q-78 0 -132.5 40t-54.5 109z" />
    <glyph glyph-name="uni01A9" unicode="&#x1a9;" horiz-adv-x="517" 
d="M499 58v-58h-449v61l240 288l-240 278v63h421q-1 -20 -5 -58h-326l210 -243q16 -34 25 -50q-11 -13 -100 -119.5t-136 -161.5h360z" />
    <glyph glyph-name="uni01AA" unicode="&#x1aa;" horiz-adv-x="349" 
d="M358 -140l17 -61q-28 -9 -69 -9q-71 0 -105.5 40t-34.5 142v593q-18 -18 -52 -18q-38 0 -63.5 26.5t-25.5 65.5q0 36 26 62.5t62 26.5q61 0 95 -41.5t34 -117.5v-595q0 -72 15.5 -96.5t59.5 -24.5q17 0 41 7zM166 638q0 22 -14.5 37.5t-37.5 15.5t-37.5 -15t-14.5 -37
q0 -24 14 -39.5t38 -15.5q22 0 37 15t15 39z" />
    <glyph glyph-name="uni01AB" unicode="&#x1ab;" horiz-adv-x="342" 
d="M205 -88q37 0 51.5 17t17.5 62q-9 -1 -29 -1q-60 0 -96.5 30.5t-36.5 115.5v316h-96v58h96v100l75 50v-150h140v-58h-140v-316q0 -89 73 -89q48 0 83 14v-54q0 -87 -27 -122t-95 -35q-38 0 -75 11l16 57q24 -6 43 -6z" />
    <glyph glyph-name="uni01AC" unicode="&#x1ac;" horiz-adv-x="518" 
d="M225 632h-86q-40 0 -55 -15.5t-15 -51.5q0 -21 7 -46l-63 -20q-13 45 -13 74q0 66 36.5 91.5t119.5 25.5h349v-58h-201v-632h-79v632z" />
    <glyph glyph-name="uni01AD" unicode="&#x1ad;" horiz-adv-x="339" 
d="M112 510v15q0 101 34 139t105 38q41 0 69 -9l-17 -61q-24 7 -41 7q-44 0 -59.5 -22.5t-15.5 -93.5v-13h140v-58h-140v-316q0 -89 73 -89q21 0 45 5.5t32 11.5l3 -54q-38 -20 -95 -20q-60 0 -96.5 30.5t-36.5 115.5v316h-96v58h96z" />
    <glyph glyph-name="uni01AE" unicode="&#x1ae;" horiz-adv-x="506" 
d="M292 632v-658q0 -72 16 -96.5t59 -24.5q17 0 41 7l17 -61q-28 -9 -69 -9q-71 0 -107 40.5t-36 141.5v660h-201v58h481v-58h-201z" />
    <glyph glyph-name="Uhorn" unicode="&#x1af;" horiz-adv-x="662" 
d="M586 690q38 0 51.5 17t13.5 60q0 25 -5 52h66q9 -47 9 -72q0 -108 -114 -108q-10 0 -27 1v-439q0 -101 -69 -157t-182 -56q-112 0 -180.5 55t-68.5 158v489h79v-501q0 -67 49 -105t122 -38q75 0 123 38t48 105v501h85z" />
    <glyph glyph-name="uhorn" unicode="&#x1b0;" horiz-adv-x="559" 
d="M75 510h75v-364q0 -97 95 -97q71 0 165 73v388h67q42 0 54 16t12 61q0 25 -5 52h66q9 -47 9 -72q0 -61 -29 -84t-99 -23v-460h-73v72q-105 -84 -185 -84q-68 0 -110 37t-42 122v363z" />
    <glyph glyph-name="uni01B1" unicode="&#x1b1;" horiz-adv-x="754" 
d="M377 46q107 0 181 79t74 203q0 189 -177 304v58h239v-58h-144q162 -129 162 -307q0 -152 -99.5 -244.5t-235.5 -92.5t-235.5 92.5t-99.5 244.5q0 179 163 307h-145v58h239v-58q-177 -115 -177 -304q0 -124 74 -203t181 -79z" />
    <glyph glyph-name="uni01B2" unicode="&#x1b2;" horiz-adv-x="727" 
d="M644 464q0 -139 -18.5 -232.5t-57 -146.5t-90.5 -75t-126 -22q-140 0 -205.5 75.5t-65.5 238.5v388h79v-387q0 -129 47 -191.5t148 -62.5q73 0 117.5 35.5t69.5 130.5t25 258q0 87 -19.5 125.5t-71.5 38.5q-22 0 -52 -5l-13 61q43 9 81 9q79 0 115.5 -57.5t36.5 -180.5z
" />
    <glyph glyph-name="uni01B3" unicode="&#x1b3;" horiz-adv-x="601" 
d="M208 595l124 -227l176 322h81l-220 -395v-295h-79v295l-153 274q-36 66 -71 66q-25 0 -80 -37l-33 51q79 53 125 53q43 0 70.5 -25t59.5 -82z" />
    <glyph glyph-name="uni01B4" unicode="&#x1b4;" horiz-adv-x="526" 
d="M254 56l129 359q20 57 49 82t74 25q51 0 131 -53l-34 -52q-58 39 -88 39q-39 0 -64 -67l-223 -599h-77l82 210h-30l-183 510h81z" />
    <glyph glyph-name="uni01B5" unicode="&#x1b5;" horiz-adv-x="530" 
d="M505 58v-58h-471v60l172 266h-165v57h202l161 249h-356v58h441v-60l-160 -247h171v-57h-208l-174 -268h387z" />
    <glyph glyph-name="uni01B6" unicode="&#x1b6;" horiz-adv-x="446" 
d="M39 238v58h171l120 157h-285v57h366v-60l-117 -154h126v-58h-171q-45 -61 -137 -181h313v-57h-394v60l135 178h-127z" />
    <glyph glyph-name="uni01B7" unicode="&#x1b7;" horiz-adv-x="566" 
d="M278 364q-26 0 -68 -14l-15 43q9 10 209 239h-342v58h423v-59l-182 -211q85 -6 143 -58.5t58 -141.5q0 -103 -72 -167t-180 -64q-63 0 -119 31.5t-87 89.5l54 31q26 -41 68.5 -67.5t90.5 -26.5q70 0 119 45.5t49 122.5q0 64 -43 106.5t-106 42.5z" />
    <glyph glyph-name="uni01B8" unicode="&#x1b8;" horiz-adv-x="546" 
d="M284 364q-63 0 -106 -42.5t-43 -106.5q0 -77 48.5 -122.5t118.5 -45.5q48 0 90.5 26t68.5 68l55 -31q-31 -58 -87.5 -89.5t-118.5 -31.5q-108 0 -180.5 64t-72.5 167q0 89 58 141.5t143 58.5l-181 211v59h423v-58h-342q9 -10 209 -239l-16 -43q-42 14 -67 14z" />
    <glyph glyph-name="uni01B9" unicode="&#x1b9;" horiz-adv-x="508" 
d="M283 194q-63 0 -104.5 -40.5t-41.5 -110.5q0 -76 47.5 -123t116.5 -47q45 0 85 22t60 59l52 -23q-22 -54 -77 -86t-115 -32q-104 0 -175.5 66t-71.5 171q0 90 58.5 144t141.5 54h10l-172 210v52h386v-57h-301q31 -38 94 -113.5t94 -113.5l-15 -46q-48 14 -72 14z" />
    <glyph glyph-name="uni01BA" unicode="&#x1ba;" horiz-adv-x="496" 
d="M413 -59l72 -12q-21 -70 -86.5 -108t-163.5 -38q-105 0 -164 40t-59 109q0 64 45.5 92.5t178.5 62.5q33 8 52.5 14t40 15.5t30 22t9.5 28.5q0 60 -185 63v67q30 26 90 79t90 79q-102 -4 -121 -4h-206v59h422v-49l-195 -169q98 -9 137 -37.5t39 -82.5q0 -64 -49 -96.5
t-150 -55.5q-97 -22 -126 -38.5t-29 -52.5q0 -44 44 -66t105 -22q67 0 118.5 27.5t60.5 72.5z" />
    <glyph glyph-name="uni01BB" unicode="&#x1bb;" horiz-adv-x="592" 
d="M484 0h-399v60l222 266h-254v57h298q53 75 53 136q0 51 -33.5 87t-86.5 36q-44 0 -84.5 -27.5t-61.5 -67.5l-65 26q31 60 89 94.5t130 34.5q83 0 137 -52t54 -131q0 -64 -47 -136h92v-57h-133l-226 -268h315v-58z" />
    <glyph glyph-name="uni01BC" unicode="&#x1bc;" horiz-adv-x="557" 
d="M510 230q0 -107 -68.5 -174.5t-174.5 -67.5q-92 0 -152.5 50.5t-72.5 136.5l73 8q13 -62 54.5 -100t97.5 -38q73 0 120.5 48.5t47.5 128.5q0 77 -46 120.5t-123 43.5h-131v239h-94v65h434v-65h-264v-176h79q96 0 158 -61t62 -158z" />
    <glyph glyph-name="uni01BD" unicode="&#x1bd;" horiz-adv-x="459" 
d="M423 147q0 -69 -53 -114t-138 -45q-171 0 -203 148l69 14q14 -49 49.5 -77.5t85.5 -28.5q51 0 85 30t34 76q0 57 -39 81.5t-117 24.5h-83v195h-86v59h377v-59h-222v-139q130 0 185.5 -37.5t55.5 -127.5z" />
    <glyph glyph-name="uni01BE" unicode="&#x1be;" horiz-adv-x="492" 
d="M450 149q0 -71 -58.5 -116t-148.5 -45q-183 0 -218 156l71 12q23 -108 147 -108q59 0 95 24t36 67q0 35 -23 54t-93 36q-102 24 -135.5 56t-33.5 100v67h-66v58h66v99q13 10 39 28t32 22v-149h94v-58h-94v-57q0 -37 16 -54.5t64 -31.5q24 -8 63 -20.5t54.5 -18.5
t38.5 -17.5t31.5 -24t15.5 -32.5t7 -47z" />
    <glyph glyph-name="uni01BF" unicode="&#x1bf;" horiz-adv-x="579" 
d="M532 289q0 -32 -6 -61t-13.5 -52t-26 -46.5t-32.5 -40t-44.5 -37.5t-50.5 -34t-61.5 -34t-66.5 -33.5t-77 -36.5v-124h-77v720h77v-54q57 66 153 66q104 0 164.5 -61.5t60.5 -171.5zM454 290q0 82 -41.5 127t-113.5 45q-145 0 -145 -214v-269q79 36 127 63t91.5 64
t62.5 81.5t19 102.5z" />
    <glyph glyph-name="clickdental" unicode="&#x1c0;" horiz-adv-x="265" 
d="M165 728v-728h-64v728h64z" />
    <glyph glyph-name="clicklateral" unicode="&#x1c1;" horiz-adv-x="418" 
d="M318 728v-728h-64v728h64zM165 728v-728h-64v728h64z" />
    <glyph glyph-name="uni01C2" unicode="&#x1c2;" horiz-adv-x="576" 
d="M524 286v-69h-204v-217h-65v217h-203v69h203v135h-203v68h203v239h65v-239h204v-68h-204v-135h204z" />
    <glyph glyph-name="uni01C3" unicode="&#x1c3;" horiz-adv-x="232" 
d="M72 690h87q0 -75 -4.5 -159.5t-11 -185t-9.5 -159.5h-37q-3 51 -10 157t-11 188.5t-4 158.5zM74 0v85h85v-85h-85z" />
    <glyph glyph-name="uni01C4" unicode="&#x1c4;" horiz-adv-x="1192" 
d="M1005 865h55l-84 -122h-95l-82 122h55l75 -75zM656 354q0 -172 -98.5 -263t-273.5 -91h-202v690h212q168 0 265 -88.5t97 -247.5zM1167 58v-58h-466v60l370 572h-356v58h441v-60l-371 -572h382zM575 350q0 130 -78.5 206t-202.5 76h-133v-574h126q134 0 211 75t77 217z
" />
    <glyph glyph-name="uni01C5" unicode="&#x1c5;" horiz-adv-x="1137" 
d="M656 354q0 -172 -98.5 -263t-273.5 -91h-202v690h212q168 0 265 -88.5t97 -247.5zM995 690h55l-84 -122h-95l-82 122h55l75 -75zM575 350q0 130 -78.5 206t-202.5 76h-133v-574h126q134 0 211 75t77 217zM1116 57v-57h-388v60l300 393h-286v57h366v-60l-300 -393h308z
" />
    <glyph glyph-name="uni01C6" unicode="&#x1c6;" horiz-adv-x="1021" 
d="M420 476v229l75 21v-726h-75v49q-78 -61 -153 -61q-92 0 -157 67t-65 197q0 119 72.5 194.5t169.5 75.5q72 0 133 -46zM881 690h55l-84 -122h-95l-82 122h55l75 -75zM1000 57v-57h-388v60l300 393h-286v57h366v-60l-300 -393h308zM420 100v319q-60 44 -126 44
q-70 0 -121 -57.5t-51 -156.5q0 -94 47 -148t113 -54q65 0 138 53z" />
    <glyph glyph-name="uni01C7" unicode="&#x1c7;" horiz-adv-x="845" 
d="M765 690v-545q0 -78 -47 -117t-125 -39q-73 0 -115 20l19 58q32 -20 93 -20q96 0 96 92v551h79zM451 58v-58h-369v690h79v-632h290z" />
    <glyph glyph-name="uni01C8" unicode="&#x1c8;" horiz-adv-x="698" 
d="M451 58v-58h-369v690h79v-632h290zM629 590h-75v100h75v-100zM629 510v-472q0 -76 -18 -128.5t-40 -76.5t-63 -55l-41 50q46 40 66.5 82.5t20.5 128.5v471h75z" />
    <glyph glyph-name="uni01C9" unicode="&#x1c9;" horiz-adv-x="471" 
d="M155 0h-75v705l75 21v-726zM394 590h-75v100h75v-100zM394 510v-472q0 -76 -18 -128.5t-40 -76.5t-63 -55l-41 50q46 40 66.5 82.5t20.5 128.5v471h75z" />
    <glyph glyph-name="uni01CA" unicode="&#x1ca;" horiz-adv-x="1083" 
d="M1003 690v-545q0 -78 -47 -117t-125 -39q-73 0 -115 20l19 58q32 -20 93 -20q96 0 96 92v551h79zM635 0h-100l-377 615v-615h-76v690h114l362 -594h1v594h76v-690z" />
    <glyph glyph-name="uni01CB" unicode="&#x1cb;" horiz-adv-x="936" 
d="M635 0h-100l-377 615v-615h-76v690h114l362 -594h1v594h76v-690zM867 590h-75v100h75v-100zM867 510v-472q0 -76 -18 -128.5t-40 -76.5t-63 -55l-41 50q46 40 66.5 82.5t20.5 128.5v471h75z" />
    <glyph glyph-name="uni01CC" unicode="&#x1cc;" horiz-adv-x="794" 
d="M725 590h-75v100h75v-100zM493 0h-75v356q0 107 -88 107q-78 0 -178 -75v-388h-75v510h73v-71q109 83 196 83q66 0 106.5 -41t40.5 -125v-356zM725 510v-472q0 -76 -18 -128.5t-40 -76.5t-63 -55l-41 50q46 40 66.5 82.5t20.5 128.5v471h75z" />
    <glyph glyph-name="uni01CD" unicode="&#x1cd;" horiz-adv-x="589" 
d="M373 870h55l-84 -122h-95l-82 122h55l75 -75zM495 0l-64 202h-273l-64 -202h-77l224 690h108l224 -690h-78zM295 635l-119 -376h237z" />
    <glyph glyph-name="uni01CE" unicode="&#x1ce;" horiz-adv-x="497" 
d="M323 690h55l-84 -122h-95l-82 122h55l75 -75zM422 0h-66l-6 52q-75 -64 -151 -64q-69 0 -112.5 38t-43.5 104q0 89 58 131t195 42q12 0 51 -3v76q0 42 -27 64.5t-72 22.5q-85 0 -157 -40l-25 51q79 48 197 48q76 0 117.5 -36t41.5 -107v-379zM347 93v151q-46 6 -66 6
q-86 0 -123 -28t-37 -84q0 -40 26 -66.5t74 -26.5q71 0 126 48z" />
    <glyph glyph-name="uni01CF" unicode="&#x1cf;" horiz-adv-x="254" 
d="M202 870h55l-84 -122h-95l-82 122h55l75 -75zM164 0h-79v690h79v-690z" />
    <glyph glyph-name="uni01D0" unicode="&#x1d0;" horiz-adv-x="243" 
d="M194 690h55l-84 -122h-95l-82 122h55l75 -75zM161 0h-75v510h75v-510z" />
    <glyph glyph-name="uni01D1" unicode="&#x1d1;" horiz-adv-x="757" 
d="M455 870h55l-84 -122h-95l-82 122h55l75 -75zM43 345q0 156 97.5 256.5t238.5 100.5t238 -100.5t97 -256.5t-97 -256.5t-238 -100.5t-238.5 100.5t-97.5 256.5zM124 345q0 -125 71 -212t184 -87t184 87t71 212q0 126 -71 212.5t-184 86.5t-184 -86.5t-71 -212.5z" />
    <glyph glyph-name="uni01D2" unicode="&#x1d2;" horiz-adv-x="584" 
d="M376 690h55l-84 -122h-95l-82 122h55l75 -75zM539 257q0 -114 -69 -191.5t-178 -77.5t-178 77.5t-69 191.5t68.5 189.5t178.5 75.5t178.5 -75.5t68.5 -189.5zM462 254q0 84 -46 146.5t-124 62.5t-124 -62.5t-46 -146.5q0 -81 43.5 -144t126.5 -63t126.5 63t43.5 144z" />
    <glyph glyph-name="uni01D3" unicode="&#x1d3;" horiz-adv-x="650" 
d="M402 870h55l-84 -122h-95l-82 122h55l75 -75zM570 690v-502q0 -101 -65.5 -150.5t-179.5 -49.5q-115 0 -180 49t-65 151v502h79v-514q0 -65 48 -97.5t118 -32.5t118 32.5t48 97.5v514h79z" />
    <glyph glyph-name="uni01D4" unicode="&#x1d4;" horiz-adv-x="562" 
d="M358 690h55l-84 -122h-95l-82 122h55l75 -75zM75 510h75v-364q0 -48 26 -72t69 -24q79 0 165 72v388h75v-510h-73v70q-99 -82 -187 -82q-64 0 -107 37.5t-43 121.5v363z" />
    <glyph glyph-name="uni01D5" unicode="&#x1d5;" horiz-adv-x="660" 
d="M457 884h-255v56h255v-56zM286 743h-75v102h75v-102zM448 743h-75v102h75v-102zM580 690v-489q0 -101 -69 -157t-182 -56q-112 0 -180.5 55t-68.5 158v489h79v-501q0 -67 49 -105t122 -38q75 0 123 38t48 105v501h79z" />
    <glyph glyph-name="uni01D6" unicode="&#x1d6;" horiz-adv-x="562" 
d="M405 731h-250v58h250v-58zM236 578h-75v102h75v-102zM399 578h-75v102h75v-102zM75 510h75v-364q0 -97 95 -97q71 0 165 73v388h75v-510h-73v72q-105 -84 -185 -84q-68 0 -110 37t-42 122v363z" />
    <glyph glyph-name="uni01D7" unicode="&#x1d7;" horiz-adv-x="660" 
d="M415 1000l-65 -122h-66l50 122h81zM281 743h-75v102h75v-102zM443 743h-75v102h75v-102zM580 690v-489q0 -101 -69 -157t-182 -56q-112 0 -180.5 55t-68.5 158v489h79v-501q0 -67 49 -105t122 -38q75 0 123 38t48 105v501h79z" />
    <glyph glyph-name="uni01D8" unicode="&#x1d8;" horiz-adv-x="562" 
d="M374 845l-65 -122h-66l50 122h81zM236 573h-75v102h75v-102zM399 573h-75v102h75v-102zM75 510h75v-364q0 -97 95 -97q71 0 165 73v388h75v-510h-73v72q-105 -84 -185 -84q-68 0 -110 37t-42 122v363z" />
    <glyph glyph-name="uni01D9" unicode="&#x1d9;" horiz-adv-x="650" 
d="M408 995h55l-84 -122h-95l-82 122h55l75 -75zM292 790q0 -21 -15 -35.5t-35 -14.5q-21 0 -35.5 14.5t-14.5 35.5q0 20 14.5 35t35.5 15q20 0 35 -15t15 -35zM454 790q0 -21 -14.5 -35.5t-35.5 -14.5q-20 0 -35 14.5t-15 35.5q0 20 15 35t35 15q21 0 35.5 -15t14.5 -35z
M570 690v-502q0 -101 -65.5 -150.5t-179.5 -49.5q-115 0 -180 49t-65 151v502h79v-514q0 -65 48 -97.5t118 -32.5t118 32.5t48 97.5v514h79z" />
    <glyph glyph-name="uni01DA" unicode="&#x1da;" horiz-adv-x="562" 
d="M361 845h55l-84 -122h-95l-82 122h55l75 -75zM241 566h-75v101h75v-101zM406 566h-75v101h75v-101zM75 510h75v-364q0 -48 26 -72t69 -24q79 0 165 72v388h75v-510h-73v70q-99 -82 -187 -82q-64 0 -107 37.5t-43 121.5v363z" />
    <glyph glyph-name="uni01DB" unicode="&#x1db;" horiz-adv-x="650" 
d="M294 878l-65 122h81l50 -122h-66zM292 790q0 -21 -15 -35.5t-35 -14.5q-21 0 -35.5 14.5t-14.5 35.5q0 20 14.5 35t35.5 15q20 0 35 -15t15 -35zM454 790q0 -21 -14.5 -35.5t-35.5 -14.5q-20 0 -35 14.5t-15 35.5q0 20 15 35t35 15q21 0 35.5 -15t14.5 -35zM570 690v-502
q0 -101 -65.5 -150.5t-179.5 -49.5q-115 0 -180 49t-65 151v502h79v-514q0 -65 48 -97.5t118 -32.5t118 32.5t48 97.5v514h79z" />
    <glyph glyph-name="uni01DC" unicode="&#x1dc;" horiz-adv-x="562" 
d="M252 728l-65 122h81l50 -122h-66zM241 571h-75v101h75v-101zM406 571h-75v101h75v-101zM75 510h75v-364q0 -48 26 -72t69 -24q79 0 165 72v388h75v-510h-73v70q-99 -82 -187 -82q-64 0 -107 37.5t-43 121.5v363z" />
    <glyph glyph-name="uni01DD" unicode="&#x1dd;" horiz-adv-x="517" 
d="M45 260h357q-1 91 -49 147t-136 56q-79 0 -140 -36l-27 48q27 18 77.5 32.5t103.5 14.5q116 0 181.5 -73.5t65.5 -192.5q0 -118 -66.5 -193t-170.5 -75q-91 0 -143.5 60t-52.5 160v52zM245 45q61 0 104.5 46.5t50.5 116.5h-280q1 -78 34.5 -120.5t90.5 -42.5z" />
    <glyph glyph-name="uni01DE" unicode="&#x1de;" horiz-adv-x="589" 
d="M425 884h-255v56h255v-56zM254 743h-75v102h75v-102zM416 743h-75v102h75v-102zM495 0l-64 202h-273l-64 -202h-77l224 690h108l224 -690h-78zM295 635l-119 -376h237z" />
    <glyph glyph-name="uni01DF" unicode="&#x1df;" horiz-adv-x="497" 
d="M373 719h-250v56h250v-56zM202 571h-75v101h75v-101zM367 571h-75v101h75v-101zM422 0h-66l-6 52q-75 -64 -151 -64q-69 0 -112.5 38t-43.5 104q0 89 58 131t195 42q12 0 51 -3v76q0 42 -27 64.5t-72 22.5q-85 0 -157 -40l-25 51q79 48 197 48q76 0 117.5 -36t41.5 -107
v-379zM347 93v151q-46 6 -66 6q-86 0 -123 -28t-37 -84q0 -40 26 -66.5t74 -26.5q71 0 126 48z" />
    <glyph glyph-name="uni01E0" unicode="&#x1e0;" horiz-adv-x="589" 
d="M423 879h-250v56h250v-56zM334 750h-75v100h75v-100zM495 0l-64 202h-273l-64 -202h-77l224 690h108l224 -690h-78zM295 635l-119 -376h237z" />
    <glyph glyph-name="uni01E1" unicode="&#x1e1;" horiz-adv-x="497" 
d="M373 714h-250v56h250v-56zM285 580h-75v100h75v-100zM422 0h-66l-6 52q-75 -64 -151 -64q-69 0 -112.5 38t-43.5 104q0 89 58 131t195 42q12 0 51 -3v76q0 42 -27 64.5t-72 22.5q-85 0 -157 -40l-25 51q79 48 197 48q76 0 117.5 -36t41.5 -107v-379zM347 93v151
q-46 6 -66 6q-86 0 -123 -28t-37 -84q0 -40 26 -66.5t74 -26.5q71 0 126 48z" />
    <glyph glyph-name="uni01E2" unicode="&#x1e2;" horiz-adv-x="855" 
d="M680 759h-250v56h250v-56zM840 58v-58h-404v202h-246l-93 -202h-86l329 690h472v-58h-297v-248h261v-58h-261v-268h325zM436 259v375h-48l-172 -375h220z" />
    <glyph glyph-name="uni01E3" unicode="&#x1e3;" horiz-adv-x="803" 
d="M533 619h-250v56h250v-56zM414 249q1 -89 51.5 -145.5t142.5 -56.5q70 0 131 36l27 -48q-27 -19 -74.5 -33t-100.5 -14q-129 0 -194 92q-99 -92 -198 -92q-69 0 -112.5 38t-43.5 104q0 89 58 131t195 42q12 0 51 -3v76q0 42 -27 64.5t-72 22.5q-85 0 -157 -40l-25 51
q79 48 197 48q114 0 142 -81q62 81 165 81q90 0 144 -56t54 -164v-53h-354zM568 465q-60 0 -102.5 -46.5t-49.5 -117.5h275q-2 83 -35 123.5t-88 40.5zM221 45q36 0 77.5 23t72.5 59q-22 52 -23 113l-1 4q-46 6 -66 6q-86 0 -123 -28t-37 -84q0 -40 26 -66.5t74 -26.5z" />
    <glyph glyph-name="uni01E4" unicode="&#x1e4;" horiz-adv-x="668" 
d="M605 33q-90 -45 -221 -45q-148 0 -244.5 102t-96.5 259q0 107 48 189t125.5 123t169.5 41q127 0 221 -51l-32 -59q-84 52 -191 52q-119 0 -190.5 -85.5t-71.5 -210.5q0 -131 75.5 -216.5t190.5 -85.5q78 0 143 23v106h-147v59h147v95l74 16v-111h58v-59h-58v-142z" />
    <glyph glyph-name="uni01E5" unicode="&#x1e5;" horiz-adv-x="511" 
d="M59 341q0 79 55.5 130t136.5 51q41 0 74 -12h183l-7 -56h-97q40 -50 40 -113q0 -78 -56.5 -129.5t-136.5 -51.5q-45 0 -82 17q-41 -34 -41 -64q0 -32 59 -35l162 -9q70 -4 108.5 -37t38.5 -85h96v-52h-107q-22 -56 -89 -86.5t-150 -30.5q-103 0 -165 39.5t-62 97.5
q0 70 85 117q-40 22 -40 65q0 52 63 104q-68 52 -68 140zM134 341q0 -55 31.5 -88.5t85.5 -33.5t85.5 33.5t31.5 88.5q0 54 -31.5 88t-85.5 34t-85.5 -34t-31.5 -88zM284 -105v52h135q-6 52 -78 56q-12 0 -17 1l-147 9q-7 0 -21 2q-67 -39 -67 -88q0 -46 50 -69t115 -23
q51 0 93 15.5t60 44.5h-123z" />
    <glyph glyph-name="Gcaron" unicode="&#x1e6;" horiz-adv-x="669" 
d="M467 870h55l-84 -122h-95l-82 122h55l75 -75zM605 33q-90 -45 -221 -45q-148 0 -244.5 102t-96.5 259q0 107 48 189t125.5 123t169.5 41q127 0 221 -51l-32 -59q-84 52 -191 52q-119 0 -190.5 -85.5t-71.5 -210.5q0 -131 75.5 -216.5t190.5 -85.5q78 0 143 23v260l74 16
v-312z" />
    <glyph glyph-name="gcaron" unicode="&#x1e7;" horiz-adv-x="509" 
d="M332 690h55l-84 -122h-95l-82 122h55l75 -75zM19 -87q0 67 78 116q-40 22 -40 65q0 31 22.5 62t48.5 45q-69 53 -69 140q0 79 55.5 130t137.5 51q40 0 73 -12h176v-56h-97q40 -48 40 -112q0 -79 -56.5 -130.5t-136.5 -51.5q-43 0 -82 17q-47 -28 -47 -63q0 -29 51 -33
l181 -13q142 -11 142 -118q0 -80 -72 -126t-182 -46q-102 0 -162.5 38.5t-60.5 96.5zM134 341q0 -55 31.5 -88.5t85.5 -33.5t85.5 33.5t31.5 88.5q0 54 -31.5 88t-85.5 34t-85.5 -34t-31.5 -88zM346 0l-199 14q-58 -39 -58 -90q0 -45 50 -67t115 -22q70 0 118 26.5t48 77.5
q0 56 -74 61z" />
    <glyph glyph-name="uni01E8" unicode="&#x1e8;" horiz-adv-x="581" 
d="M367 870h55l-84 -122h-95l-82 122h55l75 -75zM154 690v-690h-79v690h79zM500 0l-316 352l292 338h91l-291 -330l324 -360h-100z" />
    <glyph glyph-name="uni01E9" unicode="&#x1e9;" horiz-adv-x="491" 
d="M322 875h55l-84 -122h-95l-82 122h55l75 -75zM152 726v-726h-75v705zM414 0l-239 281l220 229h87l-218 -228l243 -282h-93z" />
    <glyph glyph-name="uni01EA" unicode="&#x1ea;" horiz-adv-x="757" 
d="M432 -159v-45q-23 -5 -45 -5q-40 0 -64 19.5t-24 52.5q0 60 56 126q-133 8 -222.5 107t-89.5 249q0 156 97.5 256.5t238.5 100.5t238 -100.5t97 -256.5q0 -145 -85.5 -243.5t-213.5 -111.5q-51 -64 -51 -111q0 -41 49 -41q10 0 19 3zM124 345q0 -125 71 -212t184 -87
t184 87t71 212q0 126 -71 212.5t-184 86.5t-184 -86.5t-71 -212.5z" />
    <glyph glyph-name="uni01EB" unicode="&#x1eb;" horiz-adv-x="584" 
d="M350 -159v-45q-23 -5 -45 -5q-40 0 -64 19.5t-24 52.5q0 60 56 126q-101 7 -164.5 82.5t-63.5 183.5q0 116 68.5 191.5t178.5 75.5t178.5 -75.5t68.5 -191.5q0 -102 -56.5 -175.5t-148.5 -87.5q-52 -67 -52 -113q0 -41 49 -41q10 0 19 3zM462 255q0 83 -46 145.5
t-124 62.5t-124 -62.5t-46 -145.5q0 -82 43.5 -145t126.5 -63t126.5 63t43.5 145z" />
    <glyph glyph-name="uni01EC" unicode="&#x1ec;" horiz-adv-x="757" 
d="M504 771h-250v58h250v-58zM432 -159v-45q-23 -5 -45 -5q-40 0 -64 19.5t-24 52.5q0 60 56 126q-133 8 -222.5 107t-89.5 249q0 156 97.5 256.5t238.5 100.5t238 -100.5t97 -256.5q0 -145 -85.5 -243.5t-213.5 -111.5q-51 -64 -51 -111q0 -41 49 -41q10 0 19 3zM124 345
q0 -125 71 -212t184 -87t184 87t71 212q0 126 -71 212.5t-184 86.5t-184 -86.5t-71 -212.5z" />
    <glyph glyph-name="uni01ED" unicode="&#x1ed;" horiz-adv-x="584" 
d="M426 599h-250v56h250v-56zM350 -159v-45q-23 -5 -45 -5q-40 0 -64 19.5t-24 52.5q0 60 56 126q-101 7 -164.5 82.5t-63.5 183.5q0 116 68.5 191.5t178.5 75.5t178.5 -75.5t68.5 -191.5q0 -102 -56.5 -175.5t-148.5 -87.5q-52 -67 -52 -113q0 -41 49 -41q10 0 19 3z
M462 255q0 83 -46 145.5t-124 62.5t-124 -62.5t-46 -145.5q0 -82 43.5 -145t126.5 -63t126.5 63t43.5 145z" />
    <glyph glyph-name="uni01EE" unicode="&#x1ee;" horiz-adv-x="598" 
d="M363 865h55l-84 -122h-95l-82 122h55l75 -75zM268 364q-25 0 -67 -14l-16 43q200 229 209 239h-342v58h423v-59l-181 -211q85 -6 143 -58.5t58 -141.5q0 -103 -72.5 -167t-180.5 -64q-62 0 -118.5 31.5t-87.5 89.5l55 31q26 -42 68.5 -68t90.5 -26q70 0 118.5 45.5
t48.5 122.5q0 64 -43 106.5t-106 42.5z" />
    <glyph glyph-name="uni01EF" unicode="&#x1ef;" horiz-adv-x="544" 
d="M333 690h55l-84 -122h-95l-82 122h55l75 -75zM243 194q-24 0 -72 -14l-15 46q31 38 94 113.5t94 113.5h-301v57h386v-52l-172 -210h10q83 0 141.5 -54t58.5 -144q0 -105 -71.5 -171t-175.5 -66q-60 0 -115 32t-77 86l52 23q20 -37 60 -59t85 -22q69 0 116.5 47t47.5 123
q0 70 -41.5 110.5t-104.5 40.5z" />
    <glyph glyph-name="jcaron" unicode="&#x1f0;" horiz-adv-x="234" 
d="M193 690h55l-84 -122h-95l-82 122h55l75 -75zM156 510v-472q0 -76 -18 -128.5t-40 -76.5t-63 -55l-41 50q46 40 66.5 82.5t20.5 128.5v471h75z" />
    <glyph glyph-name="uni01F1" unicode="&#x1f1;" horiz-adv-x="1192" 
d="M656 354q0 -172 -98.5 -263t-273.5 -91h-202v690h212q168 0 265 -88.5t97 -247.5zM1167 58v-58h-466v60l370 572h-356v58h441v-60l-371 -572h382zM575 350q0 130 -78.5 206t-202.5 76h-133v-574h126q134 0 211 75t77 217z" />
    <glyph glyph-name="uni01F2" unicode="&#x1f2;" horiz-adv-x="1137" 
d="M656 354q0 -172 -98.5 -263t-273.5 -91h-202v690h212q168 0 265 -88.5t97 -247.5zM575 350q0 130 -78.5 206t-202.5 76h-133v-574h126q134 0 211 75t77 217zM1116 57v-57h-388v60l300 393h-286v57h366v-60l-300 -393h308z" />
    <glyph glyph-name="uni01F3" unicode="&#x1f3;" horiz-adv-x="1021" 
d="M420 476v229l75 21v-726h-75v49q-78 -61 -153 -61q-92 0 -157 67t-65 197q0 119 72.5 194.5t169.5 75.5q72 0 133 -46zM1000 57v-57h-388v60l300 393h-286v57h366v-60l-300 -393h308zM420 100v319q-60 44 -126 44q-70 0 -121 -57.5t-51 -156.5q0 -94 47 -148t113 -54
q65 0 138 53z" />
    <glyph glyph-name="uni01F4" unicode="&#x1f4;" horiz-adv-x="669" 
d="M473 870l-65 -122h-66l50 122h81zM605 33q-90 -45 -221 -45q-148 0 -244.5 102t-96.5 259q0 107 48 189t125.5 123t169.5 41q127 0 221 -51l-32 -59q-84 52 -191 52q-119 0 -190.5 -85.5t-71.5 -210.5q0 -131 75.5 -216.5t190.5 -85.5q78 0 143 23v260l74 16v-312z" />
    <glyph glyph-name="uni01F5" unicode="&#x1f5;" horiz-adv-x="509" 
d="M342 690l-65 -122h-66l50 122h81zM19 -87q0 67 78 116q-40 22 -40 65q0 31 22.5 62t48.5 45q-69 53 -69 140q0 79 55.5 130t137.5 51q40 0 73 -12h176v-56h-97q40 -48 40 -112q0 -79 -56.5 -130.5t-136.5 -51.5q-43 0 -82 17q-47 -28 -47 -63q0 -29 51 -33l181 -13
q142 -11 142 -118q0 -80 -72 -126t-182 -46q-102 0 -162.5 38.5t-60.5 96.5zM134 341q0 -55 31.5 -88.5t85.5 -33.5t85.5 33.5t31.5 88.5q0 54 -31.5 88t-85.5 34t-85.5 -34t-31.5 -88zM346 0l-199 14q-58 -39 -58 -90q0 -45 50 -67t115 -22q70 0 118 26.5t48 77.5
q0 56 -74 61z" />
    <glyph glyph-name="uni01F6" unicode="&#x1f6;" horiz-adv-x="1029" 
d="M743 -10q-90 0 -151 38t-61 114v184h-370v-326h-79v690h79v-306h370v306h80v-553q0 -45 38.5 -67.5t93.5 -22.5q56 0 94 25.5t38 64.5v373h78v-368q0 -75 -60.5 -113.5t-149.5 -38.5z" />
    <glyph glyph-name="uni01F7" unicode="&#x1f7;" horiz-adv-x="619" 
d="M568 459q0 -161 -118 -312t-289 -230v-116h-79v889h79v-63q60 75 173 75q112 0 173 -63t61 -180zM486 457q0 87 -41 134t-116 47q-79 0 -123.5 -60.5t-44.5 -150.5v-442q135 69 230 200t95 272z" />
    <glyph glyph-name="uni01F8" unicode="&#x1f8;" horiz-adv-x="717" 
d="M356 748l-65 122h81l50 -122h-66zM635 0h-100l-377 615v-615h-76v690h114l362 -594h1v594h76v-690z" />
    <glyph glyph-name="uni01F9" unicode="&#x1f9;" horiz-adv-x="568" 
d="M284 568l-65 122h81l50 -122h-66zM493 0h-75v356q0 107 -88 107q-78 0 -178 -75v-388h-75v510h73v-71q109 83 196 83q66 0 106.5 -41t40.5 -125v-356z" />
    <glyph glyph-name="Aringacute" unicode="&#x1fa;" horiz-adv-x="587" 
d="M391 976l-65 -122h-66l50 122h81zM572 0h-79l-65 202h-269l-64 -202h-79l208 626q-40 32 -40 83q0 41 33 74.5t76 33.5q44 0 76 -32t32 -76q0 -48 -38 -81zM350 709q0 24 -17 41.5t-41 17.5t-40.5 -17.5t-16.5 -41.5t16.5 -41.5t40.5 -17.5t41 17.5t17 41.5zM410 259
l-109 343h-15l-109 -343h233z" />
    <glyph glyph-name="aringacute" unicode="&#x1fb;" horiz-adv-x="497" 
d="M343 917l-65 -122h-66l50 122h81zM352 667q0 -42 -31 -72t-73 -30t-73 30t-31 72t31 72t73 30t73 -30t31 -72zM308 667q0 25 -17.5 43.5t-42.5 18.5t-42.5 -18.5t-17.5 -43.5t17.5 -43.5t42.5 -18.5t42.5 18.5t17.5 43.5zM422 0h-66l-6 52q-75 -64 -151 -64
q-69 0 -112.5 38t-43.5 104q0 89 58 131t195 42q12 0 51 -3v76q0 42 -27 64.5t-72 22.5q-85 0 -157 -40l-25 51q79 48 197 48q76 0 117.5 -36t41.5 -107v-379zM347 93v151q-46 6 -66 6q-86 0 -123 -28t-37 -84q0 -40 26 -66.5t74 -26.5q71 0 126 48z" />
    <glyph glyph-name="AEacute" unicode="&#x1fc;" horiz-adv-x="855" 
d="M559 870l-65 -122h-66l50 122h81zM840 58v-58h-404v202h-246l-93 -202h-86l329 690h472v-58h-297v-248h261v-58h-261v-268h325zM436 259v375h-48l-172 -375h220z" />
    <glyph glyph-name="aeacute" unicode="&#x1fd;" horiz-adv-x="803" 
d="M473 690l-65 -122h-66l50 122h81zM414 249q1 -89 51.5 -145.5t142.5 -56.5q70 0 131 36l27 -48q-27 -19 -74.5 -33t-100.5 -14q-129 0 -194 92q-99 -92 -198 -92q-69 0 -112.5 38t-43.5 104q0 89 58 131t195 42q12 0 51 -3v76q0 42 -27 64.5t-72 22.5q-85 0 -157 -40
l-25 51q79 48 197 48q114 0 142 -81q62 81 165 81q90 0 144 -56t54 -164v-53h-354zM568 465q-60 0 -102.5 -46.5t-49.5 -117.5h275q-2 83 -35 123.5t-88 40.5zM221 45q36 0 77.5 23t72.5 59q-22 52 -23 113l-1 4q-46 6 -66 6q-86 0 -123 -28t-37 -84q0 -40 26 -66.5
t74 -26.5z" />
    <glyph glyph-name="Oslashacute" unicode="&#x1fe;" horiz-adv-x="757" 
d="M456 870l-65 -122h-66l50 122h81zM43 345q0 156 97.5 256t238.5 100t238 -100t97 -256t-97 -255.5t-238 -99.5q-142 0 -239 99.5t-97 255.5zM124 345q0 -122 66 -205l340 449q-67 54 -151 54q-113 0 -184 -86t-71 -212zM634 345q0 119 -66 204l-341 -448q64 -53 152 -53
q113 0 184 86t71 211z" />
    <glyph glyph-name="oslashacute" unicode="&#x1ff;" horiz-adv-x="584" 
d="M380 690l-65 -122h-66l50 122h81zM539 255q0 -112 -69.5 -189.5t-177.5 -77.5t-177.5 77.5t-69.5 189.5q0 116 68.5 191.5t178.5 75.5t178.5 -75.5t68.5 -191.5zM122 255q0 -70 31 -125l246 289q-46 44 -107 44q-78 0 -124 -62.5t-46 -145.5zM462 255q0 68 -32 123
l-246 -289q42 -42 108 -42q83 0 126.5 63t43.5 145z" />
    <glyph glyph-name="uni0200" unicode="&#x200;" horiz-adv-x="589" 
d="M364 748l-65 122h78l50 -122h-63zM233 748l-65 122h78l50 -122h-63zM495 0l-64 202h-273l-64 -202h-77l224 690h108l224 -690h-78zM295 635l-119 -376h237z" />
    <glyph glyph-name="uni0201" unicode="&#x201;" horiz-adv-x="497" 
d="M314 568l-65 122h78l50 -122h-63zM183 568l-65 122h78l50 -122h-63zM422 0h-66l-6 52q-75 -64 -151 -64q-69 0 -112.5 38t-43.5 104q0 89 58 131t195 42q12 0 51 -3v76q0 42 -27 64.5t-72 22.5q-85 0 -157 -40l-25 51q79 48 197 48q76 0 117.5 -36t41.5 -107v-379z
M347 93v151q-46 6 -66 6q-86 0 -123 -28t-37 -84q0 -40 26 -66.5t74 -26.5q71 0 126 48z" />
    <glyph glyph-name="uni0202" unicode="&#x202;" horiz-adv-x="589" 
d="M428 746h-54q0 31 -22 50t-54 19q-33 0 -54.5 -19t-21.5 -50h-54q0 56 35.5 90t94.5 34t94.5 -34t35.5 -90zM495 0l-64 202h-273l-64 -202h-77l224 690h108l224 -690h-78zM295 635l-119 -376h237z" />
    <glyph glyph-name="uni0203" unicode="&#x203;" horiz-adv-x="497" 
d="M378 566h-54q0 31 -22 50t-54 19q-33 0 -54.5 -19t-21.5 -50h-54q0 56 35.5 90t94.5 34t94.5 -34t35.5 -90zM422 0h-66l-6 52q-75 -64 -151 -64q-69 0 -112.5 38t-43.5 104q0 89 58 131t195 42q12 0 51 -3v76q0 42 -27 64.5t-72 22.5q-85 0 -157 -40l-25 51q79 48 197 48
q76 0 117.5 -36t41.5 -107v-379zM347 93v151q-46 6 -66 6q-86 0 -123 -28t-37 -84q0 -40 26 -66.5t74 -26.5q71 0 126 48z" />
    <glyph glyph-name="uni0204" unicode="&#x204;" horiz-adv-x="505" 
d="M317 748l-65 122h78l50 -122h-63zM186 748l-65 122h78l50 -122h-63zM486 58v-58h-404v690h376v-58h-297v-248h261v-58h-261v-268h325z" />
    <glyph glyph-name="uni0205" unicode="&#x205;" horiz-adv-x="514" 
d="M334 568l-65 122h78l50 -122h-63zM203 568l-65 122h78l50 -122h-63zM121 249q0 -88 46.5 -145t135.5 -57q80 0 143 37l27 -47q-26 -19 -78.5 -34t-105.5 -15q-115 0 -179.5 73t-64.5 190q0 120 66 195.5t169 75.5q87 0 141 -57.5t54 -162.5v-53h-354zM276 465
q-60 0 -103 -45.5t-50 -118.5h275q-2 84 -35 124t-87 40z" />
    <glyph glyph-name="uni0206" unicode="&#x206;" horiz-adv-x="505" 
d="M391 746h-54q0 31 -22 50t-54 19q-33 0 -54.5 -19t-21.5 -50h-54q0 56 35.5 90t94.5 34t94.5 -34t35.5 -90zM486 58v-58h-404v690h376v-58h-297v-248h261v-58h-261v-268h325z" />
    <glyph glyph-name="uni0207" unicode="&#x207;" horiz-adv-x="514" 
d="M411 566h-54q0 31 -22 50t-54 19q-33 0 -54.5 -19t-21.5 -50h-54q0 56 35.5 90t94.5 34t94.5 -34t35.5 -90zM121 249q0 -88 46.5 -145t135.5 -57q80 0 143 37l27 -47q-26 -19 -78.5 -34t-105.5 -15q-115 0 -179.5 73t-64.5 190q0 120 66 195.5t169 75.5q87 0 141 -57.5
t54 -162.5v-53h-354zM276 465q-60 0 -103 -45.5t-50 -118.5h275q-2 84 -35 124t-87 40z" />
    <glyph glyph-name="uni0208" unicode="&#x208;" horiz-adv-x="244" 
d="M189 748l-65 122h78l50 -122h-63zM58 748l-65 122h78l50 -122h-63zM160 0h-79v690h79v-690z" />
    <glyph glyph-name="uni0209" unicode="&#x209;" horiz-adv-x="232" 
d="M180 568l-65 122h78l50 -122h-63zM49 568l-65 122h78l50 -122h-63zM156 0h-75v510h75v-510z" />
    <glyph glyph-name="uni020A" unicode="&#x20a;" horiz-adv-x="232" 
d="M246 746h-54q0 31 -22 50t-54 19q-33 0 -54.5 -19t-21.5 -50h-54q0 56 35.5 90t94.5 34t94.5 -34t35.5 -90zM154 0h-79v690h79v-690z" />
    <glyph glyph-name="uni020B" unicode="&#x20b;" horiz-adv-x="219" 
d="M239 566h-54q0 31 -22 50t-54 19q-33 0 -54.5 -19t-21.5 -50h-54q0 56 35.5 90t94.5 34t94.5 -34t35.5 -90zM146 0h-75v510h75v-510z" />
    <glyph glyph-name="uni020C" unicode="&#x20c;" horiz-adv-x="757" 
d="M446 748l-65 122h78l50 -122h-63zM315 748l-65 122h78l50 -122h-63zM43 345q0 156 97.5 256.5t238.5 100.5t238 -100.5t97 -256.5t-97 -256.5t-238 -100.5t-238.5 100.5t-97.5 256.5zM124 345q0 -125 71 -212t184 -87t184 87t71 212q0 126 -71 212.5t-184 86.5
t-184 -86.5t-71 -212.5z" />
    <glyph glyph-name="uni020D" unicode="&#x20d;" horiz-adv-x="584" 
d="M367 568l-65 122h78l50 -122h-63zM236 568l-65 122h78l50 -122h-63zM539 257q0 -114 -69 -191.5t-178 -77.5t-178 77.5t-69 191.5t68.5 189.5t178.5 75.5t178.5 -75.5t68.5 -189.5zM462 254q0 84 -46 146.5t-124 62.5t-124 -62.5t-46 -146.5q0 -81 43.5 -144t126.5 -63
t126.5 63t43.5 144z" />
    <glyph glyph-name="uni020E" unicode="&#x20e;" horiz-adv-x="757" 
d="M510 746h-54q0 31 -22 50t-54 19q-33 0 -54.5 -19t-21.5 -50h-54q0 56 35.5 90t94.5 34t94.5 -34t35.5 -90zM43 345q0 156 97.5 256.5t238.5 100.5t238 -100.5t97 -256.5t-97 -256.5t-238 -100.5t-238.5 100.5t-97.5 256.5zM124 345q0 -125 71 -212t184 -87t184 87
t71 212q0 126 -71 212.5t-184 86.5t-184 -86.5t-71 -212.5z" />
    <glyph glyph-name="uni020F" unicode="&#x20f;" horiz-adv-x="584" 
d="M431 566h-54q0 31 -22 50t-54 19q-33 0 -54.5 -19t-21.5 -50h-54q0 56 35.5 90t94.5 34t94.5 -34t35.5 -90zM539 257q0 -114 -69 -191.5t-178 -77.5t-178 77.5t-69 191.5t68.5 189.5t178.5 75.5t178.5 -75.5t68.5 -189.5zM462 254q0 84 -46 146.5t-124 62.5t-124 -62.5
t-46 -146.5q0 -81 43.5 -144t126.5 -63t126.5 63t43.5 144z" />
    <glyph glyph-name="uni0210" unicode="&#x210;" horiz-adv-x="557" 
d="M341 748l-65 122h78l50 -122h-63zM210 748l-65 122h78l50 -122h-63zM542 0h-89l-178 305h-114v-305h-79v690h203q217 0 217 -189q0 -78 -41 -124.5t-107 -63.5zM423 500q0 61 -34.5 96.5t-102.5 35.5h-125v-269h120q64 0 103 34.5t39 102.5z" />
    <glyph glyph-name="uni0211" unicode="&#x211;" horiz-adv-x="325" 
d="M233 568l-65 122h78l50 -122h-63zM102 568l-65 122h78l50 -122h-63zM320 522v-81q-6 1 -19 1q-73 0 -149 -76v-366h-75v510h72v-94q28 42 76 74t95 32z" />
    <glyph glyph-name="uni0212" unicode="&#x212;" horiz-adv-x="557" 
d="M404 746h-54q0 31 -22 50t-54 19q-33 0 -54.5 -19t-21.5 -50h-54q0 56 35.5 90t94.5 34t94.5 -34t35.5 -90zM542 0h-89l-178 305h-114v-305h-79v690h203q217 0 217 -189q0 -78 -41 -124.5t-107 -63.5zM423 500q0 61 -34.5 96.5t-102.5 35.5h-125v-269h120q64 0 103 34.5
t39 102.5z" />
    <glyph glyph-name="uni0213" unicode="&#x213;" horiz-adv-x="320" 
d="M290 566h-54q0 31 -22 50t-54 19q-33 0 -54.5 -19t-21.5 -50h-54q0 56 35.5 90t94.5 34t94.5 -34t35.5 -90zM315 522v-81q-6 1 -19 1q-73 0 -149 -76v-366h-75v510h72v-94q28 42 76 74t95 32z" />
    <glyph glyph-name="uni0214" unicode="&#x214;" horiz-adv-x="650" 
d="M393 748l-65 122h78l50 -122h-63zM262 748l-65 122h78l50 -122h-63zM570 690v-502q0 -101 -65.5 -150.5t-179.5 -49.5q-115 0 -180 49t-65 151v502h79v-514q0 -65 48 -97.5t118 -32.5t118 32.5t48 97.5v514h79z" />
    <glyph glyph-name="uni0215" unicode="&#x215;" horiz-adv-x="562" 
d="M349 568l-65 122h78l50 -122h-63zM218 568l-65 122h78l50 -122h-63zM75 510h75v-364q0 -48 26 -72t69 -24q79 0 165 72v388h75v-510h-73v70q-99 -82 -187 -82q-64 0 -107 37.5t-43 121.5v363z" />
    <glyph glyph-name="uni0216" unicode="&#x216;" horiz-adv-x="650" 
d="M457 746h-54q0 31 -22 50t-54 19q-33 0 -54.5 -19t-21.5 -50h-54q0 56 35.5 90t94.5 34t94.5 -34t35.5 -90zM570 690v-502q0 -101 -65.5 -150.5t-179.5 -49.5q-115 0 -180 49t-65 151v502h79v-514q0 -65 48 -97.5t118 -32.5t118 32.5t48 97.5v514h79z" />
    <glyph glyph-name="uni0217" unicode="&#x217;" horiz-adv-x="562" 
d="M412 566h-54q0 31 -22 50t-54 19q-33 0 -54.5 -19t-21.5 -50h-54q0 56 35.5 90t94.5 34t94.5 -34t35.5 -90zM75 510h75v-364q0 -48 26 -72t69 -24q79 0 165 72v388h75v-510h-73v70q-99 -82 -187 -82q-64 0 -107 37.5t-43 121.5v363z" />
    <glyph glyph-name="Scommaaccent" unicode="&#x218;" horiz-adv-x="479" 
d="M439 170q0 -84 -63 -133t-150 -49q-53 0 -104 16t-82 38q12 19 38 55q24 -19 69 -35t83 -16q55 0 92.5 31.5t37.5 87.5q0 42 -33 77.5t-80 62.5t-94.5 55.5t-80.5 71t-33 95.5q0 80 59.5 127.5t145.5 47.5q89 0 161 -47l-30 -54q-22 15 -61.5 29t-73.5 14
q-52 0 -86.5 -27t-34.5 -75q0 -43 33 -78.5t80 -62.5t94 -56t80 -73.5t33 -101.5zM207 -151v87h83v-87l-42 -83h-44l37 83h-34z" />
    <glyph glyph-name="scommaaccent" unicode="&#x219;" horiz-adv-x="432" 
d="M391 135q0 -66 -53.5 -106.5t-135.5 -40.5q-92 0 -165 42l30 59q60 -44 138 -44q46 0 77.5 19.5t31.5 57.5q0 34 -28 58t-67.5 40.5t-79 34.5t-67.5 50t-28 78q0 64 49 101.5t127 37.5q82 0 156 -39l-28 -55q-62 37 -131 37q-44 0 -71 -19.5t-27 -53.5q0 -33 28 -56.5
t68 -39.5t80 -34t68 -50t28 -77zM181 -151v87h83v-87l-42 -83h-44l37 83h-34z" />
    <glyph glyph-name="uni021A" unicode="&#x21a;" horiz-adv-x="486" 
d="M282 632v-632h-79v632h-191v58h461v-58h-191zM212 -151v87h83v-87l-42 -83h-44l37 83h-34z" />
    <glyph glyph-name="uni021B" unicode="&#x21b;" horiz-adv-x="377" 
d="M341 6q-38 -16 -96 -16q-60 0 -96.5 30.5t-36.5 115.5v318h-96v56h96v100l75 50v-150h140v-56h-140v-318q0 -89 73 -89q46 0 78 15zM139 -151v87h83v-87l-42 -83h-44l37 83h-34z" />
    <glyph glyph-name="uni021C" unicode="&#x21c;" horiz-adv-x="540" 
d="M488 172q0 -129 -96.5 -218.5t-324.5 -164.5v69q341 104 341 304q0 74 -45 120q-87 -67 -296 -139v69q172 54 256.5 123.5t84.5 164.5q0 67 -37.5 102.5t-101.5 35.5q-115 0 -177 -94l-50 42q84 116 228 116q100 0 159 -49.5t59 -141.5q0 -93 -70 -176q70 -61 70 -163z
" />
    <glyph glyph-name="uni021D" unicode="&#x21d;" horiz-adv-x="452" 
d="M413 68q0 -101 -78.5 -164t-277.5 -119v64q156 42 219.5 90.5t63.5 120.5q0 67 -42 106q-70 -43 -241 -90v63q159 43 221 87.5t62 121.5q0 115 -121 115q-83 0 -123 -81l-63 26q58 114 190 114q190 0 190 -168q0 -82 -57 -143q57 -53 57 -143z" />
    <glyph glyph-name="uni021E" unicode="&#x21e;" horiz-adv-x="693" 
d="M425 865h55l-84 -122h-95l-82 122h55l75 -75zM611 0h-80v326h-370v-326h-79v690h79v-306h370v306h80v-690z" />
    <glyph glyph-name="uni021F" unicode="&#x21f;" horiz-adv-x="568" 
d="M364 865h55l-84 -122h-95l-82 122h55l75 -75zM152 726v-286q107 82 194 82q66 0 106.5 -41t40.5 -125v-356h-75v356q0 107 -88 107q-78 0 -178 -75v-388h-75v705z" />
    <glyph glyph-name="uni0220" unicode="&#x220;" horiz-adv-x="684" 
d="M609 437v-636h-79v628q0 110 -33.5 158t-109.5 48q-110 0 -226 -47v-588h-79v690h79v-38q133 50 239 50q209 0 209 -265z" />
    <glyph glyph-name="uni0221" unicode="&#x221;" horiz-adv-x="645" 
d="M420 476v203l75 45v-721q55 32 101 32q54 0 89.5 -33.5t35.5 -90.5q0 -61 -38.5 -94t-95.5 -33q-46 0 -84 23.5t-59 64.5q-26 -31 -62 -83l-46 47q49 69 88 108q0 1 -2 14.5t-2 18.5v72q-78 -61 -153 -61q-92 0 -157 67t-65 197q0 119 72.5 194.5t169.5 75.5
q72 0 133 -46zM420 100v319q-60 44 -126 44q-70 0 -121 -57.5t-51 -156.5q0 -94 47 -148t113 -54q65 0 138 53zM594 -29q-44 0 -94 -43q9 -40 33.5 -60t56.5 -20q31 0 47.5 17t16.5 46q0 28 -16.5 44t-43.5 16z" />
    <glyph glyph-name="uni0222" unicode="&#x222;" horiz-adv-x="595" 
d="M551 213q0 -103 -70 -164t-184 -61q-117 0 -185 60.5t-68 164.5q0 155 157 185v6q-68 9 -103 43t-35 83q0 114 216 116v-46q-134 -5 -134 -77q0 -88 149 -88q156 0 156 123q0 55 -35.5 86t-98.5 33v53q102 -2 158.5 -43.5t56.5 -115.5q0 -61 -37.5 -107.5t-100.5 -59.5
v-6q158 -30 158 -185zM475 217q0 71 -48 110t-129 39t-128.5 -39t-47.5 -110q0 -75 48 -122t127 -47t128.5 47t49.5 122z" />
    <glyph glyph-name="uni0223" unicode="&#x223;" horiz-adv-x="568" 
d="M519 214q0 -106 -63 -166t-172 -60q-112 0 -173.5 59t-61.5 165q0 75 35.5 124t102.5 65v9q-59 13 -89 54.5t-30 102.5q0 105 126 166q3 -5 7.5 -14.5t8.5 -17t7 -14.5q-75 -46 -75 -121q0 -62 37.5 -96.5t104.5 -34.5q66 0 104 35t38 96q0 73 -75 121l22 45
q126 -61 126 -165q0 -62 -30 -103t-88 -54v-9q138 -31 138 -187zM443 218q0 75 -43 113.5t-116 38.5t-116 -39.5t-43 -113.5q0 -79 41.5 -123t117.5 -44t117.5 44t41.5 124z" />
    <glyph glyph-name="uni0224" unicode="&#x224;" horiz-adv-x="523" 
d="M340 0h-306v60l370 572h-356v58h441v-60l-371 -572h231q91 0 127.5 -20.5t36.5 -76.5q0 -29 -10 -62l-62 15q7 22 7 38q0 26 -20.5 37t-87.5 11z" />
    <glyph glyph-name="uni0225" unicode="&#x225;" horiz-adv-x="437" 
d="M264 0h-233v60l300 393h-286v57h366v-60l-300 -393h159q94 0 128 -20.5t34 -75.5q0 -32 -9 -62l-59 15q7 22 7 38q0 29 -19 38.5t-88 9.5z" />
    <glyph glyph-name="uni0226" unicode="&#x226;" horiz-adv-x="589" 
d="M334 770h-75v100h75v-100zM495 0l-64 202h-273l-64 -202h-77l224 690h108l224 -690h-78zM295 635l-119 -376h237z" />
    <glyph glyph-name="uni0227" unicode="&#x227;" horiz-adv-x="497" 
d="M285 590h-75v100h75v-100zM422 0h-66l-6 52q-75 -64 -151 -64q-69 0 -112.5 38t-43.5 104q0 89 58 131t195 42q12 0 51 -3v76q0 42 -27 64.5t-72 22.5q-85 0 -157 -40l-25 51q79 48 197 48q76 0 117.5 -36t41.5 -107v-379zM347 93v151q-46 6 -66 6q-86 0 -123 -28
t-37 -84q0 -40 26 -66.5t74 -26.5q71 0 126 48z" />
    <glyph glyph-name="uni0228" unicode="&#x228;" horiz-adv-x="503" 
d="M248 0h-166v690h376l-5 -58h-292v-248h261v-58h-261v-268h323v-58h-182l-26 -54q33 -4 59.5 -23.5t26.5 -55.5q0 -44 -32.5 -66.5t-73.5 -22.5q-46 0 -72 18l16 41q26 -15 54 -15q19 0 32 11t13 31q0 41 -72 41h-26q4 7 13.5 26.5t20.5 41.5t13 27z" />
    <glyph glyph-name="uni0229" unicode="&#x229;" horiz-adv-x="517" 
d="M121 249q0 -88 46.5 -145t135.5 -57q80 0 143 37l27 -47q-23 -17 -68.5 -31t-94.5 -17l-20 -43q33 -4 59.5 -23.5t26.5 -55.5q0 -44 -32.5 -66.5t-73.5 -22.5q-46 0 -72 18l16 41q26 -15 54 -15q19 0 32 11t13 31q0 41 -72 41h-26l42 85q-101 10 -156.5 81.5t-55.5 179.5
q0 120 66 195.5t169 75.5q87 0 141 -57.5t54 -162.5v-53h-354zM276 465q-60 0 -103 -45.5t-50 -118.5h275q-2 84 -35 124t-87 40z" />
    <glyph glyph-name="uni022A" unicode="&#x22a;" horiz-adv-x="757" 
d="M506 889h-255v56h255v-56zM335 743h-75v102h75v-102zM497 743h-75v102h75v-102zM43 345q0 156 97.5 256.5t238.5 100.5t238 -100.5t97 -256.5t-97 -256.5t-238 -100.5t-238.5 100.5t-97.5 256.5zM124 345q0 -125 71 -212t184 -87t184 87t71 212q0 126 -71 212.5
t-184 86.5t-184 -86.5t-71 -212.5z" />
    <glyph glyph-name="uni022B" unicode="&#x22b;" horiz-adv-x="584" 
d="M417 731h-250v58h250v-58zM248 578h-75v102h75v-102zM410 578h-75v102h75v-102zM539 255q0 -113 -69 -190t-178 -77t-178 77t-69 190q0 116 68.5 191.5t178.5 75.5t178.5 -75.5t68.5 -191.5zM462 255q0 83 -46 145.5t-124 62.5t-124 -62.5t-46 -145.5q0 -82 43.5 -145
t126.5 -63t126.5 63t43.5 145z" />
    <glyph glyph-name="uni022C" unicode="&#x22c;" horiz-adv-x="757" 
d="M505 859h-250v56h250v-56zM442 794q26 0 41 38l41 -12q-7 -24 -31 -53t-60 -29q-25 0 -65 19t-51 19q-27 0 -42 -38l-40 12q6 23 30.5 51t60.5 28q23 0 61.5 -17.5t54.5 -17.5zM43 345q0 156 97.5 256.5t238.5 100.5t238 -100.5t97 -256.5t-97 -256.5t-238 -100.5
t-238.5 100.5t-97.5 256.5zM124 345q0 -125 71 -212t184 -87t184 87t71 212q0 126 -71 212.5t-184 86.5t-184 -86.5t-71 -212.5z" />
    <glyph glyph-name="uni022D" unicode="&#x22d;" horiz-adv-x="584" 
d="M417 726h-250v58h250v-58zM355 646q31 0 48 35l33 -18q-6 -20 -31 -45.5t-59 -25.5q-26 0 -66 17t-52 17q-32 0 -48 -34l-33 18q7 21 32 45t59 24q24 0 62.5 -16.5t54.5 -16.5zM539 255q0 -113 -69 -190t-178 -77t-178 77t-69 190q0 116 68.5 191.5t178.5 75.5
t178.5 -75.5t68.5 -191.5zM462 255q0 83 -46 145.5t-124 62.5t-124 -62.5t-46 -145.5q0 -82 43.5 -145t126.5 -63t126.5 63t43.5 145z" />
    <glyph glyph-name="uni022E" unicode="&#x22e;" horiz-adv-x="757" 
d="M416 770h-75v100h75v-100zM43 345q0 156 97.5 256.5t238.5 100.5t238 -100.5t97 -256.5t-97 -256.5t-238 -100.5t-238.5 100.5t-97.5 256.5zM124 345q0 -125 71 -212t184 -87t184 87t71 212q0 126 -71 212.5t-184 86.5t-184 -86.5t-71 -212.5z" />
    <glyph glyph-name="uni022F" unicode="&#x22f;" horiz-adv-x="584" 
d="M338 590h-75v100h75v-100zM539 257q0 -114 -69 -191.5t-178 -77.5t-178 77.5t-69 191.5t68.5 189.5t178.5 75.5t178.5 -75.5t68.5 -189.5zM462 254q0 84 -46 146.5t-124 62.5t-124 -62.5t-46 -146.5q0 -81 43.5 -144t126.5 -63t126.5 63t43.5 144z" />
    <glyph glyph-name="uni0230" unicode="&#x230;" horiz-adv-x="757" 
d="M505 879h-250v56h250v-56zM416 750h-75v100h75v-100zM43 345q0 156 97.5 256.5t238.5 100.5t238 -100.5t97 -256.5t-97 -256.5t-238 -100.5t-238.5 100.5t-97.5 256.5zM124 345q0 -125 71 -212t184 -87t184 87t71 212q0 126 -71 212.5t-184 86.5t-184 -86.5t-71 -212.5z
" />
    <glyph glyph-name="uni0231" unicode="&#x231;" horiz-adv-x="584" 
d="M417 726h-250v58h250v-58zM329 578h-75v102h75v-102zM539 255q0 -113 -69 -190t-178 -77t-178 77t-69 190q0 116 68.5 191.5t178.5 75.5t178.5 -75.5t68.5 -191.5zM462 255q0 83 -46 145.5t-124 62.5t-124 -62.5t-46 -145.5q0 -82 43.5 -145t126.5 -63t126.5 63t43.5 145
z" />
    <glyph glyph-name="uni0232" unicode="&#x232;" horiz-adv-x="542" 
d="M399 799h-250v56h250v-56zM530 690l-220 -395v-295h-79v295l-220 395h86l176 -322l176 322h81z" />
    <glyph glyph-name="uni0233" unicode="&#x233;" horiz-adv-x="515" 
d="M386 619h-250v56h250v-56zM20 510h81l153 -454l162 454h81l-269 -720h-77l82 210h-30z" />
    <glyph glyph-name="uni0234" unicode="&#x234;" horiz-adv-x="405" 
d="M179 724v-721q55 32 101 32q54 0 89.5 -33.5t35.5 -90.5q0 -61 -38.5 -94t-95.5 -33q-46 0 -84 23.5t-59 64.5q-26 -31 -62 -83l-46 47q49 69 88 108q0 1 -2 14.5t-2 18.5v702zM278 -29q-44 0 -94 -43q9 -40 33.5 -60t56.5 -20q31 0 47.5 17t16.5 46q0 28 -16.5 44
t-43.5 16z" />
    <glyph glyph-name="uni0235" unicode="&#x235;" horiz-adv-x="718" 
d="M493 356v-353q55 32 101 32q54 0 89.5 -33.5t35.5 -90.5q0 -61 -38.5 -94t-95.5 -33q-46 0 -84 23.5t-59 64.5q-26 -31 -62 -83l-46 47q49 69 88 108q0 1 -2 14.5t-2 18.5v379q0 107 -88 107q-78 0 -178 -75v-388h-75v510h73v-71q109 83 196 83q66 0 105 -40.5t42 -125.5
zM592 -29q-44 0 -94 -43q9 -40 33.5 -60t56.5 -20q31 0 47.5 17t16.5 46q0 28 -16.5 44t-43.5 16z" />
    <glyph glyph-name="uni0236" unicode="&#x236;" horiz-adv-x="409" 
d="M187 206q55 32 101 32q54 0 89.5 -33.5t35.5 -90.5q0 -61 -38.5 -94t-95.5 -33q-46 0 -84 23.5t-59 64.5q-26 -31 -62 -83l-46 47q49 69 88 108q0 1 -2 14.5t-2 18.5v274h-96v56h96v105l75 55v-160h140v-56h-140v-248zM286 174q-44 0 -94 -43q9 -40 33.5 -60t56.5 -20
q31 0 47.5 17t16.5 46q0 28 -16.5 44t-43.5 16z" />
    <glyph glyph-name="dotlessj" unicode="&#x237;" horiz-adv-x="224" 
d="M154 510v-472q0 -76 -18 -128.5t-40 -76.5t-63 -55l-41 50q46 40 66.5 82.5t20.5 128.5v471h75z" />
    <glyph glyph-name="uni0238" unicode="&#x238;" horiz-adv-x="921" 
d="M45 254q0 119 68 193.5t164 74.5q73 0 146 -54v237l75 21v-259q74 55 151 55q96 0 161.5 -72.5t65.5 -191.5t-64.5 -194.5t-159.5 -75.5q-80 0 -193 73q-108 -73 -191 -73q-95 0 -159 73.5t-64 192.5zM798 255q0 97 -48.5 152.5t-116.5 55.5q-71 0 -135 -47v-321
q66 -48 139 -48q66 0 113.5 55.5t47.5 152.5zM122 257q0 -97 48 -153.5t114 -56.5q70 0 139 48v321q-64 47 -136 47q-68 0 -116.5 -54.5t-48.5 -151.5z" />
    <glyph glyph-name="uni0239" unicode="&#x239;" horiz-adv-x="921" 
d="M45 254q0 119 68 193.5t164 74.5t183 -73q95 73 189 73q96 0 161.5 -72.5t65.5 -191.5t-64.5 -194.5t-159.5 -75.5q-82 0 -154 62v-260h-75v260q-72 -62 -155 -62q-95 0 -159 73.5t-64 192.5zM798 255q0 97 -48.5 152.5t-116.5 55.5q-71 0 -135 -47v-321q66 -48 139 -48
q66 0 113.5 55.5t47.5 152.5zM122 257q0 -97 48 -153.5t114 -56.5q70 0 139 48v321q-64 47 -136 47q-68 0 -116.5 -54.5t-48.5 -151.5z" />
    <glyph glyph-name="uni023A" unicode="&#x23a;" horiz-adv-x="589" 
d="M495 0l-64 202h-130l-116 -232h-64l116 232h-79l-64 -202h-77l224 690h108l53 -161l81 161h64l-121 -239l147 -451h-78zM295 635l-119 -376h90l90 180zM413 259l-32 101l-51 -101h83z" />
    <glyph glyph-name="uni023B" unicode="&#x23b;" horiz-adv-x="552" 
d="M522 70l19 -57q-69 -25 -155 -25q-119 0 -207 66l-42 -84h-64l62 124q-92 100 -92 254q0 161 100.5 257.5t245.5 96.5q26 0 50 -3l16 31h64l-21 -41q26 -6 49 -15l-26 -60q-31 14 -51 18l-259 -515q73 -70 183 -70q75 0 128 23zM122 347q0 -103 50 -180l238 475
q-2 0 -12 0.5t-12 0.5q-121 0 -192.5 -85t-71.5 -211z" />
    <glyph glyph-name="uni023C" unicode="&#x23c;" horiz-adv-x="440" 
d="M455 15q-54 -27 -121 -27q-86 0 -149 43l-115 -228h-64l134 267q-62 72 -62 181q0 118 73 194.5t181 76.5q18 0 34 -3l86 171h64l-92 -184q7 -2 17 -6.5t11 -4.5l-27 -54q-23 9 -29 11l-180 -358q51 -46 128 -46q48 0 86 17zM156 254q0 -58 23 -106l158 314
q-79 0 -130 -61t-51 -147z" />
    <glyph glyph-name="uni023D" unicode="&#x23d;" horiz-adv-x="465" 
d="M456 58l-10 -58h-375v326h-58v58h58v306h79v-306h121v-58h-121v-268h306z" />
    <glyph glyph-name="uni023E" unicode="&#x23e;" horiz-adv-x="494" 
d="M483 690v-58h-55l-146 -291v-341h-79v183l-107 -213h-64l171 341v321h-201v58h392l20 40h64l-20 -40h25zM282 632v-164q28 54 82 164h-82z" />
    <glyph glyph-name="uni023F" unicode="&#x23f;" horiz-adv-x="409" 
d="M388 137q0 -69 -54.5 -109t-132.5 -40q-25 0 -55 5l72 -77l33 -32q31 -31 66 -31q44 0 68 40l35 -48q-43 -55 -107 -55q-75 0 -149 88q-107 127 -119 139l-11 13l29 55q64 -38 141 -38q45 0 76 20t31 58q0 32 -28 55.5t-67.5 40t-79 34.5t-67.5 50t-28 77
q0 65 50.5 102.5t129.5 37.5q80 0 152 -37l-27 -55q-69 33 -128 33q-46 0 -74 -18.5t-28 -51.5t28 -57t68 -40t80 -34t68 -49.5t28 -75.5z" />
    <glyph glyph-name="uni0240" unicode="&#x240;" horiz-adv-x="433" 
d="M31 0v60l299 393h-285v57h366v-60l-299 -394q50 -21 103 -77q7 -7 31.5 -36t39 -43.5t36.5 -29t40 -14.5q41 0 65 37l37 -43q-46 -60 -106 -60q-27 0 -50 8.5t-51 34t-44.5 44.5t-56.5 66q-48 57 -125 57z" />
    <glyph glyph-name="uni0241" unicode="&#x241;" horiz-adv-x="530" 
d="M504 452q0 -105 -64.5 -175.5t-144.5 -80.5v-196h-73v261q12 -1 28 -1q67 0 120.5 50.5t53.5 140.5q0 98 -51.5 142t-126.5 44q-44 0 -90 -28t-65 -73l-65 36q27 62 89 96t134 34q109 0 182 -63t73 -187z" />
    <glyph glyph-name="uni0242" unicode="&#x242;" horiz-adv-x="407" 
d="M376 341q0 -66 -40 -113.5t-92 -58.5v-169h-74v210q50 4 89 37t39 98q0 59 -31 90t-78 31q-72 0 -111 -81l-58 24q22 55 67.5 84t106.5 29q79 0 130.5 -50t51.5 -131z" />
    <glyph glyph-name="uni0243" unicode="&#x243;" horiz-adv-x="540" 
d="M507 192q0 -100 -69 -146t-180 -46h-193v164h-58v56h58v470h193q234 0 234 -167q0 -130 -132 -162v-2q147 -31 147 -167zM413 514q0 118 -142 118h-127v-249h95q81 0 127.5 33.5t46.5 97.5zM428 192q0 134 -183 134h-101v-106h116v-56h-116v-106h116q78 0 123 33.5
t45 100.5z" />
    <glyph glyph-name="uni0244" unicode="&#x244;" horiz-adv-x="637" 
d="M568 690v-306h53v-58h-53v-125q0 -101 -69 -157t-182 -56q-112 0 -180.5 55t-68.5 158v125h-55v58h55v306h79v-306h342v306h79zM318 46q75 0 123 38t48 105v137h-342v-137q0 -67 49 -105t122 -38z" />
    <glyph glyph-name="uni0245" unicode="&#x245;" horiz-adv-x="589" 
d="M495 0l-200 635l-201 -635h-77l226 690h106l224 -690h-78z" />
    <glyph glyph-name="uni0246" unicode="&#x246;" horiz-adv-x="519" 
d="M500 58v-58h-369l-15 -30h-64l46 91v629h316l20 40h64l-29 -57v-41h-21l-124 -248h114v-58h-144l-117 -235v-33h323zM177 632v-248h83l124 248h-207zM177 326v-108l53 108h-53z" />
    <glyph glyph-name="uni0247" unicode="&#x247;" horiz-adv-x="520" 
d="M480 690l-87 -198q88 -58 88 -191v-52h-193l-78 -178q40 -24 99 -24q79 0 140 36l27 -48q-26 -19 -76.5 -33t-104.5 -14q-57 0 -111 22l-90 -207h-64l104 238q-86 72 -86 212q0 118 66.5 193.5t170.5 75.5q25 0 55 -7l76 175h64zM281 465q-61 0 -104.5 -47t-50.5 -117
h121l69 159q-18 5 -35 5zM406 301q-1 83 -41 126l-54 -126h95zM124 249q0 -83 41 -136l59 136h-100z" />
    <glyph glyph-name="uni0248" unicode="&#x248;" horiz-adv-x="361" 
d="M290 690v-306h55v-58h-55v-181q0 -79 -47 -117.5t-128 -38.5q-67 0 -112 20l19 58q12 -7 40.5 -13.5t50.5 -6.5q98 0 98 92v187h-167v58h167v306h79z" />
    <glyph glyph-name="uni0249" unicode="&#x249;" horiz-adv-x="217" 
d="M154 588h-75v102h75v-102zM154 510v-126h52v-58h-52v-288q0 -58 -8.5 -100t-28.5 -72t-37 -47t-48 -41l-40 50q45 40 65.5 82.5t20.5 128.5v287h-55v58h55v126h76z" />
    <glyph glyph-name="uni024A" unicode="&#x24a;" horiz-adv-x="665" 
d="M376 -12q-135 0 -232.5 97t-97.5 253q0 162 95 263t238 101q127 0 210 -30v-702q0 -70 17 -93.5t65 -23.5q11 1 31 6l18 -60q-36 -10 -70 -10q-70 0 -105.5 40.5t-35.5 141.5v37q-62 -20 -133 -20zM509 76v538q-24 13 -62 21.5t-66 8.5q-110 0 -182 -85t-72 -219
q0 -131 75.5 -212.5t177.5 -81.5q75 0 129 30z" />
    <glyph glyph-name="uni024B" unicode="&#x24b;" horiz-adv-x="542" 
d="M414 -28v71q-76 -55 -160 -55q-90 0 -154 68t-64 181q0 136 77.5 210.5t206.5 74.5q94 0 170 -28v-520q0 -71 16.5 -96t59.5 -25q17 0 41 7l17 -61q-28 -9 -69 -9q-71 0 -106 40t-35 142zM414 94v352q-53 17 -110 17q-79 0 -135 -55.5t-56 -158.5q0 -96 48.5 -149
t116.5 -53q66 0 136 47z" />
    <glyph glyph-name="uni024C" unicode="&#x24c;" horiz-adv-x="554" 
d="M539 0h-89l-178 305h-104v-305h-79v305h-102v58h102v327h203q108 0 162.5 -48.5t54.5 -138.5q0 -81 -44.5 -128t-113.5 -62zM430 499q0 62 -34.5 97.5t-102.5 35.5h-125v-269h120q64 0 103 34.5t39 101.5z" />
    <glyph glyph-name="uni024D" unicode="&#x24d;" horiz-adv-x="322" 
d="M317 522v-82q-3 0 -8.5 0.5t-8.5 0.5q-43 0 -83.5 -22.5t-67.5 -52.5v-118h127v-55h-127v-193h-75v193h-60v55h60v262h72v-89q31 40 78 70.5t93 30.5z" />
    <glyph glyph-name="uni024E" unicode="&#x24e;" horiz-adv-x="529" 
d="M524 690l-79 -142h74v-57h-106l-109 -196v-295h-79v295l-109 196h-109v57h77l-79 142h86l78 -142h195l79 142h81zM200 491l67 -123l67 123h-134z" />
    <glyph glyph-name="uni024F" unicode="&#x24f;" horiz-adv-x="504" 
d="M13 510h81l56 -167h199l60 167h81l-63 -167h65v-57h-86l-185 -496h-77l82 210h-30l-103 286h-86v57h66zM169 286l78 -230l82 230h-160z" />
    <glyph glyph-name="hsuperior" unicode="&#x2b0;" horiz-adv-x="466" 
d="M401 285h-70v183h-198v-183h-70v405h70v-172h198v172h70v-405z" />
    <glyph glyph-name="jsuperior" unicode="&#x2b2;" horiz-adv-x="275" 
d="M212 690v-312q0 -51 -34.5 -76.5t-88.5 -25.5q-48 0 -86 18l17 51q11 -6 34 -12t34 -6q23 0 38 11.5t15 33.5v318h71z" />
    <glyph glyph-name="wsuperior" unicode="&#x2b7;" horiz-adv-x="593" 
d="M571 690l-119 -405h-73l-84 301h-1l-84 -301h-74l-117 405h71l85 -319l88 319h64l88 -319h1l83 319h72z" />
    <glyph glyph-name="ysuperior" unicode="&#x2b8;" horiz-adv-x="384" 
d="M372 690l-145 -233v-172h-70v172l-147 233h76l106 -171l106 171h74z" />
    <glyph glyph-name="uni02BB" unicode="&#x2bb;" horiz-adv-x="164" 
d="M120 613v-87h-83v87l42 83h44l-37 -83h34z" />
    <glyph glyph-name="apostrophe" unicode="&#x2bc;" horiz-adv-x="146" 
d="M33 609v87h83v-87l-42 -83h-44l37 83h-34z" />
    <glyph glyph-name="uni02BD" unicode="&#x2bd;" horiz-adv-x="164" 
d="M120 696v-87h-34l37 -83h-44l-42 83v87h83z" />
    <glyph glyph-name="uni02BE" unicode="&#x2be;" horiz-adv-x="333" 
d="M214 655q0 -39 -27 -68q-29 -27 -68 -27v52q18 0 30.5 12.5t12.5 30.5t-12.5 31t-30.5 13v52q40 0 68 -28q27 -27 27 -68z" />
    <glyph glyph-name="uni02BF" unicode="&#x2bf;" horiz-adv-x="333" 
d="M214 560q-40 0 -68 27q-27 29 -27 68q0 41 27 68q28 28 68 28v-52q-18 0 -30.5 -13t-12.5 -31t12.5 -30.5t30.5 -12.5v-52z" />
    <glyph glyph-name="uni02C1" unicode="&#x2c1;" horiz-adv-x="333" 
d="M335 425l-46 -47l-122 122l-123 -122l-46 47l122 122l-122 122l46 47l123 -123l122 123l46 -47l-122 -122z" />
    <glyph glyph-name="circumflex" unicode="&#x2c6;" horiz-adv-x="291" 
d="M276 568h-55l-76 75l-75 -75h-55l82 122h95z" />
    <glyph glyph-name="caron" unicode="&#x2c7;" horiz-adv-x="291" 
d="M221 690h55l-84 -122h-95l-82 122h55l75 -75z" />
    <glyph glyph-name="uni02C8" unicode="&#x2c8;" horiz-adv-x="333" 
d="M191 554h-50v162h50v-162z" />
    <glyph glyph-name="uni02C9" unicode="&#x2c9;" horiz-adv-x="290" 
d="M270 604h-250v56h250v-56z" />
    <glyph glyph-name="uni02D0" unicode="&#x2d0;" horiz-adv-x="278" 
d="M89 519h100l-44 -101h-12zM145 100l44 -100h-100l44 100h12z" />
    <glyph glyph-name="uni02D1" unicode="&#x2d1;" horiz-adv-x="278" 
d="M89 519h100l-44 -101h-12z" />
    <glyph glyph-name="uni02D2" unicode="&#x2d2;" horiz-adv-x="333" 
d="M210 140q0 -39 -25 -65q-26 -26 -62 -26v36q21 0 36 17q14 16 14 38q0 20 -15 36t-35 16v36q34 0 62 -26q25 -25 25 -62z" />
    <glyph glyph-name="uni02D3" unicode="&#x2d3;" horiz-adv-x="333" 
d="M210 85v-36q-35 0 -63 26q-24 27 -24 65q0 37 25 62q28 26 62 26v-36q-20 0 -35 -16t-15 -36q0 -22 14 -38q15 -17 36 -17z" />
    <glyph glyph-name="uni02D4" unicode="&#x2d4;" horiz-adv-x="333" 
d="M251 137v-50h-170v50h60v112h50v-112h60z" />
    <glyph glyph-name="uni02D5" unicode="&#x2d5;" horiz-adv-x="333" 
d="M251 249v-50h-60v-112h-50v112h-60v50h170z" />
    <glyph glyph-name="uni02D6" unicode="&#x2d6;" horiz-adv-x="333" 
d="M251 193v-50h-60v-56h-50v56h-60v50h60v56h50v-56h60z" />
    <glyph glyph-name="uni02D7" unicode="&#x2d7;" horiz-adv-x="333" 
d="M319 204v-73h-305v73h305z" />
    <glyph glyph-name="breve" unicode="&#x2d8;" horiz-adv-x="300" 
d="M280 690q0 -56 -35.5 -90t-94.5 -34t-94.5 34t-35.5 90h54q0 -32 21.5 -51t54.5 -19q32 0 54 19t22 51h54z" />
    <glyph glyph-name="dotaccent" unicode="&#x2d9;" horiz-adv-x="215" 
d="M145 590h-75v100h75v-100z" />
    <glyph glyph-name="ring" unicode="&#x2da;" horiz-adv-x="286" 
d="M247 667q0 -42 -31 -72t-73 -30t-73 30t-31 72t31 72t73 30t73 -30t31 -72zM203 667q0 25 -17.5 43.5t-42.5 18.5t-42.5 -18.5t-17.5 -43.5t17.5 -43.5t42.5 -18.5t42.5 18.5t17.5 43.5z" />
    <glyph glyph-name="ogonek" unicode="&#x2db;" horiz-adv-x="207" 
d="M172 -163v-41q-23 -5 -43 -5q-41 0 -65 19.5t-24 47.5q0 63 67 142h56q-57 -70 -57 -128q0 -38 48 -38q9 0 18 3z" />
    <glyph glyph-name="tilde" unicode="&#x2dc;" horiz-adv-x="329" 
d="M227 654q26 0 41 38l41 -12q-7 -24 -31 -53t-60 -29q-25 0 -65 19t-51 19q-27 0 -42 -38l-40 12q6 23 30.5 51t60.5 28q23 0 61.5 -17.5t54.5 -17.5z" />
    <glyph glyph-name="hungarumlaut" unicode="&#x2dd;" horiz-adv-x="339" 
d="M168 690l-65 -122h-63l50 122h78zM299 690l-65 -122h-63l50 122h78z" />
    <glyph glyph-name="uni02DE" unicode="&#x2de;" horiz-adv-x="333" 
d="M292 212q-62 -31 -129 -31q-50 0 -78 42t-35 110l-56 -12l-9 57l119 23q8 -83 27 -121t53 -38q41 0 97 32z" />
    <glyph glyph-name="xsuperior" unicode="&#x2e3;" horiz-adv-x="404" 
d="M312 285l-113 160l-113 -160h-76l152 212l-141 193h80l103 -147l104 147h75l-140 -196l150 -209h-81z" />
    <glyph glyph-name="uni02E5" unicode="&#x2e5;" horiz-adv-x="383" 
d="M310 716v-716h-77v640h-160v76h237z" />
    <glyph glyph-name="uni02E6" unicode="&#x2e6;" horiz-adv-x="383" 
d="M310 716v-716h-77v479h-160v77h160v160h77z" />
    <glyph glyph-name="uni02E7" unicode="&#x2e7;" horiz-adv-x="383" 
d="M310 716v-716h-77v320h-160v76h160v320h77z" />
    <glyph glyph-name="uni02E8" unicode="&#x2e8;" horiz-adv-x="383" 
d="M310 716v-716h-77v160h-160v76h160v480h77z" />
    <glyph glyph-name="uni02E9" unicode="&#x2e9;" horiz-adv-x="383" 
d="M310 716v-716h-237v76h160v640h77z" />
    <glyph glyph-name="uni02EA" unicode="&#x2ea;" horiz-adv-x="333" 
d="M286 46v-46h-238v430h46v-384h192z" />
    <glyph glyph-name="uni02EB" unicode="&#x2eb;" horiz-adv-x="333" 
d="M286 238v-46h-192v-192h-46v430h46v-192h192z" />
    <glyph glyph-name="uni02EC" unicode="&#x2ec;" horiz-adv-x="333" 
d="M242 -75h55l-84 -122h-95l-82 122h55l75 -75z" />
    <glyph glyph-name="uni02ED" unicode="&#x2ed;" horiz-adv-x="333" 
d="M319 691h-305v53h305v-53zM319 593h-305v52h305v-52z" />
    <glyph glyph-name="uni02EE" unicode="&#x2ee;" horiz-adv-x="298" 
d="M39 603v87h83v-87l-42 -83h-44l37 83h-34zM179 603v87h83v-87l-42 -83h-44l37 83h-34z" />
    <glyph glyph-name="uni02EF" unicode="&#x2ef;" horiz-adv-x="333" 
d="M267 -35l-89 -137h-25l-89 137h56l46 -83l45 83h56z" />
    <glyph glyph-name="uni02F0" unicode="&#x2f0;" horiz-adv-x="333" 
d="M267 -172h-56l-45 83l-46 -83h-56l89 137h25z" />
    <glyph glyph-name="uni02F1" unicode="&#x2f1;" horiz-adv-x="333" 
d="M235 -205l-137 88v26l137 88v-56l-83 -45l83 -45v-56z" />
    <glyph glyph-name="uni02F2" unicode="&#x2f2;" horiz-adv-x="333" 
d="M235 -117l-137 -88v56l83 45l-83 45v56l137 -88v-26z" />
    <glyph glyph-name="uni02F3" unicode="&#x2f3;" horiz-adv-x="333" 
d="M262 -115q0 -40 -28 -68q-27 -27 -67 -27t-68 28q-28 27 -28 67q0 41 28 68q27 28 68 28q40 0 67 -27q28 -28 28 -69zM210 -115q0 18 -13 31t-30 13q-18 0 -31 -13t-13 -31t13 -30.5t31 -12.5q17 0 30 12.5t13 30.5z" />
    <glyph glyph-name="uni02F8" unicode="&#x2f8;" horiz-adv-x="333" 
d="M235 579h-137v137h137v-137zM235 197h-137v137h137v-137z" />
    <glyph glyph-name="uni02F9" unicode="&#x2f9;" horiz-adv-x="333" 
d="M253 666h-120v-112h-50v162h170v-50z" />
    <glyph glyph-name="uni02FA" unicode="&#x2fa;" horiz-adv-x="333" 
d="M253 554h-50v112h-120v50h170v-162z" />
    <glyph glyph-name="uni02FB" unicode="&#x2fb;" horiz-adv-x="333" 
d="M253 -199h-170v162h50v-111h120v-51z" />
    <glyph glyph-name="uni02FC" unicode="&#x2fc;" horiz-adv-x="333" 
d="M253 -199h-170v51h120v111h50v-162z" />
    <glyph glyph-name="uni02FD" unicode="&#x2fd;" horiz-adv-x="397" 
d="M383 -205h-368v184h55v-129h258v129h55v-184z" />
    <glyph glyph-name="uni02FE" unicode="&#x2fe;" horiz-adv-x="397" 
d="M383 -205h-368v184h55v-129h313v-55z" />
    <glyph glyph-name="uni02FF" unicode="&#x2ff;" horiz-adv-x="333" 
d="M305 -86h-214l81 -119h-46l-98 138v7l98 138h46l-81 -119h214v-45z" />
    <glyph glyph-name="gravecomb" unicode="&#x300;" horiz-adv-x="112" 
d="M-13 651l-65 122h81l50 -122h-66z" />
    <glyph glyph-name="acutecomb" unicode="&#x301;" horiz-adv-x="112" 
d="M63 773l-65 -122h-66l50 122h81z" />
    <glyph glyph-name="uni0302" unicode="&#x302;" horiz-adv-x="301" 
d="M281 568h-55l-76 75l-75 -75h-55l82 122h95z" />
    <glyph glyph-name="tildecomb" unicode="&#x303;" horiz-adv-x="329" 
d="M227 656q31 0 49 35l33 -18q-7 -21 -32 -46t-59 -25q-25 0 -65 17t-52 17q-33 0 -49 -34l-32 18q7 20 32 44.5t58 24.5q25 0 63.5 -16.5t53.5 -16.5z" />
    <glyph glyph-name="uni0304" unicode="&#x304;" horiz-adv-x="290" 
d="M270 619h-250v56h250v-56z" />
    <glyph glyph-name="uni0305" unicode="&#x305;" horiz-adv-x="394" 
d="M372 619h-350v56h350v-56z" />
    <glyph glyph-name="uni0306" unicode="&#x306;" horiz-adv-x="300" 
d="M280 690q0 -56 -35.5 -90t-94.5 -34t-94.5 34t-35.5 90h54q0 -32 21.5 -51t54.5 -19q32 0 54 19t22 51h54z" />
    <glyph glyph-name="uni0307" unicode="&#x307;" horiz-adv-x="235" 
d="M155 581h-75v101h75v-101z" />
    <glyph glyph-name="uni0308" unicode="&#x308;" horiz-adv-x="320" 
d="M115 581h-75v101h75v-101zM280 581h-75v101h75v-101z" />
    <glyph glyph-name="hookabovecomb" unicode="&#x309;" horiz-adv-x="333" 
d="M128 738q-14 0 -36 -3l-2 43q24 6 48 6q45 0 73.5 -19t28.5 -54q0 -63 -73 -78l-2 -28h-45v62q62 5 62 40q0 31 -54 31z" />
    <glyph glyph-name="uni030A" unicode="&#x30a;" horiz-adv-x="286" 
d="M247 667q0 -42 -31 -72t-73 -30t-73 30t-31 72t31 72t73 30t73 -30t31 -72zM203 667q0 25 -17.5 43.5t-42.5 18.5t-42.5 -18.5t-17.5 -43.5t17.5 -43.5t42.5 -18.5t42.5 18.5t17.5 43.5z" />
    <glyph glyph-name="uni030B" unicode="&#x30b;" horiz-adv-x="367" 
d="M182 690l-65 -122h-63l50 122h78zM313 690l-65 -122h-63l50 122h78z" />
    <glyph glyph-name="uni030C" unicode="&#x30c;" horiz-adv-x="301" 
d="M226 690h55l-84 -122h-95l-82 122h55l75 -75z" />
    <glyph glyph-name="uni030D" unicode="&#x30d;" 
d="M26 716v-162h-50v162h50z" />
    <glyph glyph-name="uni030E" unicode="&#x30e;" 
d="M78 716v-162h-51v162h51zM-25 716v-162h-50v162h50z" />
    <glyph glyph-name="uni030F" unicode="&#x30f;" horiz-adv-x="367" 
d="M250 568l-65 122h78l50 -122h-63zM119 568l-65 122h78l50 -122h-63z" />
    <glyph glyph-name="uni0310" unicode="&#x310;" 
d="M37 708h-73v97h73v-97zM0 577q-62 0 -97.5 32.5t-39.5 92.5h51q3 -35 26.5 -54.5t58.5 -19.5q36 0 60 19.5t27 54.5h51q-4 -60 -39.5 -92.5t-97.5 -32.5z" />
    <glyph glyph-name="uni0311" unicode="&#x311;" horiz-adv-x="300" 
d="M280 566h-54q0 31 -22 50t-54 19q-33 0 -54.5 -19t-21.5 -50h-54q0 56 35.5 90t94.5 34t94.5 -34t35.5 -90z" />
    <glyph glyph-name="uni0312" unicode="&#x312;" horiz-adv-x="209" 
d="M143 649v-86h-83v86l41 83h44l-37 -83h35z" />
    <glyph glyph-name="uni0313" unicode="&#x313;" horiz-adv-x="209" 
d="M62 646v86h83v-86l-41 -83h-44l37 83h-35z" />
    <glyph glyph-name="uni0314" unicode="&#x314;" horiz-adv-x="209" 
d="M143 732v-86h-35l37 -83h-44l-41 83v86h83z" />
    <glyph glyph-name="uni0315" unicode="&#x315;" horiz-adv-x="209" 
d="M62 563v86h35l-37 83h44l41 -83v-86h-83z" />
    <glyph glyph-name="uni0316" unicode="&#x316;" horiz-adv-x="225" 
d="M117 -194l-65 122h81l50 -122h-66z" />
    <glyph glyph-name="uni0317" unicode="&#x317;" horiz-adv-x="225" 
d="M183 -72l-65 -122h-66l50 122h81z" />
    <glyph glyph-name="uni0318" unicode="&#x318;" 
d="M79 -37v-162h-51v56h-120v51h120v55h51z" />
    <glyph glyph-name="uni0319" unicode="&#x319;" 
d="M92 -92v-51h-120v-56h-51v162h51v-55h120z" />
    <glyph glyph-name="uni031A" unicode="&#x31a;" 
d="M184 816v-225h-63v163h-305v62h368z" />
    <glyph glyph-name="horncmb" unicode="&#x31b;" 
d="M128 716v-81q0 -143 -138 -143v36q90 0 90 86h-46v102h94z" />
    <glyph glyph-name="uni031C" unicode="&#x31c;" 
d="M44 -174v-36q-38 0 -63 26t-25 65q0 36 26 61.5t62 25.5v-35q-21 0 -36 -16t-15 -37q0 -22 15 -38t36 -16z" />
    <glyph glyph-name="uni031D" unicode="&#x31d;" 
d="M85 -148v-51h-170v51h60v111h50v-111h60z" />
    <glyph glyph-name="uni031E" unicode="&#x31e;" 
d="M85 -37v-50h-60v-112h-50v112h-60v50h170z" />
    <glyph glyph-name="uni031F" unicode="&#x31f;" 
d="M85 -92v-51h-60v-56h-50v56h-60v51h60v55h50v-55h60z" />
    <glyph glyph-name="uni0320" unicode="&#x320;" 
d="M153 -73v-73h-305v73h305z" />
    <glyph glyph-name="uni0321" unicode="&#x321;" 
d="M88 76v-104q0 -97 -25 -134q-31 -48 -105 -48q-36 0 -69 9l16 75q25 -7 42 -7q37 0 48 38q5 18 5 69v102h88z" />
    <glyph glyph-name="uni0322" unicode="&#x322;" 
d="M183 -126l16 -75q-33 -9 -69 -9q-74 0 -105 48q-25 37 -25 134v104h88v-102q0 -50 5 -70q10 -37 48 -37q17 0 42 7z" />
    <glyph glyph-name="dotbelowcomb" unicode="&#x323;" horiz-adv-x="235" 
d="M155 -177h-75v101h75v-101z" />
    <glyph glyph-name="uni0324" unicode="&#x324;" horiz-adv-x="320" 
d="M116 -181h-75v101h75v-101zM279 -181h-75v101h75v-101z" />
    <glyph glyph-name="uni0325" unicode="&#x325;" horiz-adv-x="286" 
d="M247 -145q0 -42 -31 -72t-73 -30t-73 30t-31 72t31 72t73 30t73 -30t31 -72zM203 -145q0 25 -17.5 43.5t-42.5 18.5t-42.5 -18.5t-17.5 -43.5t17.5 -43.5t42.5 -18.5t42.5 18.5t17.5 43.5z" />
    <glyph glyph-name="uni0326" unicode="&#x326;" horiz-adv-x="209" 
d="M60 -159v87h83v-87l-42 -83h-44l37 83h-34z" />
    <glyph glyph-name="uni0327" unicode="&#x327;" horiz-adv-x="244" 
d="M99 0h54l-26 -54q33 -4 59.5 -23.5t26.5 -55.5q0 -44 -32.5 -66.5t-73.5 -22.5q-46 0 -72 18l16 41q26 -15 54 -15q19 0 32 11t13 31q0 41 -72 41h-26z" />
    <glyph glyph-name="uni0328" unicode="&#x328;" horiz-adv-x="225" 
d="M179 -224v-45q-22 -5 -45 -5q-39 0 -63.5 19.5t-24.5 52.5q0 64 67 137h58q-59 -71 -59 -121q0 -41 48 -41q10 0 19 3z" />
    <glyph glyph-name="uni0329" unicode="&#x329;" 
d="M26 -37v-162h-50v162h50z" />
    <glyph glyph-name="uni032A" unicode="&#x32a;" 
d="M184 -27v-183h-61v120h-246v-120h-61v183h368z" />
    <glyph glyph-name="uni032B" unicode="&#x32b;" 
d="M122 -61h37q0 -43 -22 -71q-24 -29 -67 -29q-44 0 -70 33q-26 -33 -70 -33q-42 0 -66 29q-23 29 -23 71h38q0 -57 52 -57q50 0 50 57h38q0 -57 52 -57q51 0 51 57z" />
    <glyph glyph-name="uni032C" unicode="&#x32c;" horiz-adv-x="301" 
d="M226 -72h55l-84 -122h-95l-82 122h55l75 -75z" />
    <glyph glyph-name="uni032D" unicode="&#x32d;" horiz-adv-x="301" 
d="M281 -194h-55l-76 75l-75 -75h-55l82 122h95z" />
    <glyph glyph-name="uni032E" unicode="&#x32e;" horiz-adv-x="300" 
d="M280 -72q0 -56 -35.5 -90t-94.5 -34t-94.5 34t-35.5 90h54q0 -32 21.5 -51t54.5 -19q32 0 54 19t22 51h54z" />
    <glyph glyph-name="uni032F" unicode="&#x32f;" horiz-adv-x="300" 
d="M280 -196h-54q0 31 -22 50t-54 19q-33 0 -54.5 -19t-21.5 -50h-54q0 56 35.5 90t94.5 34t94.5 -34t35.5 -90z" />
    <glyph glyph-name="uni0330" unicode="&#x330;" horiz-adv-x="329" 
d="M227 -107q31 0 49 35l33 -18q-7 -21 -32 -46t-59 -25q-25 0 -65 17t-52 17q-33 0 -49 -34l-32 18q7 20 32 44.5t58 24.5q25 0 63.5 -16.5t53.5 -16.5z" />
    <glyph glyph-name="uni0331" unicode="&#x331;" horiz-adv-x="290" 
d="M270 -128h-250v56h250v-56z" />
    <glyph glyph-name="uni0332" unicode="&#x332;" horiz-adv-x="394" 
d="M382 -128h-370v56h370v-56z" />
    <glyph glyph-name="uni0333" unicode="&#x333;" horiz-adv-x="394" 
d="M382 -118h-370v55h370v-55zM382 -208h-370v56h370v-56z" />
    <glyph glyph-name="uni0334" unicode="&#x334;" 
d="M101 223h64q-3 -112 -96 -112q-32 0 -81 28q-34 17 -48 17q-38 0 -37 -46h-65q-1 45 25 78q28 33 74 33q29 0 83 -26q28 -15 45 -15q30 0 36 43z" />
    <glyph glyph-name="uni0335" unicode="&#x335;" 
d="M153 204v-73h-305v73h305z" />
    <glyph glyph-name="uni0336" unicode="&#x336;" 
d="M292 200v-64h-583v64h583z" />
    <glyph glyph-name="uni0337" unicode="&#x337;" 
d="M195 465l44 -44l-434 -435l-44 45z" />
    <glyph glyph-name="uni0338" unicode="&#x338;" 
d="M70 728h70l-207 -740h-71z" />
    <glyph glyph-name="uni0339" unicode="&#x339;" 
d="M44 -119q0 -39 -25 -65t-63 -26v36q21 0 36 16t15 38q0 21 -15 37t-36 16v35q36 0 62 -25.5t26 -61.5z" />
    <glyph glyph-name="uni033A" unicode="&#x33a;" 
d="M184 -21v-184h-368v184h75v-109h218v109h75z" />
    <glyph glyph-name="uni033B" unicode="&#x33b;" 
d="M92 -27v-183h-184v183h184zM-48 -167h96v96h-96v-96z" />
    <glyph glyph-name="uni033C" unicode="&#x33c;" 
d="M160 -137h-38q-8 33 -47 33q-24 0 -40 -20t-16 -47h-38q0 25 -15 45q-16 22 -41 22q-39 0 -47 -33h-37q13 76 84 76q57 0 75 -43q18 43 76 43q71 0 84 -76z" />
    <glyph glyph-name="uni033D" unicode="&#x33d;" 
d="M45 662l63 -63l-45 -45l-63 63l-63 -63l-45 45l63 63l-63 63l45 45l63 -63l63 63l45 -45z" />
    <glyph glyph-name="uni033E" unicode="&#x33e;" 
d="M48 804v-44q-51 -3 -51 -29q0 -10 25 -42q25 -31 25 -58q0 -71 -97 -77v44q51 2 51 28q0 13 -25 44q-25 32 -25 57q0 73 97 77z" />
    <glyph glyph-name="uni033F" unicode="&#x33f;" 
d="M292 896v-64h-583v64h583zM292 803v-63h-583v63h583z" />
    <glyph glyph-name="uni0340" unicode="&#x340;" horiz-adv-x="225" 
d="M123 748l-65 122h81l50 -122h-66z" />
    <glyph glyph-name="uni0341" unicode="&#x341;" horiz-adv-x="225" 
d="M179 870l-65 -122h-66l50 122h81z" />
    <glyph glyph-name="uni0342" unicode="&#x342;" horiz-adv-x="329" 
d="M225 805q28 0 43 37l41 -12q-7 -25 -31.5 -53.5t-59.5 -28.5q-25 0 -65 18.5t-51 18.5q-27 0 -42 -37l-40 12q5 21 30 50t60 29q24 0 62.5 -17t52.5 -17z" />
    <glyph glyph-name="uni0343" unicode="&#x343;" horiz-adv-x="209" 
d="M62 673v87h83v-87l-41 -83h-44l37 83h-35z" />
    <glyph glyph-name="uni0344" unicode="&#x344;" horiz-adv-x="420" 
d="M287 698l-75 -117h-72l60 117h87zM120 581h-79v104h79v-104zM379 581h-79v104h79v-104z" />
    <glyph glyph-name="uni0345" unicode="&#x345;" 
d="M24 -62l20 -137h-88l20 137h48z" />
    <glyph glyph-name="uni0346" unicode="&#x346;" 
d="M184 767v-184h-61v121h-246v-121h-61v184h368z" />
    <glyph glyph-name="uni0347" unicode="&#x347;" 
d="M292 -57v-63h-583v63h583zM292 -149v-63h-583v63h583z" />
    <glyph glyph-name="uni0348" unicode="&#x348;" 
d="M78 -37v-162h-51v162h51zM-25 -37v-162h-50v162h50z" />
    <glyph glyph-name="uni0349" unicode="&#x349;" 
d="M79 -37v-162h-51v112h-120v50h171z" />
    <glyph glyph-name="uni034A" unicode="&#x34a;" 
d="M100 708h63q-3 -111 -96 -111q-23 0 -60 17l-30 -55l-44 24l28 53q-13 6 -23 6q-39 0 -37 -47h-65q0 47 26 78q27 34 74 34q22 0 57 -15l29 54l44 -25l-27 -50q15 -5 25 -5q30 0 36 42z" />
    <glyph glyph-name="uni034B" unicode="&#x34b;" 
d="M38 780h-75v100h75v-100zM63 724q26 0 41 38l41 -12q-7 -24 -31 -53t-60 -29q-25 0 -65 19t-51 19q-27 0 -42 -38l-40 12q6 23 30.5 51t60.5 28q23 0 61.5 -17.5t54.5 -17.5zM38 540h-75v100h75v-100z" />
    <glyph glyph-name="uni034C" unicode="&#x34c;" 
d="M62 779q27 0 40 47l52 -6q-3 -39 -28 -68t-65 -29q-19 0 -66.5 22.5t-58.5 22.5q-29 0 -38 -45l-52 6q2 32 28.5 63.5t66.5 31.5q19 0 63 -22.5t58 -22.5zM62 653q27 0 40 47l52 -6q-3 -39 -28 -68t-65 -29q-21 0 -66.5 23.5t-56.5 23.5q-33 0 -40 -48l-52 6
q2 33 29 64.5t66 31.5q19 0 63 -22.5t58 -22.5z" />
    <glyph glyph-name="uni034D" unicode="&#x34d;" 
d="M60 -28l64 -85l-64 -85v60h-120v-60l-64 85l64 85v-60h120v60z" />
    <glyph glyph-name="uni034E" unicode="&#x34e;" 
d="M0 -21l85 -64h-60v-120h-50v120h-60z" />
    <glyph glyph-name="uni034F" unicode="&#x34f;" 
d="M359 719v-157h-48v108h-109v49h157zM79 719v-49h-158v49h158zM-202 719v-49h-109v-108h-49v157h158zM24 578q0 -25 -24 -25t-24 25q0 24 24 24t24 -24zM109 560q0 -24 -23 -24q-25 0 -25 24t25 24q23 0 23 -24zM-60 560q0 -24 -25 -24q-24 0 -24 24t24 24q25 0 25 -24z
M182 512q0 -24 -24 -24q-25 0 -25 24q0 25 25 25q24 0 24 -25zM-132 512q0 -24 -25 -24q-24 0 -24 22q0 27 24 27q25 0 25 -25zM230 439q0 -24 -25 -24q-24 0 -24 24t25 24q24 0 24 -24zM-181 439q0 -24 -23 -24q-25 0 -25 24t24 24t24 -24zM359 438v-157h-48v157h48z
M-311 438v-157h-49v157h49zM248 354q0 -24 -24 -24q-25 0 -25 24q0 25 25 25q24 0 24 -25zM-197 354q0 -24 -25 -24q-24 0 -24 24q0 25 24 25q25 0 25 -25zM230 270q0 -24 -25 -24q-24 0 -24 24t24 24q25 0 25 -24zM-181 270q0 -24 -24 -24t-24 24t24 24t24 -24zM183 196
q0 -24 -25 -24q-24 0 -24 24q0 25 24 25q25 0 25 -25zM-132 196q0 -24 -25 -24q-24 0 -24 24q0 25 24 25q25 0 25 -25zM110 148q0 -23 -24 -23q-25 0 -25 23q0 26 25 26q24 0 24 -26zM-60 150q0 -25 -25 -25q-24 0 -24 23q0 26 24 26q25 0 25 -24zM359 158v-158h-157v49h109
v109h48zM-202 49v-49h-158v158h49v-109h109zM24 132q0 -25 -24 -25t-24 25q0 24 24 24t24 -24zM79 49v-49h-158v49h158z" />
    <glyph glyph-name="uni0350" unicode="&#x350;" 
d="M68 676v-26l-137 -88v56l83 45l-83 45v56z" />
    <glyph glyph-name="uni0351" unicode="&#x351;" 
d="M43 599v-37q-37 0 -62 26.5t-25 64.5q0 36 25.5 62t61.5 26v-36q-21 0 -35.5 -15.5t-14.5 -36.5q0 -22 14.5 -38t35.5 -16z" />
    <glyph glyph-name="uni0352" unicode="&#x352;" 
d="M144 688h-60q-14 66 -87 66q-67 0 -81 -66h-61q16 127 145 127t144 -127zM46 688v-100h-91v100h91z" />
    <glyph glyph-name="uni0353" unicode="&#x353;" 
d="M45 -108l63 -63l-45 -45l-63 63l-63 -63l-45 45l63 63l-63 63l45 45l63 -63l63 63l45 -45z" />
    <glyph glyph-name="uni0354" unicode="&#x354;" 
d="M68 -149v-56l-137 88v26l137 88v-56l-83 -45z" />
    <glyph glyph-name="uni0355" unicode="&#x355;" 
d="M68 -91v-26l-137 -88v56l83 45l-83 45v56z" />
    <glyph glyph-name="uni0356" unicode="&#x356;" 
d="M0 -91v-26l-137 -88v56l83 45l-83 45v56zM114 -35l88 -137h-56l-45 83l-45 -83h-56l88 137h26z" />
    <glyph glyph-name="uni0357" unicode="&#x357;" 
d="M43 653q0 -38 -25 -64.5t-62 -26.5v37q21 0 35.5 16t14.5 38q0 21 -14.5 36.5t-35.5 15.5v36q36 0 61.5 -26t25.5 -62z" />
    <glyph glyph-name="uni0358" unicode="&#x358;" 
d="M207 628q0 -22 -19 -34q-8 -7 -21 -7q-17 0 -29 12.5t-12 28.5q0 17 11.5 28.5t29.5 11.5q40 0 40 -40z" />
    <glyph glyph-name="uni0359" unicode="&#x359;" 
d="M80 -73l13 -40q-34 -12 -70 -15q18 -15 49 -54l-34 -24q-18 24 -39 61q-21 -40 -36 -61l-33 24q34 43 46 54l-69 15l13 40q46 -15 65 -27l-6 70h42q-2 -31 -7 -70q28 15 66 27z" />
    <glyph glyph-name="uni035A" unicode="&#x35a;" 
d="M159 -121q0 -37 -25.5 -63t-62.5 -26q-43 0 -70 35q-27 -35 -71 -35q-36 0 -61.5 26.5t-25.5 64.5q0 35 26.5 61t60.5 26q45 0 71 -35q1 3 9 9q26 26 60 26q38 0 63.5 -25.5t25.5 -63.5zM123 -121q0 22 -15 37.5t-37 15.5t-37 -15t-15 -37t15 -38t37 -16t37 15t15 38z
M-17 -121q0 22 -14.5 37.5t-37.5 15.5q-22 0 -37 -15t-15 -37t15 -38t37 -16q23 0 37.5 15t14.5 38z" />
    <glyph glyph-name="uni035B" unicode="&#x35b;" 
d="M-29 696h125l-47 -142h-50l29 92h-125l47 143h50z" />
    <glyph glyph-name="uni035C" unicode="&#x35c;" 
d="M630 -24h60q-117 -186 -387 -186t-387 186h60q90 -126 327 -126t327 126z" />
    <glyph glyph-name="uni035D" unicode="&#x35d;" 
d="M630 774h60q-117 -186 -387 -186t-387 186h60q90 -126 327 -126t327 126z" />
    <glyph glyph-name="uni035E" unicode="&#x35e;" 
d="M498 702v-63h-582v63h582z" />
    <glyph glyph-name="uni035F" unicode="&#x35f;" 
d="M498 -83v-63h-582v63h582z" />
    <glyph glyph-name="uni0360" unicode="&#x360;" 
d="M625 750h65q-17 -66 -72 -109t-121 -43q-63 0 -197 41q-130 42 -198 42q-39 0 -74 -25q-36 -26 -48 -61h-64q16 65 72 108q55 44 120 44q63 0 198 -42q138 -41 197 -41q39 0 74.5 24.5t47.5 61.5z" />
    <glyph glyph-name="uni0361" unicode="&#x361;" 
d="M690 588h-60q-90 126 -327 126t-327 -126h-60q117 186 387 186t387 -186z" />
    <glyph glyph-name="uni0362" unicode="&#x362;" 
d="M414 -28l63 -85l-63 -85v60h-498v50h498v60z" />
    <glyph glyph-name="uni0363" unicode="&#x363;" horiz-adv-x="352" 
d="M58 519q-6 15 -20 43q57 37 140 37q120 0 120 -105v-260h-61l-3 35q-51 -43 -100 -43q-51 0 -81.5 26.5t-30.5 73.5q0 61 45 90t141 29q4 0 11 -1.5t11 -1.5v49q0 27 -17.5 42t-48.5 15q-46 0 -106 -29zM230 298v102q-13 2 -38 2q-55 0 -77 -18.5t-22 -51.5
q0 -25 17 -41.5t46 -16.5q39 0 74 24z" />
    <glyph glyph-name="uni0364" unicode="&#x364;" horiz-adv-x="374" 
d="M319 302l22 -38q-49 -35 -131 -35t-128.5 50.5t-46.5 132.5t45 135t120 53q68 0 105 -43.5t37 -116.5v-31h-237q1 -57 30 -94t87 -37q49 0 97 24zM106 448h168q-2 48 -21.5 78.5t-55.5 30.5q-40 0 -64.5 -32.5t-26.5 -76.5z" />
    <glyph glyph-name="uni0365" unicode="&#x365;" horiz-adv-x="177" 
d="M122 640h-68v76h68v-76zM122 234h-68v357h68v-357z" />
    <glyph glyph-name="uni0366" unicode="&#x366;" horiz-adv-x="417" 
d="M383 411q0 -79 -48.5 -132t-126.5 -53q-80 0 -128 53t-48 132q0 84 47.5 136t128.5 52t128 -52t47 -136zM311 411q0 55 -27 95.5t-76 40.5q-50 0 -77 -40.5t-27 -95.5t25.5 -95t78.5 -40q52 0 77.5 40t25.5 95z" />
    <glyph glyph-name="uni0367" unicode="&#x367;" horiz-adv-x="402" 
d="M52 591h68v-251q0 -61 64 -61q47 0 96 43v269h69v-357h-66v47q-62 -55 -122 -55q-46 0 -77.5 26t-31.5 88v251z" />
    <glyph glyph-name="uni0368" unicode="&#x368;" horiz-adv-x="316" 
d="M222 279q27 0 58 11l21 -41q-35 -20 -86 -20q-82 0 -131.5 50t-49.5 134t51 135.5t124 51.5q49 0 89 -21l-22 -46q-36 17 -65 17q-51 0 -81 -38.5t-30 -98.5q0 -58 30.5 -96t91.5 -38z" />
    <glyph glyph-name="uni0369" unicode="&#x369;" horiz-adv-x="414" 
d="M294 568v160q38 10 69 16v-510h-69v31q-51 -39 -100 -39q-72 0 -116.5 47.5t-44.5 130.5q0 85 50.5 140t122.5 55q46 0 88 -31zM294 301v224q-34 22 -80 22t-77.5 -35.5t-31.5 -100.5q0 -64 30 -99.5t73 -35.5q48 0 86 25z" />
    <glyph glyph-name="uni036A" unicode="&#x36a;" horiz-adv-x="405" 
d="M352 234h-68v251q0 26 -15.5 42.5t-41.5 16.5q-22 0 -54 -13.5t-53 -28.5v-268h-68v494q40 11 68 16v-199q69 54 126 54q106 0 106 -114v-251z" />
    <glyph glyph-name="uni036B" unicode="&#x36b;" horiz-adv-x="639" 
d="M584 234h-69v251q0 26 -15.5 42.5t-41.5 16.5q-22 0 -54 -13.5t-52 -28.5v-268h-68v251q0 26 -15.5 42.5t-41.5 16.5q-23 0 -55.5 -13t-52.5 -29v-268h-68v357h66v-47q70 55 130 55q72 0 96 -60q72 60 136 60q45 0 75 -26t30 -88v-251z" />
    <glyph glyph-name="uni036C" unicode="&#x36c;" horiz-adv-x="237" 
d="M229 599v-72q-7 2 -14 2q-50 0 -97 -41v-254h-67v357h63v-59q23 26 57 45.5t58 21.5z" />
    <glyph glyph-name="uni036D" unicode="&#x36d;" horiz-adv-x="255" 
d="M247 291v-46q-30 -16 -73 -16q-19 0 -33 3.5t-31 13.5t-26.5 35t-9.5 62v202h-64v47h64v73l68 32v-105h93v-47h-93v-202q0 -33 9.5 -49.5t39.5 -16.5t56 14z" />
    <glyph glyph-name="uni036E" unicode="&#x36e;" horiz-adv-x="356" 
d="M216 234h-78l-128 357h71l100 -290q21 64 98 290h66z" />
    <glyph glyph-name="uni036F" unicode="&#x36f;" horiz-adv-x="347" 
d="M260 234l-87 139l-89 -139h-76l128 187q-39 56 -115 170h79l78 -129l79 129h71q-10 -14 -50.5 -75.5t-62.5 -94.5q24 -37 69 -104t55 -83h-79z" />
    <glyph glyph-name="tonos" unicode="&#x384;" horiz-adv-x="658" 
d="M284 754h89l-23 -157h-42z" />
    <glyph glyph-name="dieresistonos" unicode="&#x385;" horiz-adv-x="454" 
d="M181 745h89l-23 -157h-42zM148 588h-75v102h75v-102zM381 588h-75v102h75v-102z" />
    <glyph glyph-name="Alphatonos" unicode="&#x386;" horiz-adv-x="585" 
d="M13 702h89l-23 -157h-42zM491 0l-64 202h-273l-64 -202h-77l224 690h108l224 -690h-78zM291 635l-119 -376h237z" />
    <glyph glyph-name="Epsilontonos" unicode="&#x388;" horiz-adv-x="577" 
d="M-3 702h89l-23 -157h-42zM558 58v-58h-404v690h376v-58h-297v-248h261v-58h-261v-268h325z" />
    <glyph glyph-name="Etatonos" unicode="&#x389;" horiz-adv-x="764" 
d="M-2 702h89l-23 -157h-42zM682 0h-80v326h-370v-326h-79v690h79v-306h370v306h80v-690z" />
    <glyph glyph-name="Iotatonos" unicode="&#x38a;" horiz-adv-x="308" 
d="M7 702h89l-23 -157h-42zM224 0h-79v690h79v-690z" />
    <glyph glyph-name="Omicrontonos" unicode="&#x38c;" horiz-adv-x="808" 
d="M0 702h89l-23 -157h-42zM94 345q0 156 97.5 256.5t238.5 100.5t238 -100.5t97 -256.5t-97 -256.5t-238 -100.5t-238.5 100.5t-97.5 256.5zM175 345q0 -125 71 -212t184 -87t184 87t71 212q0 126 -71 212.5t-184 86.5t-184 -86.5t-71 -212.5z" />
    <glyph glyph-name="Upsilontonos" unicode="&#x38e;" horiz-adv-x="638" 
d="M0 702h89l-23 -157h-42zM626 690l-220 -395v-295h-79v295l-220 395h86l176 -322l176 322h81z" />
    <glyph glyph-name="Omegatonos" unicode="&#x38f;" horiz-adv-x="808" 
d="M431 644q-108 0 -181.5 -79t-73.5 -210q0 -97 52.5 -174t124.5 -123v-58h-224l-20 58h149q-162 126 -162 302q0 105 48.5 184.5t123.5 118.5t163 39t163 -39t123.5 -118.5t48.5 -184.5q0 -175 -163 -302h150l-20 -58h-224v58q72 46 124.5 123t52.5 174q0 131 -73.5 210
t-181.5 79zM0 702h89l-23 -157h-42z" />
    <glyph glyph-name="iotadieresistonos" unicode="&#x390;" horiz-adv-x="216" 
d="M59 745h89l-23 -187h-42zM26 588h-75v102h75v-102zM259 588h-75v102h75v-102zM140 510v-374q0 -52 14.5 -71t57.5 -22v-50q-82 0 -114.5 28t-32.5 120v369h75z" />
    <glyph glyph-name="Alpha" unicode="&#x391;" horiz-adv-x="589" 
d="M495 0l-64 202h-273l-64 -202h-77l224 690h108l224 -690h-78zM295 635l-119 -376h237z" />
    <glyph glyph-name="Beta" unicode="&#x392;" horiz-adv-x="562" 
d="M524 195q0 -102 -68.5 -148.5t-180.5 -46.5h-193v690h193q234 0 234 -168q0 -130 -132 -161v-2q147 -30 147 -164zM430 514q0 118 -142 118h-127v-249h95q81 0 127.5 33.5t46.5 97.5zM445 193q0 133 -183 133h-101v-268h116q79 0 123.5 33t44.5 102z" />
    <glyph glyph-name="Gamma" unicode="&#x393;" horiz-adv-x="486" 
d="M472 690l-6 -58h-305v-632h-79v690h390z" />
    <glyph glyph-name="uni0394" unicode="&#x394;" horiz-adv-x="586" 
d="M15 0l224 690h108l224 -690h-556zM293 635l-183 -577h365z" />
    <glyph glyph-name="Epsilon" unicode="&#x395;" horiz-adv-x="505" 
d="M486 58v-58h-404v690h376v-58h-297v-248h261v-58h-261v-268h325z" />
    <glyph glyph-name="Zeta" unicode="&#x396;" horiz-adv-x="525" 
d="M500 58v-58h-466v60l370 572h-356v58h441v-60l-371 -572h382z" />
    <glyph glyph-name="Eta" unicode="&#x397;" horiz-adv-x="693" 
d="M611 0h-80v326h-370v-326h-79v690h79v-306h370v306h80v-690z" />
    <glyph glyph-name="Theta" unicode="&#x398;" horiz-adv-x="757" 
d="M43 345q0 156 97.5 256.5t238.5 100.5t238 -100.5t97 -256.5t-97 -256.5t-238 -100.5t-238.5 100.5t-97.5 256.5zM124 345q0 -125 71 -212t184 -87t184 87t71 212q0 126 -71 212.5t-184 86.5t-184 -86.5t-71 -212.5zM574 384v-63h-391v63h391z" />
    <glyph glyph-name="Iota" unicode="&#x399;" horiz-adv-x="247" 
d="M163 0h-79v690h79v-690z" />
    <glyph glyph-name="Kappa" unicode="&#x39a;" horiz-adv-x="581" 
d="M567 690l-241 -278l274 -412h-90l-235 354l-121 -140v-214h-79v690h79v-383l326 383h87z" />
    <glyph glyph-name="Lambda" unicode="&#x39b;" horiz-adv-x="589" 
d="M495 0l-200 635l-201 -635h-77l224 690h108l224 -690h-78z" />
    <glyph glyph-name="Mu" unicode="&#x39c;" horiz-adv-x="869" 
d="M812 0h-77l-33 614h-3l-222 -614h-86l-222 614h-2l-33 -614h-77l44 690h116l219 -616l222 616h111z" />
    <glyph glyph-name="Nu" unicode="&#x39d;" horiz-adv-x="717" 
d="M635 0h-100l-377 615v-615h-76v690h114l362 -594h1v594h76v-690z" />
    <glyph glyph-name="Xi" unicode="&#x39e;" horiz-adv-x="633" 
d="M591 690v-63h-549v63h549zM531 384v-63h-429v63h429zM591 63v-63h-549v63h549z" />
    <glyph glyph-name="Omicron" unicode="&#x39f;" horiz-adv-x="757" 
d="M43 345q0 156 97.5 256.5t238.5 100.5t238 -100.5t97 -256.5t-97 -256.5t-238 -100.5t-238.5 100.5t-97.5 256.5zM124 345q0 -125 71 -212t184 -87t184 87t71 212q0 126 -71 212.5t-184 86.5t-184 -86.5t-71 -212.5z" />
    <glyph glyph-name="Pi" unicode="&#x3a0;" horiz-adv-x="690" 
d="M608 0h-80v632h-367v-632h-79v690h526v-690z" />
    <glyph glyph-name="Rho" unicode="&#x3a1;" horiz-adv-x="540" 
d="M506 495q0 -96 -59 -148t-152 -52h-134v-295h-79v690h215q100 0 154.5 -52t54.5 -143zM425 495q0 61 -33 99.5t-93 38.5h-138v-281h136q55 0 91.5 38t36.5 105z" />
    <glyph glyph-name="Sigma" unicode="&#x3a3;" horiz-adv-x="512" 
d="M499 58v-58h-454v61l240 288l-240 278v63h426v-58h-336l235 -270v-23l-236 -281h365z" />
    <glyph glyph-name="Tau" unicode="&#x3a4;" horiz-adv-x="486" 
d="M282 632v-632h-79v632h-191v58h461v-58h-191z" />
    <glyph glyph-name="Upsilon" unicode="&#x3a5;" horiz-adv-x="542" 
d="M530 690l-220 -395v-295h-79v295l-220 395h86l176 -322l176 322h81z" />
    <glyph glyph-name="Phi" unicode="&#x3a6;" horiz-adv-x="756" 
d="M416 0h-77v63q-137 8 -221.5 77t-84.5 205q0 70 24 123t66.5 86t96.5 50.5t119 20.5v65h77v-65q65 -3 119 -20.5t97 -50.5t67 -86t24 -123t-24 -123.5t-67 -86.5t-97 -50.5t-119 -21.5v-63zM113 345q0 -209 226 -224v447q-226 -15 -226 -223zM642 345q0 208 -226 223
v-447q226 15 226 224z" />
    <glyph glyph-name="Chi" unicode="&#x3a7;" horiz-adv-x="609" 
d="M503 0l-201 293l-202 -293h-86l246 355l-228 335h91l187 -274l185 274h85l-229 -335l244 -355h-92z" />
    <glyph glyph-name="Psi" unicode="&#x3a8;" horiz-adv-x="722" 
d="M401 231v-231h-79v231q-246 14 -246 175v284h77v-283q0 -57 47 -86.5t122 -33.5v403h79v-403q75 4 121.5 33t46.5 87v283h77v-284q0 -159 -245 -175z" />
    <glyph glyph-name="uni03A9" unicode="&#x3a9;" horiz-adv-x="754" 
d="M377 644q-108 0 -181.5 -79t-73.5 -210q0 -97 52.5 -174t124.5 -123v-58h-224l-20 58h149q-162 126 -162 302q0 105 48.5 184.5t123.5 118.5t163 39t163 -39t123.5 -118.5t48.5 -184.5q0 -175 -163 -302h150l-20 -58h-224v58q72 46 124.5 123t52.5 174q0 131 -73.5 210
t-181.5 79z" />
    <glyph glyph-name="Iotadieresis" unicode="&#x3aa;" horiz-adv-x="229" 
d="M70 761h-75v101h75v-101zM235 761h-75v101h75v-101zM155 0h-79v690h79v-690z" />
    <glyph glyph-name="Upsilondieresis" unicode="&#x3ab;" horiz-adv-x="542" 
d="M229 761h-75v101h75v-101zM394 761h-75v101h75v-101zM530 690l-220 -395v-295h-79v295l-220 395h86l176 -322l176 322h81z" />
    <glyph glyph-name="alphatonos" unicode="&#x3ac;" horiz-adv-x="585" 
d="M266 754h89l-23 -157h-42zM540 0h-79l-21 120h-3q-69 -132 -180 -132q-86 0 -149 74.5t-63 186.5q0 115 64.5 194t158.5 79q110 0 177 -130h2l18 118h73q-5 -31 -20 -123.5t-23 -144.5q13 -119 45 -242zM428 264q-19 83 -62.5 141t-95.5 58q-54 0 -100.5 -59t-46.5 -153
t46 -148.5t100 -54.5q55 0 95.5 61t63.5 155z" />
    <glyph glyph-name="epsilontonos" unicode="&#x3ad;" horiz-adv-x="471" 
d="M225 754h89l-23 -157h-42zM42 142q0 59 38.5 94.5t91.5 47.5q-44 14 -70.5 43.5t-26.5 69.5q0 53 49 89t141 36q54 0 105 -17t79 -53l-45 -36q-57 47 -139 47q-55 0 -83.5 -20t-28.5 -53q0 -40 38.5 -65t103.5 -25h69v-57h-80q-167 0 -167 -94q0 -51 44.5 -77t117.5 -26
q74 0 140 40l42 -46q-73 -52 -189 -52q-105 0 -167.5 40t-62.5 114z" />
    <glyph glyph-name="etatonos" unicode="&#x3ae;" horiz-adv-x="568" 
d="M262 754h89l-23 -157h-42zM495 -210h-75v574q0 45 -25.5 71t-68.5 26q-71 0 -172 -73v-388h-75v510h75v-70q105 82 194 82q65 0 106 -38t41 -122v-572z" />
    <glyph glyph-name="iotatonos" unicode="&#x3af;" horiz-adv-x="238" 
d="M83 754h89l-23 -157h-42zM150 510v-374q0 -52 14.5 -71t57.5 -22v-50q-82 0 -114.5 28t-32.5 120v369h75z" />
    <glyph glyph-name="upsilondieresistonos" unicode="&#x3b0;" horiz-adv-x="559" 
d="M226 745h89l-23 -187h-42zM193 588h-75v102h75v-102zM426 588h-75v102h75v-102zM284 -12q-110 0 -161 53t-51 165v304h75v-305q0 -80 31.5 -119t107.5 -39q145 0 145 181q0 96 -75 282h73q78 -164 78 -275q0 -117 -56 -182t-167 -65z" />
    <glyph glyph-name="alpha" unicode="&#x3b1;" horiz-adv-x="585" 
d="M540 0h-79l-21 120h-3q-69 -132 -180 -132q-86 0 -149 74.5t-63 186.5q0 115 64.5 194t158.5 79q110 0 177 -130h2l18 118h73q-5 -31 -20 -123.5t-23 -144.5q13 -119 45 -242zM428 264q-19 83 -62.5 141t-95.5 58q-54 0 -100.5 -59t-46.5 -153t46 -148.5t100 -54.5
q55 0 95.5 61t63.5 155z" />
    <glyph glyph-name="beta" unicode="&#x3b2;" horiz-adv-x="553" 
d="M509 213q0 -108 -65 -166.5t-174 -58.5q-70 0 -118 21v-219h-75v741q0 97 54.5 152.5t151.5 55.5q94 0 146 -44t52 -119q0 -68 -38 -111t-100 -56v-2q70 -9 118 -62.5t48 -131.5zM152 541v-471q53 -25 123 -25q78 0 117.5 45.5t39.5 121.5q0 80 -56.5 122t-137.5 42h-11
v56h5q80 0 127.5 36t47.5 98q0 58 -35.5 86t-92.5 28q-64 0 -95.5 -38t-31.5 -101z" />
    <glyph glyph-name="gamma" unicode="&#x3b3;" horiz-adv-x="509" 
d="M288 -210h-75v205q-36 96 -102.5 272.5t-91.5 242.5h80l160 -449h2q70 87 106.5 192.5t46.5 256.5h76q-16 -165 -62 -286.5t-140 -226.5v-207z" />
    <glyph glyph-name="delta" unicode="&#x3b4;" horiz-adv-x="585" 
d="M540 242q0 -117 -71 -185.5t-176 -68.5q-110 0 -179 73.5t-69 176.5q0 87 53 155.5t137 90.5q-72 28 -107 60t-35 75q0 59 56 97t147 38q112 0 216 -65l-39 -49q-86 56 -171 56q-57 0 -92.5 -20t-35.5 -52q0 -16 9.5 -30t30 -27t39.5 -22.5t51.5 -24t52.5 -24.5
q88 -45 135.5 -103.5t47.5 -150.5zM461 236q0 88 -48 139t-115 75q-64 -1 -119 -59.5t-55 -153.5q0 -89 50 -139.5t120 -50.5t118.5 50.5t48.5 138.5z" />
    <glyph glyph-name="epsilon" unicode="&#x3b5;" horiz-adv-x="470" 
d="M42 142q0 59 38.5 94.5t91.5 47.5q-44 14 -70.5 43.5t-26.5 69.5q0 53 49 89t141 36q54 0 105 -17t79 -53l-45 -36q-57 47 -139 47q-55 0 -83.5 -20t-28.5 -53q0 -40 38.5 -65t103.5 -25h69v-57h-80q-167 0 -167 -94q0 -51 44.5 -77t117.5 -26q74 0 140 40l42 -46
q-73 -52 -189 -52q-105 0 -167.5 40t-62.5 114z" />
    <glyph glyph-name="zeta" unicode="&#x3b6;" horiz-adv-x="413" 
d="M348 -203l-47 38q72 50 72 103q0 21 -11 34.5t-34 19.5t-39 8.5t-46 4.5q-94 6 -145 58t-51 144q0 223 306 442q-17 0 -67 -2t-70 -2q-115 0 -171 54l46 55q39 -31 73.5 -43.5t102.5 -12.5q56 0 182 9v-48q-141 -95 -231.5 -207.5t-90.5 -232.5q0 -38 11 -66t25.5 -42.5
t38.5 -23.5t40 -11t40 -4q23 -2 39 -4t41 -9.5t40.5 -19.5t27.5 -35t12 -54q0 -87 -94 -153z" />
    <glyph glyph-name="eta" unicode="&#x3b7;" horiz-adv-x="568" 
d="M493 -210h-75v574q0 45 -25.5 71t-68.5 26q-71 0 -172 -73v-388h-75v510h75v-70q105 82 194 82q65 0 106 -38t41 -122v-572z" />
    <glyph glyph-name="theta" unicode="&#x3b8;" horiz-adv-x="565" 
d="M282 -12q-77 0 -129.5 56.5t-74 137t-21.5 176.5q0 72 13 137.5t38.5 121.5t70.5 89t103 33q59 0 104 -33t70.5 -89t38.5 -121.5t13 -137.5t-13 -136t-38.5 -117.5t-70.5 -85t-104 -31.5zM282 681q-38 0 -67 -27.5t-45.5 -73t-25 -93.5t-10.5 -99h295q-2 51 -10.5 99
t-24.5 93.5t-45 73t-67 27.5zM282 46q39 0 69 27t45.5 71.5t23.5 91t10 96.5h-296q2 -50 10 -96.5t23.5 -91t45.5 -71.5t69 -27z" />
    <glyph glyph-name="iota" unicode="&#x3b9;" horiz-adv-x="239" 
d="M151 510v-374q0 -52 14.5 -71t57.5 -22v-50q-82 0 -114.5 28t-32.5 120v369h75z" />
    <glyph glyph-name="kappa" unicode="&#x3ba;" horiz-adv-x="525" 
d="M77 0v510h75v-220h32q43 0 61.5 13.5t48.5 59.5l36 57q38 58 66 74t86 16h16v-57h-12q-31 0 -51.5 -13t-42.5 -47l-32 -48q-41 -65 -72 -74q46 -13 116 -103l131 -168h-94l-109 143q-45 60 -69.5 75.5t-82.5 15.5h-28v-234h-75z" />
    <glyph glyph-name="lambda" unicode="&#x3bb;" horiz-adv-x="538" 
d="M439 0l-168 428l-175 -428h-77l216 515l-102 239h82l305 -754h-81z" />
    <glyph glyph-name="uni03BC" unicode="&#x3bc;" horiz-adv-x="567" 
d="M77 -210v720h75v-374q0 -44 20 -65t66 -21q58 0 177 67v393h75v-510h-73v68q-131 -80 -207 -80q-35 0 -58 13v-211h-75z" />
    <glyph glyph-name="nu" unicode="&#x3bd;" horiz-adv-x="509" 
d="M297 0h-85q-65 170 -193 510h80l156 -436h2q34 93 157 436h76q-128 -340 -193 -510z" />
    <glyph glyph-name="xi" unicode="&#x3be;" horiz-adv-x="453" 
d="M466 -56q0 -83 -92 -147l-47 39q71 49 71 99q0 38 -32.5 51.5t-102.5 13.5h-38q-86 0 -140.5 52.5t-54.5 131.5q0 77 46.5 126t117.5 58v4q-131 28 -131 138q0 93 109 136v1l-1 1h-16q-106 0 -155 51q2 2 19.5 23t26.5 32q39 -31 73.5 -43.5t103.5 -12.5q99 0 211 8v-56
h-70q-222 0 -222 -137q0 -58 53 -89t133 -31h77v-58h-102q-100 0 -147.5 -37.5t-47.5 -103.5q0 -67 45 -99t117 -32h37q159 0 159 -119z" />
    <glyph glyph-name="omicron" unicode="&#x3bf;" horiz-adv-x="584" 
d="M539 257q0 -114 -69 -191.5t-178 -77.5t-178 77.5t-69 191.5t68.5 189.5t178.5 75.5t178.5 -75.5t68.5 -189.5zM462 254q0 84 -46 146.5t-124 62.5t-124 -62.5t-46 -146.5q0 -81 43.5 -144t126.5 -63t126.5 63t43.5 144z" />
    <glyph glyph-name="pi" unicode="&#x3c0;" horiz-adv-x="572" 
d="M562 -1q-26 -9 -60 -9q-128 0 -128 137v327h-182v-454h-75v454h-100v56h551v-56h-119v-328q0 -77 64 -77q26 0 49 9v-59z" />
    <glyph glyph-name="rho" unicode="&#x3c1;" horiz-adv-x="576" 
d="M531 269q0 -135 -77 -208t-192 -73q-45 0 -111 12v-210h-75v485q0 119 58.5 183t163.5 64q100 0 166.5 -69t66.5 -184zM454 270q0 92 -45 142t-114 50q-70 0 -107 -48t-37 -141v-209q44 -17 113 -17q85 0 137.5 57t52.5 166z" />
    <glyph glyph-name="sigma1" unicode="&#x3c2;" horiz-adv-x="459" 
d="M467 -62q0 -77 -91 -141l-50 38q68 47 68 95q0 21 -26.5 34t-65.5 20t-85.5 24t-85.5 41t-65.5 75.5t-26.5 124.5q0 122 76.5 197.5t186.5 75.5q73 0 131 -29l-26 -56q-50 25 -103 25q-83 0 -135 -59.5t-52 -150.5q0 -56 19.5 -95t50 -58t68 -31t75 -20t68 -18.5t50 -33
t19.5 -58.5z" />
    <glyph glyph-name="sigma" unicode="&#x3c3;" horiz-adv-x="592" 
d="M539 255q0 -113 -69 -190t-178 -77t-178 77t-69 190q0 116 68.5 191.5t178.5 75.5q38 0 79 -12h228v-57h-145q85 -77 85 -198zM462 255q0 83 -46 145.5t-124 62.5t-124 -62.5t-46 -145.5q0 -82 43.5 -145t126.5 -63t126.5 63t43.5 145z" />
    <glyph glyph-name="tau" unicode="&#x3c4;" horiz-adv-x="424" 
d="M411 510v-57h-162v-453h-75v453h-162v57h399z" />
    <glyph glyph-name="upsilon" unicode="&#x3c5;" horiz-adv-x="559" 
d="M285 -12q-110 0 -161 53t-51 165v304h75v-305q0 -80 31.5 -119t107.5 -39q145 0 145 181q0 96 -75 282h73q78 -164 78 -275q0 -117 -56 -182t-167 -65z" />
    <glyph glyph-name="phi" unicode="&#x3c6;" horiz-adv-x="705" 
d="M438 522q93 0 157.5 -70t64.5 -185q0 -126 -81.5 -202t-190.5 -79v-196h-73v196q-124 5 -197 77t-73 187q0 99 51 172t153 97l13 -57q-61 -18 -100.5 -72t-39.5 -139q0 -94 55.5 -148t137.5 -57v346q0 130 123 130zM582 268q0 89 -42 142.5t-95 53.5q-55 0 -55 -71v-347
q83 2 137.5 61.5t54.5 160.5z" />
    <glyph glyph-name="chi" unicode="&#x3c7;" horiz-adv-x="515" 
d="M421 -210l-172 314l-159 -314h-84l201 383l-186 337h89l146 -272l138 272h79l-176 -340l212 -380h-88z" />
    <glyph glyph-name="psi" unicode="&#x3c8;" horiz-adv-x="761" 
d="M418 -10v-200h-74v200q-55 3 -100.5 14t-84.5 33t-61 60t-22 90v323h76v-308q0 -145 192 -153v461h74v-461q192 10 192 153v308h75v-323q0 -67 -39.5 -112t-96.5 -63.5t-131 -21.5z" />
    <glyph glyph-name="omega" unicode="&#x3c9;" horiz-adv-x="772" 
d="M235 -12q-96 0 -142.5 67t-46.5 181q0 112 77 274h73q-74 -179 -74 -281q0 -182 120 -182q57 0 80.5 40t23.5 120v208h80v-203q0 -85 23 -125t81 -40q120 0 120 182q0 102 -74 281h73q77 -162 77 -274q0 -114 -47.5 -181t-144.5 -67q-107 0 -148 89q-41 -89 -151 -89z
" />
    <glyph glyph-name="iotadieresis" unicode="&#x3ca;" horiz-adv-x="221" 
d="M63 581h-75v101h75v-101zM228 581h-75v101h75v-101zM141 510v-374q0 -52 14.5 -71t57.5 -22v-50q-82 0 -114.5 28t-32.5 120v369h75z" />
    <glyph glyph-name="upsilondieresis" unicode="&#x3cb;" horiz-adv-x="560" 
d="M227 581h-75v101h75v-101zM392 581h-75v101h75v-101zM285 -12q-110 0 -161 53t-51 165v304h75v-305q0 -80 31.5 -119t107.5 -39q145 0 145 181q0 96 -75 282h73q78 -164 78 -275q0 -117 -56 -182t-167 -65z" />
    <glyph glyph-name="omicrontonos" unicode="&#x3cc;" horiz-adv-x="584" 
d="M272 754h89l-23 -157h-42zM539 257q0 -114 -69 -191.5t-178 -77.5t-178 77.5t-69 191.5t68.5 189.5t178.5 75.5t178.5 -75.5t68.5 -189.5zM462 254q0 84 -46 146.5t-124 62.5t-124 -62.5t-46 -146.5q0 -81 43.5 -144t126.5 -63t126.5 63t43.5 144z" />
    <glyph glyph-name="upsilontonos" unicode="&#x3cd;" horiz-adv-x="560" 
d="M239 754h89l-23 -157h-42zM285 -12q-110 0 -161 53t-51 165v304h75v-305q0 -80 31.5 -119t107.5 -39q145 0 145 181q0 96 -75 282h73q78 -164 78 -275q0 -117 -56 -182t-167 -65z" />
    <glyph glyph-name="omegatonos" unicode="&#x3ce;" horiz-adv-x="772" 
d="M360 754h89l-23 -157h-42zM235 -12q-96 0 -142.5 67t-46.5 181q0 112 77 274h73q-74 -179 -74 -281q0 -182 120 -182q57 0 80.5 40t23.5 120v208h80v-203q0 -85 23 -125t81 -40q120 0 120 182q0 102 -74 281h73q77 -162 77 -274q0 -114 -47.5 -181t-144.5 -67
q-107 0 -148 89q-41 -89 -151 -89z" />
    <glyph glyph-name="uni0400" unicode="&#x400;" horiz-adv-x="505" 
d="M250 748l-65 122h81l50 -122h-66zM486 58v-58h-404v690h376v-58h-297v-248h261v-58h-261v-268h325z" />
    <glyph glyph-name="afii10023" unicode="&#x401;" horiz-adv-x="505" 
d="M206 761h-75v101h75v-101zM371 761h-75v101h75v-101zM486 58v-58h-404v690h376v-58h-297v-248h261v-58h-261v-268h325z" />
    <glyph glyph-name="afii10051" unicode="&#x402;" horiz-adv-x="770" 
d="M545 -12l-41 47q58 32 94 80t36 105q0 75 -44 112t-120 37q-90 0 -178 -52v-317h-79v632h-201v58h481v-58h-201v-259q98 60 196 60t162 -51t64 -154q0 -80 -52.5 -146.5t-116.5 -93.5z" />
    <glyph glyph-name="afii10052" unicode="&#x403;" horiz-adv-x="488" 
d="M360 870l-65 -122h-66l50 122h81zM472 690l-6 -58h-305v-632h-79v690h390z" />
    <glyph glyph-name="afii10053" unicode="&#x404;" horiz-adv-x="565" 
d="M522 70l19 -57q-69 -25 -155 -25q-150 0 -246.5 101.5t-96.5 258.5q0 161 100.5 257.5t245.5 96.5q88 0 156 -29l-24 -59q-60 29 -135 29q-112 0 -182 -73.5t-80 -185.5h361v-58h-362q6 -122 81 -200.5t190 -78.5q75 0 128 23z" />
    <glyph glyph-name="afii10054" unicode="&#x405;" horiz-adv-x="479" 
d="M439 170q0 -84 -63 -133t-150 -49q-53 0 -104 16t-82 38l38 55q24 -19 69 -35t83 -16q55 0 92.5 31.5t37.5 87.5q0 42 -33 77.5t-80 62.5t-94.5 55.5t-80.5 71t-33 95.5q0 80 59.5 127.5t145.5 47.5q89 0 161 -47l-30 -54q-22 15 -61.5 29t-73.5 14q-52 0 -86.5 -27
t-34.5 -75q0 -43 33 -78.5t80 -62.5t94 -56t80 -73.5t33 -101.5z" />
    <glyph glyph-name="afii10055" unicode="&#x406;" horiz-adv-x="247" 
d="M163 0h-79v690h79v-690z" />
    <glyph glyph-name="afii10056" unicode="&#x407;" horiz-adv-x="229" 
d="M70 761h-75v101h75v-101zM235 761h-75v101h75v-101zM155 0h-79v690h79v-690z" />
    <glyph glyph-name="afii10057" unicode="&#x408;" horiz-adv-x="370" 
d="M290 690v-545q0 -78 -47 -117t-125 -39q-73 0 -115 20l19 58q32 -20 93 -20q96 0 96 92v551h79z" />
    <glyph glyph-name="afii10058" unicode="&#x409;" horiz-adv-x="1027" 
d="M984 202q0 -72 -41.5 -122t-100 -71t-126.5 -21q-59 0 -194 15v629h-318l-27 -493q-4 -80 -39 -112.5t-100 -32.5q-29 0 -54 5v57q20 -4 42 -4q35 0 52.5 19t20.5 72l32 547h471v-309q73 23 147 23q109 0 172 -53t63 -149zM903 201q0 68 -46 104.5t-126 36.5
q-76 0 -129 -18v-265q54 -14 119 -14q76 0 129 40.5t53 115.5z" />
    <glyph glyph-name="afii10059" unicode="&#x40a;" horiz-adv-x="1036" 
d="M993 202q0 -72 -41.5 -122t-100 -71t-126.5 -21q-59 0 -194 15v323h-370v-326h-79v690h79v-306h370v306h80v-309q73 23 147 23q109 0 172 -53t63 -149zM912 201q0 68 -46 104.5t-126 36.5q-76 0 -129 -18v-265q54 -14 119 -14q76 0 129 40.5t53 115.5z" />
    <glyph glyph-name="afii10060" unicode="&#x40b;" horiz-adv-x="769" 
d="M693 0h-78v260q0 54 -33 82.5t-89 28.5q-49 0 -108 -21.5t-93 -46.5v-303h-79v632h-201v58h481v-58h-201v-273q35 27 98 52t125 25q78 0 128 -40.5t50 -134.5v-261z" />
    <glyph glyph-name="afii10061" unicode="&#x40c;" horiz-adv-x="637" 
d="M384 870l-65 -122h-66l50 122h81zM82 0v690h79v-306h56q51 0 79.5 19t63.5 83l50 92q35 65 67 88.5t100 23.5h32v-58h-32q-39 0 -59 -18.5t-49 -74.5l-36 -69q-39 -75 -101 -99q91 -12 174 -145l142 -226h-92l-133 216q-42 68 -81.5 89t-125.5 21h-55v-326h-79z" />
    <glyph glyph-name="uni040D" unicode="&#x40d;" horiz-adv-x="717" 
d="M356 748l-65 122h81l50 -122h-66zM185 0h-103v690h79v-603h1l356 603h117v-690h-79v625z" />
    <glyph glyph-name="afii10062" unicode="&#x40e;" horiz-adv-x="614" 
d="M433 870q0 -56 -35.5 -90t-94.5 -34t-94.5 34t-35.5 90h54q0 -32 21.5 -51t54.5 -19q32 0 54 19t22 51h54zM261 150l20 44l-260 496h83l217 -417l197 417h80l-272 -569q-32 -67 -74 -100t-117 -33q-42 0 -92 10v59q38 -10 77 -10q51 0 82 21t59 82z" />
    <glyph glyph-name="afii10145" unicode="&#x40f;" horiz-adv-x="687" 
d="M304 -165v165h-222v690h79v-632h365v632h79v-690h-223v-165h-78z" />
    <glyph glyph-name="afii10017" unicode="&#x410;" horiz-adv-x="589" 
d="M495 0l-64 202h-273l-64 -202h-77l224 690h108l224 -690h-78zM295 635l-119 -376h237z" />
    <glyph glyph-name="afii10018" unicode="&#x411;" horiz-adv-x="586" 
d="M543 202q0 -72 -41.5 -122t-100 -71t-126.5 -21q-81 0 -193 19v683h390l-6 -58h-305v-251q73 23 147 23q109 0 172 -53t63 -149zM463 201q0 67 -46 104t-127 37q-76 0 -129 -18v-265q54 -14 119 -14q76 0 129.5 40.5t53.5 115.5z" />
    <glyph glyph-name="afii10019" unicode="&#x412;" horiz-adv-x="557" 
d="M524 195q0 -102 -68.5 -148.5t-180.5 -46.5h-193v690h193q234 0 234 -168q0 -130 -132 -161v-2q147 -30 147 -164zM430 514q0 118 -142 118h-127v-249h95q81 0 127.5 33.5t46.5 97.5zM445 193q0 133 -183 133h-101v-268h116q79 0 123.5 33t44.5 102z" />
    <glyph glyph-name="afii10020" unicode="&#x413;" horiz-adv-x="488" 
d="M472 690l-6 -58h-305v-632h-79v690h390z" />
    <glyph glyph-name="afii10021" unicode="&#x414;" horiz-adv-x="673" 
d="M164 690h416v-632h64v-224h-73v166h-476v-166h-73v224h56q46 70 66 167t20 285v180zM501 632h-259v-158q0 -161 -22 -253t-61 -163h342v574z" />
    <glyph glyph-name="afii10022" unicode="&#x415;" horiz-adv-x="505" 
d="M486 58v-58h-404v690h376v-58h-297v-248h261v-58h-261v-268h325z" />
    <glyph glyph-name="afii10024" unicode="&#x416;" horiz-adv-x="1023" 
d="M551 690v-306h46q50 0 80.5 22t71.5 97l41 75q36 66 67.5 89t99.5 23h32v-58h-32q-39 0 -59 -18.5t-49 -74.5l-36 -69q-39 -75 -101 -99q91 -12 174 -145l142 -226h-92l-133 216q-42 68 -81.5 89t-125.5 21h-45v-326h-79v326h-45q-87 0 -126.5 -21t-81.5 -89l-133 -216
h-91l142 226q83 133 173 145q-61 24 -100 99l-36 69q-30 57 -49.5 75t-59.5 18h-31v58h32q68 0 100 -23.5t67 -88.5l40 -75q40 -77 70 -98t83 -21h46v306h79z" />
    <glyph glyph-name="afii10025" unicode="&#x417;" horiz-adv-x="568" 
d="M516 214q0 -107 -81 -166.5t-195 -59.5q-60 0 -121.5 17t-96.5 44l43 48q31 -20 81 -36t96 -16q82 0 140 42t58 120q0 69 -53.5 101t-134.5 32h-100v59h65q80 0 131 36.5t51 94.5q0 52 -38 82t-101 30q-52 0 -94.5 -19.5t-65.5 -50.5l-64 26q65 104 229 104
q98 0 155 -45.5t57 -117.5q0 -55 -33.5 -95t-86.5 -60q159 -37 159 -170z" />
    <glyph glyph-name="afii10026" unicode="&#x418;" horiz-adv-x="717" 
d="M185 0h-103v690h79v-603h1l356 603h117v-690h-79v625z" />
    <glyph glyph-name="afii10027" unicode="&#x419;" horiz-adv-x="717" 
d="M486 870q0 -56 -35.5 -90t-94.5 -34t-94.5 34t-35.5 90h54q0 -32 21.5 -51t54.5 -19q32 0 54 19t22 51h54zM185 0h-103v690h79v-603h1l356 603h117v-690h-79v625z" />
    <glyph glyph-name="afii10028" unicode="&#x41a;" horiz-adv-x="637" 
d="M82 0v690h79v-306h56q51 0 79.5 19t63.5 83l50 92q35 65 67 88.5t100 23.5h32v-58h-32q-39 0 -59 -18.5t-49 -74.5l-36 -69q-39 -75 -101 -99q91 -12 174 -145l142 -226h-92l-133 216q-42 68 -81.5 89t-125.5 21h-55v-326h-79z" />
    <glyph glyph-name="afii10029" unicode="&#x41b;" horiz-adv-x="684" 
d="M99 143l32 547h471v-690h-80v632h-318l-27 -493q-4 -80 -39 -113t-100 -33q-17 0 -54 5v58q18 -4 42 -4q36 0 53 19t20 72z" />
    <glyph glyph-name="afii10030" unicode="&#x41c;" horiz-adv-x="869" 
d="M812 0h-77l-33 614h-3l-222 -614h-86l-222 614h-2l-33 -614h-77l44 690h116l219 -616l222 616h111z" />
    <glyph glyph-name="afii10031" unicode="&#x41d;" horiz-adv-x="693" 
d="M611 0h-80v326h-370v-326h-79v690h79v-306h370v306h80v-690z" />
    <glyph glyph-name="afii10032" unicode="&#x41e;" horiz-adv-x="757" 
d="M43 345q0 156 97.5 256.5t238.5 100.5t238 -100.5t97 -256.5t-97 -256.5t-238 -100.5t-238.5 100.5t-97.5 256.5zM124 345q0 -125 71 -212t184 -87t184 87t71 212q0 126 -71 212.5t-184 86.5t-184 -86.5t-71 -212.5z" />
    <glyph glyph-name="afii10033" unicode="&#x41f;" horiz-adv-x="690" 
d="M608 0h-80v632h-367v-632h-79v690h526v-690z" />
    <glyph glyph-name="afii10034" unicode="&#x420;" horiz-adv-x="540" 
d="M506 495q0 -96 -59 -148t-152 -52h-134v-295h-79v690h215q100 0 154.5 -52t54.5 -143zM425 495q0 61 -33 99.5t-93 38.5h-138v-281h136q55 0 91.5 38t36.5 105z" />
    <glyph glyph-name="afii10035" unicode="&#x421;" horiz-adv-x="571" 
d="M522 70l19 -57q-69 -25 -157 -25q-148 0 -244.5 101.5t-96.5 258.5q0 161 100.5 257.5t243.5 96.5q90 0 158 -29l-24 -59q-61 29 -137 29q-119 0 -190.5 -85.5t-71.5 -210.5q0 -130 76 -215t192 -85q77 0 132 23z" />
    <glyph glyph-name="afii10036" unicode="&#x422;" horiz-adv-x="486" 
d="M282 632v-632h-79v632h-191v58h461v-58h-191z" />
    <glyph glyph-name="afii10037" unicode="&#x423;" horiz-adv-x="614" 
d="M261 150l20 44l-260 496h83l217 -417l197 417h80l-272 -569q-32 -67 -74 -100t-117 -33q-42 0 -92 10v59q38 -10 77 -10q51 0 82 21t59 82z" />
    <glyph glyph-name="afii10038" unicode="&#x424;" horiz-adv-x="756" 
d="M416 0h-77v63q-137 8 -221.5 77t-84.5 205q0 70 24 123t66.5 86t96.5 50.5t119 20.5v65h77v-65q65 -3 119 -20.5t97 -50.5t67 -86t24 -123t-24 -123.5t-67 -86.5t-97 -50.5t-119 -21.5v-63zM113 345q0 -209 226 -224v447q-226 -15 -226 -223zM642 345q0 208 -226 223
v-447q226 15 226 224z" />
    <glyph glyph-name="afii10039" unicode="&#x425;" horiz-adv-x="609" 
d="M503 0l-201 293l-202 -293h-86l246 355l-228 335h91l187 -274l185 274h85l-229 -335l244 -355h-92z" />
    <glyph glyph-name="afii10040" unicode="&#x426;" horiz-adv-x="694" 
d="M598 -165v165h-516v690h79v-632h365v632h79v-632h70v-223h-77z" />
    <glyph glyph-name="afii10041" unicode="&#x427;" horiz-adv-x="639" 
d="M76 690h79v-261q0 -54 33 -82.5t88 -28.5q49 0 108 21.5t93 46.5v304h80v-690h-80v330q-36 -27 -98.5 -51.5t-124.5 -24.5q-78 0 -128 40.5t-50 133.5v262z" />
    <glyph glyph-name="afii10042" unicode="&#x428;" horiz-adv-x="1001" 
d="M840 690h79v-690h-837v690h79v-632h300v632h79v-632h300v632z" />
    <glyph glyph-name="afii10043" unicode="&#x429;" horiz-adv-x="1008" 
d="M912 0h-830v690h79v-632h300v632h79v-632h300v632h79v-632h70v-223h-77v165z" />
    <glyph glyph-name="afii10044" unicode="&#x42a;" horiz-adv-x="718" 
d="M675 202q0 -72 -41.5 -122t-100 -71t-126.5 -21q-59 0 -194 15v629h-201v58h280v-309q74 23 148 23q109 0 172 -53t63 -149zM594 201q0 68 -46 104.5t-126 36.5q-77 0 -130 -18v-265q56 -14 120 -14q76 0 129 40.5t53 115.5z" />
    </font>
</defs>
</svg>
